M48
INCH,LZ
;FILE_FORMAT=2:4
;TYPE=PLATED
;Layer: PTH_Through
;EasyEDA v6.5.22, 2023-04-04 18:07:08
;a67cddfb3fce44daa9051d46cbbcc19f,10
;Gerber Generator version 0.2
;Holesize 1 = 0.0350 inch
T01C0.0350
%
G05
G90
T01
X024531Y026031
X023531Y026031
X022531Y026031
X021531Y026031
X020531Y026031
X019531Y026031
X018531Y026031
X017531Y026031
X016531Y026031
X015531Y026031
X024531Y020031
X023531Y020031
X022531Y020031
X021531Y020031
X020531Y020031
X019531Y020031
X018531Y020031
X017531Y020031
X016531Y020031
X015531Y020031
X014531Y016531
X013531Y016531
X012531Y016531
X011531Y016531
X010531Y016531
X009531Y016531
X008531Y016531
X007531Y016531
X006531Y016531
X005531Y016531
X014531Y010531
X013531Y010531
X012531Y010531
X011531Y010531
X010531Y010531
X009531Y010531
X008531Y010531
X007531Y010531
X006531Y010531
X005531Y010531
X024531Y016531
X023531Y016531
X022531Y016531
X021531Y016531
X020531Y016531
X019531Y016531
X018531Y016531
X017531Y016531
X016531Y016531
X015531Y016531
X024531Y010531
X023531Y010531
X022531Y010531
X021531Y010531
X020531Y010531
X019531Y010531
X018531Y010531
X017531Y010531
X016531Y010531
X015531Y010531
X034531Y016531
X033531Y016531
X032531Y016531
X031531Y016531
X030531Y016531
X029531Y016531
X028531Y016531
X027531Y016531
X026531Y016531
X025531Y016531
X034531Y010531
X033531Y010531
X032531Y010531
X031531Y010531
X030531Y010531
X029531Y010531
X028531Y010531
X027531Y010531
X026531Y010531
X025531Y010531
X014531Y026031
X013531Y026031
X012531Y026031
X011531Y026031
X010531Y026031
X009531Y026031
X008531Y026031
X007531Y026031
X006531Y026031
X005531Y026031
X014531Y020031
X013531Y020031
X012531Y020031
X011531Y020031
X010531Y020031
X009531Y020031
X008531Y020031
X007531Y020031
X006531Y020031
X005531Y020031
X034531Y026031
X033531Y026031
X032531Y026031
X031531Y026031
X030531Y026031
X029531Y026031
X028531Y026031
X027531Y026031
X026531Y026031
X025531Y026031
X034531Y020031
X033531Y020031
X032531Y020031
X031531Y020031
X030531Y020031
X029531Y020031
X028531Y020031
X027531Y020031
X026531Y020031
X025531Y020031
X014531Y007031
X013531Y007031
X012531Y007031
X011531Y007031
X010531Y007031
X009531Y007031
X008531Y007031
X007531Y007031
X006531Y007031
X005531Y007031
X014531Y002031
X013531Y002031
X012531Y002031
X011531Y002031
X010531Y002031
X009531Y002031
X008531Y002031
X007531Y002031
X006531Y002031
X005531Y002031
X024531Y007031
X023531Y007031
X022531Y007031
X021531Y007031
X020531Y007031
X019531Y007031
X018531Y007031
X017531Y007031
X016531Y007031
X015531Y007031
X024531Y002031
X023531Y002031
X022531Y002031
X021531Y002031
X020531Y002031
X019531Y002031
X018531Y002031
X017531Y002031
X016531Y002031
X015531Y002031
X034531Y007031
X033531Y007031
X032531Y007031
X031531Y007031
X030531Y007031
X029531Y007031
X028531Y007031
X027531Y007031
X026531Y007031
X025531Y007031
X034531Y002031
X033531Y002031
X032531Y002031
X031531Y002031
X030531Y002031
X029531Y002031
X028531Y002031
X027531Y002031
X026531Y002031
X025531Y002031
X014500Y036000
X013500Y036000
X012500Y036000
X011500Y036000
X010500Y036000
X009500Y036000
X008500Y036000
X007500Y036000
X006500Y036000
X005500Y036000
X014500Y030000
X013500Y030000
X012500Y030000
X011500Y030000
X010500Y030000
X009500Y030000
X008500Y030000
X007500Y030000
X006500Y030000
X005500Y030000
X024500Y036000
X023500Y036000
X022500Y036000
X021500Y036000
X020500Y036000
X019500Y036000
X018500Y036000
X017500Y036000
X016500Y036000
X015500Y036000
X024500Y030000
X023500Y030000
X022500Y030000
X021500Y030000
X020500Y030000
X019500Y030000
X018500Y030000
X017500Y030000
X016500Y030000
X015500Y030000
X034500Y036000
X033500Y036000
X032500Y036000
X031500Y036000
X030500Y036000
X029500Y036000
X028500Y036000
X027500Y036000
X026500Y036000
X025500Y036000
X034500Y030000
X033500Y030000
X032500Y030000
X031500Y030000
X030500Y030000
X029500Y030000
X028500Y030000
X027500Y030000
X026500Y030000
X025500Y030000
M30
