G04 Layer: TopPasteMaskLayer*
G04 EasyEDA v6.5.22, 2023-04-04 18:07:08*
G04 a67cddfb3fce44daa9051d46cbbcc19f,10*
G04 Gerber Generator version 0.2*
G04 Scale: 100 percent, Rotated: No, Reflected: No *
G04 Dimensions in inches *
G04 leading zeros omitted , absolute positions ,3 integer and 6 decimal *
%FSLAX36Y36*%
%MOIN*%

%ADD10C,0.0001*%

%LPD*%
G36*
X527960Y2420080D02*
G01*
X525980Y2418100D01*
X525980Y2372820D01*
X527960Y2370860D01*
X544480Y2371060D01*
X544480Y2388380D01*
X562200Y2388380D01*
X562200Y2370660D01*
X578340Y2370860D01*
X580320Y2372820D01*
X580320Y2418100D01*
X578340Y2420080D01*
G37*
G36*
X527960Y2335420D02*
G01*
X525980Y2333460D01*
X525980Y2288180D01*
X527960Y2286220D01*
X578340Y2286220D01*
X580320Y2288180D01*
X580320Y2333460D01*
X578340Y2335420D01*
X562200Y2335220D01*
X562200Y2317900D01*
X544480Y2317900D01*
X544480Y2335420D01*
G37*
G36*
X627960Y2420080D02*
G01*
X625980Y2418100D01*
X625980Y2372820D01*
X627960Y2370860D01*
X644479Y2371060D01*
X644479Y2388380D01*
X662200Y2388380D01*
X662200Y2370660D01*
X678340Y2370860D01*
X680320Y2372820D01*
X680320Y2418100D01*
X678340Y2420080D01*
G37*
G36*
X627960Y2335420D02*
G01*
X625980Y2333460D01*
X625980Y2288180D01*
X627960Y2286220D01*
X678340Y2286220D01*
X680320Y2288180D01*
X680320Y2333460D01*
X678340Y2335420D01*
X662200Y2335220D01*
X662200Y2317900D01*
X644479Y2317900D01*
X644479Y2335420D01*
G37*
G36*
X727960Y2420080D02*
G01*
X725980Y2418100D01*
X725980Y2372820D01*
X727960Y2370860D01*
X744479Y2371060D01*
X744479Y2388380D01*
X762200Y2388380D01*
X762200Y2370660D01*
X778340Y2370860D01*
X780320Y2372820D01*
X780320Y2418100D01*
X778340Y2420080D01*
G37*
G36*
X727960Y2335420D02*
G01*
X725980Y2333460D01*
X725980Y2288180D01*
X727960Y2286220D01*
X778340Y2286220D01*
X780320Y2288180D01*
X780320Y2333460D01*
X778340Y2335420D01*
X762200Y2335220D01*
X762200Y2317900D01*
X744479Y2317900D01*
X744479Y2335420D01*
G37*
G36*
X827940Y2420080D02*
G01*
X825980Y2418100D01*
X825980Y2372820D01*
X827940Y2370860D01*
X844479Y2371060D01*
X844479Y2388380D01*
X862200Y2388380D01*
X862200Y2370660D01*
X878340Y2370860D01*
X880320Y2372820D01*
X880320Y2418100D01*
X878340Y2420080D01*
G37*
G36*
X827940Y2335420D02*
G01*
X825980Y2333460D01*
X825980Y2288180D01*
X827940Y2286220D01*
X878340Y2286220D01*
X880320Y2288180D01*
X880320Y2333460D01*
X878340Y2335420D01*
X862200Y2335220D01*
X862200Y2317900D01*
X844479Y2317900D01*
X844479Y2335420D01*
G37*
G36*
X927940Y2420080D02*
G01*
X925980Y2418100D01*
X925980Y2372820D01*
X927940Y2370860D01*
X944479Y2371060D01*
X944479Y2388380D01*
X962200Y2388380D01*
X962200Y2370660D01*
X978340Y2370860D01*
X980320Y2372820D01*
X980320Y2418100D01*
X978340Y2420080D01*
G37*
G36*
X927940Y2335420D02*
G01*
X925980Y2333460D01*
X925980Y2288180D01*
X927940Y2286220D01*
X978340Y2286220D01*
X980320Y2288180D01*
X980320Y2333460D01*
X978340Y2335420D01*
X962200Y2335220D01*
X962200Y2317900D01*
X944479Y2317900D01*
X944479Y2335420D01*
G37*
G36*
X1027940Y2420080D02*
G01*
X1025980Y2418100D01*
X1025980Y2372820D01*
X1027940Y2370860D01*
X1044479Y2371060D01*
X1044479Y2388380D01*
X1062200Y2388380D01*
X1062200Y2370660D01*
X1078340Y2370860D01*
X1080320Y2372820D01*
X1080320Y2418100D01*
X1078340Y2420080D01*
G37*
G36*
X1027940Y2335420D02*
G01*
X1025980Y2333460D01*
X1025980Y2288180D01*
X1027940Y2286220D01*
X1078340Y2286220D01*
X1080320Y2288180D01*
X1080320Y2333460D01*
X1078340Y2335420D01*
X1062200Y2335220D01*
X1062200Y2317900D01*
X1044479Y2317900D01*
X1044479Y2335420D01*
G37*
G36*
X1127940Y2420080D02*
G01*
X1125980Y2418100D01*
X1125980Y2372820D01*
X1127940Y2370860D01*
X1144480Y2371060D01*
X1144480Y2388380D01*
X1162200Y2388380D01*
X1162200Y2370660D01*
X1178340Y2370860D01*
X1180320Y2372820D01*
X1180320Y2418100D01*
X1178340Y2420080D01*
G37*
G36*
X1127940Y2335420D02*
G01*
X1125980Y2333460D01*
X1125980Y2288180D01*
X1127940Y2286220D01*
X1178340Y2286220D01*
X1180320Y2288180D01*
X1180320Y2333460D01*
X1178340Y2335420D01*
X1162200Y2335220D01*
X1162200Y2317900D01*
X1144480Y2317900D01*
X1144480Y2335420D01*
G37*
G36*
X1227940Y2420080D02*
G01*
X1225980Y2418100D01*
X1225980Y2372820D01*
X1227940Y2370860D01*
X1244480Y2371060D01*
X1244480Y2388380D01*
X1262200Y2388380D01*
X1262200Y2370660D01*
X1278340Y2370860D01*
X1280320Y2372820D01*
X1280320Y2418100D01*
X1278340Y2420080D01*
G37*
G36*
X1227940Y2335420D02*
G01*
X1225980Y2333460D01*
X1225980Y2288180D01*
X1227940Y2286220D01*
X1278340Y2286220D01*
X1280320Y2288180D01*
X1280320Y2333460D01*
X1278340Y2335420D01*
X1262200Y2335220D01*
X1262200Y2317900D01*
X1244480Y2317900D01*
X1244480Y2335420D01*
G37*
G36*
X1327940Y2420080D02*
G01*
X1325980Y2418100D01*
X1325980Y2372820D01*
X1327940Y2370860D01*
X1344480Y2371060D01*
X1344480Y2388380D01*
X1362200Y2388380D01*
X1362200Y2370660D01*
X1378340Y2370860D01*
X1380300Y2372820D01*
X1380300Y2418100D01*
X1378340Y2420080D01*
G37*
G36*
X1327940Y2335420D02*
G01*
X1325980Y2333460D01*
X1325980Y2288180D01*
X1327940Y2286220D01*
X1378340Y2286220D01*
X1380300Y2288180D01*
X1380300Y2333460D01*
X1378340Y2335420D01*
X1362200Y2335220D01*
X1362200Y2317900D01*
X1344480Y2317900D01*
X1344480Y2335420D01*
G37*
G36*
X1427940Y2420080D02*
G01*
X1425980Y2418100D01*
X1425980Y2372820D01*
X1427940Y2370860D01*
X1444480Y2371060D01*
X1444480Y2388380D01*
X1462200Y2388380D01*
X1462200Y2370660D01*
X1478340Y2370860D01*
X1480300Y2372820D01*
X1480300Y2418100D01*
X1478340Y2420080D01*
G37*
G36*
X1427940Y2335420D02*
G01*
X1425980Y2333460D01*
X1425980Y2288180D01*
X1427940Y2286220D01*
X1478340Y2286220D01*
X1480300Y2288180D01*
X1480300Y2333460D01*
X1478340Y2335420D01*
X1462200Y2335220D01*
X1462200Y2317900D01*
X1444480Y2317900D01*
X1444480Y2335420D01*
G37*
G36*
X1527940Y2420080D02*
G01*
X1525980Y2418100D01*
X1525980Y2372820D01*
X1527940Y2370860D01*
X1544480Y2371060D01*
X1544480Y2388380D01*
X1562200Y2388380D01*
X1562200Y2370660D01*
X1578340Y2370860D01*
X1580300Y2372820D01*
X1580300Y2418100D01*
X1578340Y2420080D01*
G37*
G36*
X1527940Y2335420D02*
G01*
X1525980Y2333460D01*
X1525980Y2288180D01*
X1527940Y2286220D01*
X1578340Y2286220D01*
X1580300Y2288180D01*
X1580300Y2333460D01*
X1578340Y2335420D01*
X1562200Y2335220D01*
X1562200Y2317900D01*
X1544480Y2317900D01*
X1544480Y2335420D01*
G37*
G36*
X1627940Y2420080D02*
G01*
X1625980Y2418100D01*
X1625980Y2372820D01*
X1627940Y2370860D01*
X1644480Y2371060D01*
X1644480Y2388380D01*
X1662200Y2388380D01*
X1662200Y2370660D01*
X1678340Y2370860D01*
X1680300Y2372820D01*
X1680300Y2418100D01*
X1678340Y2420080D01*
G37*
G36*
X1627940Y2335420D02*
G01*
X1625980Y2333460D01*
X1625980Y2288180D01*
X1627940Y2286220D01*
X1678340Y2286220D01*
X1680300Y2288180D01*
X1680300Y2333460D01*
X1678340Y2335420D01*
X1662200Y2335220D01*
X1662200Y2317900D01*
X1644480Y2317900D01*
X1644480Y2335420D01*
G37*
G36*
X1727940Y2420080D02*
G01*
X1725980Y2418100D01*
X1725980Y2372820D01*
X1727940Y2370860D01*
X1744480Y2371060D01*
X1744480Y2388380D01*
X1762200Y2388380D01*
X1762200Y2370660D01*
X1778340Y2370860D01*
X1780300Y2372820D01*
X1780300Y2418100D01*
X1778340Y2420080D01*
G37*
G36*
X1727940Y2335420D02*
G01*
X1725980Y2333460D01*
X1725980Y2288180D01*
X1727940Y2286220D01*
X1778340Y2286220D01*
X1780300Y2288180D01*
X1780300Y2333460D01*
X1778340Y2335420D01*
X1762200Y2335220D01*
X1762200Y2317900D01*
X1744480Y2317900D01*
X1744480Y2335420D01*
G37*
G36*
X1827940Y2420080D02*
G01*
X1825980Y2418100D01*
X1825980Y2372820D01*
X1827940Y2370860D01*
X1844480Y2371060D01*
X1844480Y2388380D01*
X1862200Y2388380D01*
X1862200Y2370660D01*
X1878340Y2370860D01*
X1880300Y2372820D01*
X1880300Y2418100D01*
X1878340Y2420080D01*
G37*
G36*
X1827940Y2335420D02*
G01*
X1825980Y2333460D01*
X1825980Y2288180D01*
X1827940Y2286220D01*
X1878340Y2286220D01*
X1880300Y2288180D01*
X1880300Y2333460D01*
X1878340Y2335420D01*
X1862200Y2335220D01*
X1862200Y2317900D01*
X1844480Y2317900D01*
X1844480Y2335420D01*
G37*
G36*
X1927940Y2420080D02*
G01*
X1925980Y2418100D01*
X1925980Y2372820D01*
X1927940Y2370860D01*
X1944480Y2371060D01*
X1944480Y2388380D01*
X1962200Y2388380D01*
X1962200Y2370660D01*
X1978340Y2370860D01*
X1980300Y2372820D01*
X1980300Y2418100D01*
X1978340Y2420080D01*
G37*
G36*
X1927940Y2335420D02*
G01*
X1925980Y2333460D01*
X1925980Y2288180D01*
X1927940Y2286220D01*
X1978340Y2286220D01*
X1980300Y2288180D01*
X1980300Y2333460D01*
X1978340Y2335420D01*
X1962200Y2335220D01*
X1962200Y2317900D01*
X1944480Y2317900D01*
X1944480Y2335420D01*
G37*
G36*
X2027940Y2420080D02*
G01*
X2025980Y2418100D01*
X2025980Y2372820D01*
X2027940Y2370860D01*
X2044480Y2371060D01*
X2044480Y2388380D01*
X2062200Y2388380D01*
X2062200Y2370660D01*
X2078340Y2370860D01*
X2080300Y2372820D01*
X2080300Y2418100D01*
X2078340Y2420080D01*
G37*
G36*
X2027940Y2335420D02*
G01*
X2025980Y2333460D01*
X2025980Y2288180D01*
X2027940Y2286220D01*
X2078340Y2286220D01*
X2080300Y2288180D01*
X2080300Y2333460D01*
X2078340Y2335420D01*
X2062200Y2335220D01*
X2062200Y2317900D01*
X2044480Y2317900D01*
X2044480Y2335420D01*
G37*
G36*
X2127940Y2420080D02*
G01*
X2125980Y2418100D01*
X2125980Y2372820D01*
X2127940Y2370860D01*
X2144480Y2371060D01*
X2144480Y2388380D01*
X2162200Y2388380D01*
X2162200Y2370660D01*
X2178340Y2370860D01*
X2180300Y2372820D01*
X2180300Y2418100D01*
X2178340Y2420080D01*
G37*
G36*
X2127940Y2335420D02*
G01*
X2125980Y2333460D01*
X2125980Y2288180D01*
X2127940Y2286220D01*
X2178340Y2286220D01*
X2180300Y2288180D01*
X2180300Y2333460D01*
X2178340Y2335420D01*
X2162200Y2335220D01*
X2162200Y2317900D01*
X2144480Y2317900D01*
X2144480Y2335420D01*
G37*
G36*
X2227940Y2420080D02*
G01*
X2225980Y2418100D01*
X2225980Y2372820D01*
X2227940Y2370860D01*
X2244480Y2371060D01*
X2244480Y2388380D01*
X2262200Y2388380D01*
X2262200Y2370660D01*
X2278340Y2370860D01*
X2280300Y2372820D01*
X2280300Y2418100D01*
X2278340Y2420080D01*
G37*
G36*
X2227940Y2335420D02*
G01*
X2225980Y2333460D01*
X2225980Y2288180D01*
X2227940Y2286220D01*
X2278340Y2286220D01*
X2280300Y2288180D01*
X2280300Y2333460D01*
X2278340Y2335420D01*
X2262200Y2335220D01*
X2262200Y2317900D01*
X2244480Y2317900D01*
X2244480Y2335420D01*
G37*
G36*
X2327940Y2420080D02*
G01*
X2325980Y2418100D01*
X2325980Y2372820D01*
X2327940Y2370860D01*
X2344480Y2371060D01*
X2344480Y2388380D01*
X2362200Y2388380D01*
X2362200Y2370660D01*
X2378340Y2370860D01*
X2380300Y2372820D01*
X2380300Y2418100D01*
X2378340Y2420080D01*
G37*
G36*
X2327940Y2335420D02*
G01*
X2325980Y2333460D01*
X2325980Y2288180D01*
X2327940Y2286220D01*
X2378340Y2286220D01*
X2380300Y2288180D01*
X2380300Y2333460D01*
X2378340Y2335420D01*
X2362200Y2335220D01*
X2362200Y2317900D01*
X2344480Y2317900D01*
X2344480Y2335420D01*
G37*
G36*
X2427940Y2420080D02*
G01*
X2425980Y2418100D01*
X2425980Y2372820D01*
X2427940Y2370860D01*
X2444480Y2371060D01*
X2444480Y2388380D01*
X2462200Y2388380D01*
X2462200Y2370660D01*
X2478340Y2370860D01*
X2480300Y2372820D01*
X2480300Y2418100D01*
X2478340Y2420080D01*
G37*
G36*
X2427940Y2335420D02*
G01*
X2425980Y2333460D01*
X2425980Y2288180D01*
X2427940Y2286220D01*
X2478340Y2286220D01*
X2480300Y2288180D01*
X2480300Y2333460D01*
X2478340Y2335420D01*
X2462200Y2335220D01*
X2462200Y2317900D01*
X2444480Y2317900D01*
X2444480Y2335420D01*
G37*
G36*
X2527940Y2420080D02*
G01*
X2525980Y2418100D01*
X2525980Y2372820D01*
X2527940Y2370860D01*
X2544480Y2371060D01*
X2544480Y2388380D01*
X2562200Y2388380D01*
X2562200Y2370660D01*
X2578340Y2370860D01*
X2580299Y2372820D01*
X2580299Y2418100D01*
X2578340Y2420080D01*
G37*
G36*
X2527940Y2335420D02*
G01*
X2525980Y2333460D01*
X2525980Y2288180D01*
X2527940Y2286220D01*
X2578340Y2286220D01*
X2580299Y2288180D01*
X2580299Y2333460D01*
X2578340Y2335420D01*
X2562200Y2335220D01*
X2562200Y2317900D01*
X2544480Y2317900D01*
X2544480Y2335420D01*
G37*
G36*
X2627940Y2420080D02*
G01*
X2625980Y2418100D01*
X2625980Y2372820D01*
X2627940Y2370860D01*
X2644480Y2371060D01*
X2644480Y2388380D01*
X2662200Y2388380D01*
X2662200Y2370660D01*
X2678340Y2370860D01*
X2680299Y2372820D01*
X2680299Y2418100D01*
X2678340Y2420080D01*
G37*
G36*
X2627940Y2335420D02*
G01*
X2625980Y2333460D01*
X2625980Y2288180D01*
X2627940Y2286220D01*
X2678340Y2286220D01*
X2680299Y2288180D01*
X2680299Y2333460D01*
X2678340Y2335420D01*
X2662200Y2335220D01*
X2662200Y2317900D01*
X2644480Y2317900D01*
X2644480Y2335420D01*
G37*
G36*
X2727940Y2420080D02*
G01*
X2725980Y2418100D01*
X2725980Y2372820D01*
X2727940Y2370860D01*
X2744480Y2371060D01*
X2744480Y2388380D01*
X2762200Y2388380D01*
X2762200Y2370660D01*
X2778340Y2370860D01*
X2780299Y2372820D01*
X2780299Y2418100D01*
X2778340Y2420080D01*
G37*
G36*
X2727940Y2335420D02*
G01*
X2725980Y2333460D01*
X2725980Y2288180D01*
X2727940Y2286220D01*
X2778340Y2286220D01*
X2780299Y2288180D01*
X2780299Y2333460D01*
X2778340Y2335420D01*
X2762200Y2335220D01*
X2762200Y2317900D01*
X2744480Y2317900D01*
X2744480Y2335420D01*
G37*
G36*
X2827940Y2420080D02*
G01*
X2825980Y2418100D01*
X2825980Y2372820D01*
X2827940Y2370860D01*
X2844480Y2371060D01*
X2844480Y2388380D01*
X2862200Y2388380D01*
X2862200Y2370660D01*
X2878340Y2370860D01*
X2880299Y2372820D01*
X2880299Y2418100D01*
X2878340Y2420080D01*
G37*
G36*
X2827940Y2335420D02*
G01*
X2825980Y2333460D01*
X2825980Y2288180D01*
X2827940Y2286220D01*
X2878340Y2286220D01*
X2880299Y2288180D01*
X2880299Y2333460D01*
X2878340Y2335420D01*
X2862200Y2335220D01*
X2862200Y2317900D01*
X2844480Y2317900D01*
X2844480Y2335420D01*
G37*
G36*
X2927940Y2420080D02*
G01*
X2925980Y2418100D01*
X2925980Y2372820D01*
X2927940Y2370860D01*
X2944480Y2371060D01*
X2944480Y2388380D01*
X2962200Y2388380D01*
X2962200Y2370660D01*
X2978340Y2370860D01*
X2980299Y2372820D01*
X2980299Y2418100D01*
X2978340Y2420080D01*
G37*
G36*
X2927940Y2335420D02*
G01*
X2925980Y2333460D01*
X2925980Y2288180D01*
X2927940Y2286220D01*
X2978340Y2286220D01*
X2980299Y2288180D01*
X2980299Y2333460D01*
X2978340Y2335420D01*
X2962200Y2335220D01*
X2962200Y2317900D01*
X2944480Y2317900D01*
X2944480Y2335420D01*
G37*
G36*
X3027940Y2420080D02*
G01*
X3025980Y2418100D01*
X3025980Y2372820D01*
X3027940Y2370860D01*
X3044480Y2371060D01*
X3044480Y2388380D01*
X3062200Y2388380D01*
X3062200Y2370660D01*
X3078340Y2370860D01*
X3080299Y2372820D01*
X3080299Y2418100D01*
X3078340Y2420080D01*
G37*
G36*
X3027940Y2335420D02*
G01*
X3025980Y2333460D01*
X3025980Y2288180D01*
X3027940Y2286220D01*
X3078340Y2286220D01*
X3080299Y2288180D01*
X3080299Y2333460D01*
X3078340Y2335420D01*
X3062200Y2335220D01*
X3062200Y2317900D01*
X3044480Y2317900D01*
X3044480Y2335420D01*
G37*
G36*
X3127940Y2420080D02*
G01*
X3125980Y2418100D01*
X3125980Y2372820D01*
X3127940Y2370860D01*
X3144480Y2371060D01*
X3144480Y2388380D01*
X3162200Y2388380D01*
X3162200Y2370660D01*
X3178340Y2370860D01*
X3180299Y2372820D01*
X3180299Y2418100D01*
X3178340Y2420080D01*
G37*
G36*
X3127940Y2335420D02*
G01*
X3125980Y2333460D01*
X3125980Y2288180D01*
X3127940Y2286220D01*
X3178340Y2286220D01*
X3180299Y2288180D01*
X3180299Y2333460D01*
X3178340Y2335420D01*
X3162200Y2335220D01*
X3162200Y2317900D01*
X3144480Y2317900D01*
X3144480Y2335420D01*
G37*
G36*
X3227940Y2420080D02*
G01*
X3225980Y2418100D01*
X3225980Y2372820D01*
X3227940Y2370860D01*
X3244480Y2371060D01*
X3244480Y2388380D01*
X3262200Y2388380D01*
X3262200Y2370660D01*
X3278340Y2370860D01*
X3280299Y2372820D01*
X3280299Y2418100D01*
X3278340Y2420080D01*
G37*
G36*
X3227940Y2335420D02*
G01*
X3225980Y2333460D01*
X3225980Y2288180D01*
X3227940Y2286220D01*
X3278340Y2286220D01*
X3280299Y2288180D01*
X3280299Y2333460D01*
X3278340Y2335420D01*
X3262200Y2335220D01*
X3262200Y2317900D01*
X3244480Y2317900D01*
X3244480Y2335420D01*
G37*
G36*
X3327940Y2420080D02*
G01*
X3325980Y2418100D01*
X3325980Y2372820D01*
X3327940Y2370860D01*
X3344480Y2371060D01*
X3344480Y2388380D01*
X3362200Y2388380D01*
X3362200Y2370660D01*
X3378340Y2370860D01*
X3380299Y2372820D01*
X3380299Y2418100D01*
X3378340Y2420080D01*
G37*
G36*
X3327940Y2335420D02*
G01*
X3325980Y2333460D01*
X3325980Y2288180D01*
X3327940Y2286220D01*
X3378340Y2286220D01*
X3380299Y2288180D01*
X3380299Y2333460D01*
X3378340Y2335420D01*
X3362200Y2335220D01*
X3362200Y2317900D01*
X3344480Y2317900D01*
X3344480Y2335420D01*
G37*
G36*
X3427940Y2420080D02*
G01*
X3425980Y2418100D01*
X3425980Y2372820D01*
X3427940Y2370860D01*
X3444480Y2371060D01*
X3444480Y2388380D01*
X3462200Y2388380D01*
X3462200Y2370660D01*
X3478340Y2370860D01*
X3480299Y2372820D01*
X3480299Y2418100D01*
X3478340Y2420080D01*
G37*
G36*
X3427940Y2335420D02*
G01*
X3425980Y2333460D01*
X3425980Y2288180D01*
X3427940Y2286220D01*
X3478340Y2286220D01*
X3480299Y2288180D01*
X3480299Y2333460D01*
X3478340Y2335420D01*
X3462200Y2335220D01*
X3462200Y2317900D01*
X3444480Y2317900D01*
X3444480Y2335420D01*
G37*
G36*
X537400Y1389560D02*
G01*
X535440Y1387600D01*
X535440Y1356100D01*
X537400Y1354120D01*
X568900Y1354120D01*
X570860Y1356100D01*
X570860Y1387600D01*
X568900Y1389560D01*
X559920Y1389560D01*
X559920Y1375000D01*
X546920Y1375000D01*
X546920Y1389560D01*
G37*
G36*
X537400Y1452160D02*
G01*
X535440Y1450200D01*
X535440Y1419079D01*
X537400Y1417120D01*
X546920Y1417120D01*
X546920Y1432080D01*
X559920Y1432080D01*
X559920Y1417120D01*
X568900Y1417120D01*
X570860Y1419079D01*
X570860Y1450200D01*
X568900Y1452160D01*
G37*
G36*
X637400Y1389560D02*
G01*
X635440Y1387600D01*
X635440Y1356100D01*
X637400Y1354120D01*
X668900Y1354120D01*
X670860Y1356100D01*
X670860Y1387600D01*
X668900Y1389560D01*
X659920Y1389560D01*
X659920Y1375000D01*
X646919Y1375000D01*
X646919Y1389560D01*
G37*
G36*
X637400Y1452160D02*
G01*
X635440Y1450200D01*
X635440Y1419079D01*
X637400Y1417120D01*
X646919Y1417120D01*
X646919Y1432080D01*
X659920Y1432080D01*
X659920Y1417120D01*
X668900Y1417120D01*
X670860Y1419079D01*
X670860Y1450200D01*
X668900Y1452160D01*
G37*
G36*
X737400Y1389560D02*
G01*
X735440Y1387600D01*
X735440Y1356100D01*
X737400Y1354120D01*
X768900Y1354120D01*
X770860Y1356100D01*
X770860Y1387600D01*
X768900Y1389560D01*
X759920Y1389560D01*
X759920Y1375000D01*
X746919Y1375000D01*
X746919Y1389560D01*
G37*
G36*
X737400Y1452160D02*
G01*
X735440Y1450200D01*
X735440Y1419079D01*
X737400Y1417120D01*
X746919Y1417120D01*
X746919Y1432080D01*
X759920Y1432080D01*
X759920Y1417120D01*
X768900Y1417120D01*
X770860Y1419079D01*
X770860Y1450200D01*
X768900Y1452160D01*
G37*
G36*
X837400Y1389560D02*
G01*
X835420Y1387600D01*
X835420Y1356100D01*
X837400Y1354120D01*
X868900Y1354120D01*
X870860Y1356100D01*
X870860Y1387600D01*
X868900Y1389560D01*
X859920Y1389560D01*
X859920Y1375000D01*
X846919Y1375000D01*
X846919Y1389560D01*
G37*
G36*
X837400Y1452160D02*
G01*
X835420Y1450200D01*
X835420Y1419079D01*
X837400Y1417120D01*
X846919Y1417120D01*
X846919Y1432080D01*
X859920Y1432080D01*
X859920Y1417120D01*
X868900Y1417120D01*
X870860Y1419079D01*
X870860Y1450200D01*
X868900Y1452160D01*
G37*
G36*
X937400Y1389560D02*
G01*
X935420Y1387600D01*
X935420Y1356100D01*
X937400Y1354120D01*
X968900Y1354120D01*
X970860Y1356100D01*
X970860Y1387600D01*
X968900Y1389560D01*
X959920Y1389560D01*
X959920Y1375000D01*
X946919Y1375000D01*
X946919Y1389560D01*
G37*
G36*
X937400Y1452160D02*
G01*
X935420Y1450200D01*
X935420Y1419079D01*
X937400Y1417120D01*
X946919Y1417120D01*
X946919Y1432080D01*
X959920Y1432080D01*
X959920Y1417120D01*
X968900Y1417120D01*
X970860Y1419079D01*
X970860Y1450200D01*
X968900Y1452160D01*
G37*
G36*
X1037400Y1389560D02*
G01*
X1035420Y1387600D01*
X1035420Y1356100D01*
X1037400Y1354120D01*
X1068900Y1354120D01*
X1070860Y1356100D01*
X1070860Y1387600D01*
X1068900Y1389560D01*
X1059920Y1389560D01*
X1059920Y1375000D01*
X1046919Y1375000D01*
X1046919Y1389560D01*
G37*
G36*
X1037400Y1452160D02*
G01*
X1035420Y1450200D01*
X1035420Y1419079D01*
X1037400Y1417120D01*
X1046919Y1417120D01*
X1046919Y1432080D01*
X1059920Y1432080D01*
X1059920Y1417120D01*
X1068900Y1417120D01*
X1070860Y1419079D01*
X1070860Y1450200D01*
X1068900Y1452160D01*
G37*
G36*
X1137400Y1389560D02*
G01*
X1135420Y1387600D01*
X1135420Y1356100D01*
X1137400Y1354120D01*
X1168900Y1354120D01*
X1170860Y1356100D01*
X1170860Y1387600D01*
X1168900Y1389560D01*
X1159920Y1389560D01*
X1159920Y1375000D01*
X1146920Y1375000D01*
X1146920Y1389560D01*
G37*
G36*
X1137400Y1452160D02*
G01*
X1135420Y1450200D01*
X1135420Y1419079D01*
X1137400Y1417120D01*
X1146920Y1417120D01*
X1146920Y1432080D01*
X1159920Y1432080D01*
X1159920Y1417120D01*
X1168900Y1417120D01*
X1170860Y1419079D01*
X1170860Y1450200D01*
X1168900Y1452160D01*
G37*
G36*
X1237400Y1389560D02*
G01*
X1235420Y1387600D01*
X1235420Y1356100D01*
X1237400Y1354120D01*
X1268900Y1354120D01*
X1270860Y1356100D01*
X1270860Y1387600D01*
X1268900Y1389560D01*
X1259920Y1389560D01*
X1259920Y1375000D01*
X1246920Y1375000D01*
X1246920Y1389560D01*
G37*
G36*
X1237400Y1452160D02*
G01*
X1235420Y1450200D01*
X1235420Y1419079D01*
X1237400Y1417120D01*
X1246920Y1417120D01*
X1246920Y1432080D01*
X1259920Y1432080D01*
X1259920Y1417120D01*
X1268900Y1417120D01*
X1270860Y1419079D01*
X1270860Y1450200D01*
X1268900Y1452160D01*
G37*
G36*
X1337400Y1389560D02*
G01*
X1335420Y1387600D01*
X1335420Y1356100D01*
X1337400Y1354120D01*
X1368899Y1354120D01*
X1370860Y1356100D01*
X1370860Y1387600D01*
X1368899Y1389560D01*
X1359920Y1389560D01*
X1359920Y1375000D01*
X1346920Y1375000D01*
X1346920Y1389560D01*
G37*
G36*
X1337400Y1452160D02*
G01*
X1335420Y1450200D01*
X1335420Y1419079D01*
X1337400Y1417120D01*
X1346920Y1417120D01*
X1346920Y1432080D01*
X1359920Y1432080D01*
X1359920Y1417120D01*
X1368899Y1417120D01*
X1370860Y1419079D01*
X1370860Y1450200D01*
X1368899Y1452160D01*
G37*
G36*
X1437400Y1389560D02*
G01*
X1435420Y1387600D01*
X1435420Y1356100D01*
X1437400Y1354120D01*
X1468899Y1354120D01*
X1470860Y1356100D01*
X1470860Y1387600D01*
X1468899Y1389560D01*
X1459920Y1389560D01*
X1459920Y1375000D01*
X1446920Y1375000D01*
X1446920Y1389560D01*
G37*
G36*
X1437400Y1452160D02*
G01*
X1435420Y1450200D01*
X1435420Y1419079D01*
X1437400Y1417120D01*
X1446920Y1417120D01*
X1446920Y1432080D01*
X1459920Y1432080D01*
X1459920Y1417120D01*
X1468899Y1417120D01*
X1470860Y1419079D01*
X1470860Y1450200D01*
X1468899Y1452160D01*
G37*
G36*
X1537400Y1389560D02*
G01*
X1535420Y1387600D01*
X1535420Y1356100D01*
X1537400Y1354120D01*
X1568899Y1354120D01*
X1570860Y1356100D01*
X1570860Y1387600D01*
X1568899Y1389560D01*
X1559920Y1389560D01*
X1559920Y1375000D01*
X1546920Y1375000D01*
X1546920Y1389560D01*
G37*
G36*
X1537400Y1452160D02*
G01*
X1535420Y1450200D01*
X1535420Y1419079D01*
X1537400Y1417120D01*
X1546920Y1417120D01*
X1546920Y1432080D01*
X1559920Y1432080D01*
X1559920Y1417120D01*
X1568899Y1417120D01*
X1570860Y1419079D01*
X1570860Y1450200D01*
X1568899Y1452160D01*
G37*
G36*
X1637400Y1389560D02*
G01*
X1635420Y1387600D01*
X1635420Y1356100D01*
X1637400Y1354120D01*
X1668899Y1354120D01*
X1670860Y1356100D01*
X1670860Y1387600D01*
X1668899Y1389560D01*
X1659920Y1389560D01*
X1659920Y1375000D01*
X1646920Y1375000D01*
X1646920Y1389560D01*
G37*
G36*
X1637400Y1452160D02*
G01*
X1635420Y1450200D01*
X1635420Y1419079D01*
X1637400Y1417120D01*
X1646920Y1417120D01*
X1646920Y1432080D01*
X1659920Y1432080D01*
X1659920Y1417120D01*
X1668899Y1417120D01*
X1670860Y1419079D01*
X1670860Y1450200D01*
X1668899Y1452160D01*
G37*
G36*
X1737400Y1389560D02*
G01*
X1735420Y1387600D01*
X1735420Y1356100D01*
X1737400Y1354120D01*
X1768899Y1354120D01*
X1770860Y1356100D01*
X1770860Y1387600D01*
X1768899Y1389560D01*
X1759920Y1389560D01*
X1759920Y1375000D01*
X1746920Y1375000D01*
X1746920Y1389560D01*
G37*
G36*
X1737400Y1452160D02*
G01*
X1735420Y1450200D01*
X1735420Y1419079D01*
X1737400Y1417120D01*
X1746920Y1417120D01*
X1746920Y1432080D01*
X1759920Y1432080D01*
X1759920Y1417120D01*
X1768899Y1417120D01*
X1770860Y1419079D01*
X1770860Y1450200D01*
X1768899Y1452160D01*
G37*
G36*
X1837400Y1389560D02*
G01*
X1835420Y1387600D01*
X1835420Y1356100D01*
X1837400Y1354120D01*
X1868899Y1354120D01*
X1870860Y1356100D01*
X1870860Y1387600D01*
X1868899Y1389560D01*
X1859920Y1389560D01*
X1859920Y1375000D01*
X1846920Y1375000D01*
X1846920Y1389560D01*
G37*
G36*
X1837400Y1452160D02*
G01*
X1835420Y1450200D01*
X1835420Y1419079D01*
X1837400Y1417120D01*
X1846920Y1417120D01*
X1846920Y1432080D01*
X1859920Y1432080D01*
X1859920Y1417120D01*
X1868899Y1417120D01*
X1870860Y1419079D01*
X1870860Y1450200D01*
X1868899Y1452160D01*
G37*
G36*
X1937400Y1389560D02*
G01*
X1935420Y1387600D01*
X1935420Y1356100D01*
X1937400Y1354120D01*
X1968899Y1354120D01*
X1970860Y1356100D01*
X1970860Y1387600D01*
X1968899Y1389560D01*
X1959920Y1389560D01*
X1959920Y1375000D01*
X1946920Y1375000D01*
X1946920Y1389560D01*
G37*
G36*
X1937400Y1452160D02*
G01*
X1935420Y1450200D01*
X1935420Y1419079D01*
X1937400Y1417120D01*
X1946920Y1417120D01*
X1946920Y1432080D01*
X1959920Y1432080D01*
X1959920Y1417120D01*
X1968899Y1417120D01*
X1970860Y1419079D01*
X1970860Y1450200D01*
X1968899Y1452160D01*
G37*
G36*
X2037400Y1389560D02*
G01*
X2035420Y1387600D01*
X2035420Y1356100D01*
X2037400Y1354120D01*
X2068899Y1354120D01*
X2070860Y1356100D01*
X2070860Y1387600D01*
X2068899Y1389560D01*
X2059920Y1389560D01*
X2059920Y1375000D01*
X2046920Y1375000D01*
X2046920Y1389560D01*
G37*
G36*
X2037400Y1452160D02*
G01*
X2035420Y1450200D01*
X2035420Y1419079D01*
X2037400Y1417120D01*
X2046920Y1417120D01*
X2046920Y1432080D01*
X2059920Y1432080D01*
X2059920Y1417120D01*
X2068899Y1417120D01*
X2070860Y1419079D01*
X2070860Y1450200D01*
X2068899Y1452160D01*
G37*
G36*
X2137400Y1389560D02*
G01*
X2135420Y1387600D01*
X2135420Y1356100D01*
X2137400Y1354120D01*
X2168900Y1354120D01*
X2170860Y1356100D01*
X2170860Y1387600D01*
X2168900Y1389560D01*
X2159920Y1389560D01*
X2159920Y1375000D01*
X2146920Y1375000D01*
X2146920Y1389560D01*
G37*
G36*
X2137400Y1452160D02*
G01*
X2135420Y1450200D01*
X2135420Y1419079D01*
X2137400Y1417120D01*
X2146920Y1417120D01*
X2146920Y1432080D01*
X2159920Y1432080D01*
X2159920Y1417120D01*
X2168900Y1417120D01*
X2170860Y1419079D01*
X2170860Y1450200D01*
X2168900Y1452160D01*
G37*
G36*
X2237400Y1389560D02*
G01*
X2235420Y1387600D01*
X2235420Y1356100D01*
X2237400Y1354120D01*
X2268900Y1354120D01*
X2270860Y1356100D01*
X2270860Y1387600D01*
X2268900Y1389560D01*
X2259920Y1389560D01*
X2259920Y1375000D01*
X2246920Y1375000D01*
X2246920Y1389560D01*
G37*
G36*
X2237400Y1452160D02*
G01*
X2235420Y1450200D01*
X2235420Y1419079D01*
X2237400Y1417120D01*
X2246920Y1417120D01*
X2246920Y1432080D01*
X2259920Y1432080D01*
X2259920Y1417120D01*
X2268900Y1417120D01*
X2270860Y1419079D01*
X2270860Y1450200D01*
X2268900Y1452160D01*
G37*
G36*
X2337400Y1389560D02*
G01*
X2335420Y1387600D01*
X2335420Y1356100D01*
X2337400Y1354120D01*
X2368900Y1354120D01*
X2370860Y1356100D01*
X2370860Y1387600D01*
X2368900Y1389560D01*
X2359920Y1389560D01*
X2359920Y1375000D01*
X2346920Y1375000D01*
X2346920Y1389560D01*
G37*
G36*
X2337400Y1452160D02*
G01*
X2335420Y1450200D01*
X2335420Y1419079D01*
X2337400Y1417120D01*
X2346920Y1417120D01*
X2346920Y1432080D01*
X2359920Y1432080D01*
X2359920Y1417120D01*
X2368900Y1417120D01*
X2370860Y1419079D01*
X2370860Y1450200D01*
X2368900Y1452160D01*
G37*
G36*
X2437400Y1389560D02*
G01*
X2435420Y1387600D01*
X2435420Y1356100D01*
X2437400Y1354120D01*
X2468900Y1354120D01*
X2470860Y1356100D01*
X2470860Y1387600D01*
X2468900Y1389560D01*
X2459920Y1389560D01*
X2459920Y1375000D01*
X2446920Y1375000D01*
X2446920Y1389560D01*
G37*
G36*
X2437400Y1452160D02*
G01*
X2435420Y1450200D01*
X2435420Y1419079D01*
X2437400Y1417120D01*
X2446920Y1417120D01*
X2446920Y1432080D01*
X2459920Y1432080D01*
X2459920Y1417120D01*
X2468900Y1417120D01*
X2470860Y1419079D01*
X2470860Y1450200D01*
X2468900Y1452160D01*
G37*
G36*
X2537400Y1389560D02*
G01*
X2535420Y1387600D01*
X2535420Y1356100D01*
X2537400Y1354120D01*
X2568900Y1354120D01*
X2570860Y1356100D01*
X2570860Y1387600D01*
X2568900Y1389560D01*
X2559920Y1389560D01*
X2559920Y1375000D01*
X2546920Y1375000D01*
X2546920Y1389560D01*
G37*
G36*
X2537400Y1452160D02*
G01*
X2535420Y1450200D01*
X2535420Y1419079D01*
X2537400Y1417120D01*
X2546920Y1417120D01*
X2546920Y1432080D01*
X2559920Y1432080D01*
X2559920Y1417120D01*
X2568900Y1417120D01*
X2570860Y1419079D01*
X2570860Y1450200D01*
X2568900Y1452160D01*
G37*
G36*
X2637400Y1389560D02*
G01*
X2635419Y1387600D01*
X2635419Y1356100D01*
X2637400Y1354120D01*
X2668900Y1354120D01*
X2670860Y1356100D01*
X2670860Y1387600D01*
X2668900Y1389560D01*
X2659920Y1389560D01*
X2659920Y1375000D01*
X2646920Y1375000D01*
X2646920Y1389560D01*
G37*
G36*
X2637400Y1452160D02*
G01*
X2635419Y1450200D01*
X2635419Y1419079D01*
X2637400Y1417120D01*
X2646920Y1417120D01*
X2646920Y1432080D01*
X2659920Y1432080D01*
X2659920Y1417120D01*
X2668900Y1417120D01*
X2670860Y1419079D01*
X2670860Y1450200D01*
X2668900Y1452160D01*
G37*
G36*
X2737400Y1389560D02*
G01*
X2735419Y1387600D01*
X2735419Y1356100D01*
X2737400Y1354120D01*
X2768900Y1354120D01*
X2770860Y1356100D01*
X2770860Y1387600D01*
X2768900Y1389560D01*
X2759920Y1389560D01*
X2759920Y1375000D01*
X2746920Y1375000D01*
X2746920Y1389560D01*
G37*
G36*
X2737400Y1452160D02*
G01*
X2735419Y1450200D01*
X2735419Y1419079D01*
X2737400Y1417120D01*
X2746920Y1417120D01*
X2746920Y1432080D01*
X2759920Y1432080D01*
X2759920Y1417120D01*
X2768900Y1417120D01*
X2770860Y1419079D01*
X2770860Y1450200D01*
X2768900Y1452160D01*
G37*
G36*
X2837400Y1389560D02*
G01*
X2835419Y1387600D01*
X2835419Y1356100D01*
X2837400Y1354120D01*
X2868880Y1354120D01*
X2870860Y1356100D01*
X2870860Y1387600D01*
X2868880Y1389560D01*
X2859920Y1389560D01*
X2859920Y1375000D01*
X2846920Y1375000D01*
X2846920Y1389560D01*
G37*
G36*
X2837400Y1452160D02*
G01*
X2835419Y1450200D01*
X2835419Y1419079D01*
X2837400Y1417120D01*
X2846920Y1417120D01*
X2846920Y1432080D01*
X2859920Y1432080D01*
X2859920Y1417120D01*
X2868880Y1417120D01*
X2870860Y1419079D01*
X2870860Y1450200D01*
X2868880Y1452160D01*
G37*
G36*
X2937400Y1389560D02*
G01*
X2935419Y1387600D01*
X2935419Y1356100D01*
X2937400Y1354120D01*
X2968880Y1354120D01*
X2970860Y1356100D01*
X2970860Y1387600D01*
X2968880Y1389560D01*
X2959920Y1389560D01*
X2959920Y1375000D01*
X2946920Y1375000D01*
X2946920Y1389560D01*
G37*
G36*
X2937400Y1452160D02*
G01*
X2935419Y1450200D01*
X2935419Y1419079D01*
X2937400Y1417120D01*
X2946920Y1417120D01*
X2946920Y1432080D01*
X2959920Y1432080D01*
X2959920Y1417120D01*
X2968880Y1417120D01*
X2970860Y1419079D01*
X2970860Y1450200D01*
X2968880Y1452160D01*
G37*
G36*
X3037400Y1389560D02*
G01*
X3035419Y1387600D01*
X3035419Y1356100D01*
X3037400Y1354120D01*
X3068880Y1354120D01*
X3070860Y1356100D01*
X3070860Y1387600D01*
X3068880Y1389560D01*
X3059920Y1389560D01*
X3059920Y1375000D01*
X3046920Y1375000D01*
X3046920Y1389560D01*
G37*
G36*
X3037400Y1452160D02*
G01*
X3035419Y1450200D01*
X3035419Y1419079D01*
X3037400Y1417120D01*
X3046920Y1417120D01*
X3046920Y1432080D01*
X3059920Y1432080D01*
X3059920Y1417120D01*
X3068880Y1417120D01*
X3070860Y1419079D01*
X3070860Y1450200D01*
X3068880Y1452160D01*
G37*
G36*
X3137400Y1389560D02*
G01*
X3135419Y1387600D01*
X3135419Y1356100D01*
X3137400Y1354120D01*
X3168880Y1354120D01*
X3170860Y1356100D01*
X3170860Y1387600D01*
X3168880Y1389560D01*
X3159920Y1389560D01*
X3159920Y1375000D01*
X3146920Y1375000D01*
X3146920Y1389560D01*
G37*
G36*
X3137400Y1452160D02*
G01*
X3135419Y1450200D01*
X3135419Y1419079D01*
X3137400Y1417120D01*
X3146920Y1417120D01*
X3146920Y1432080D01*
X3159920Y1432080D01*
X3159920Y1417120D01*
X3168880Y1417120D01*
X3170860Y1419079D01*
X3170860Y1450200D01*
X3168880Y1452160D01*
G37*
G36*
X3237400Y1389560D02*
G01*
X3235419Y1387600D01*
X3235419Y1356100D01*
X3237400Y1354120D01*
X3268880Y1354120D01*
X3270860Y1356100D01*
X3270860Y1387600D01*
X3268880Y1389560D01*
X3259920Y1389560D01*
X3259920Y1375000D01*
X3246920Y1375000D01*
X3246920Y1389560D01*
G37*
G36*
X3237400Y1452160D02*
G01*
X3235419Y1450200D01*
X3235419Y1419079D01*
X3237400Y1417120D01*
X3246920Y1417120D01*
X3246920Y1432080D01*
X3259920Y1432080D01*
X3259920Y1417120D01*
X3268880Y1417120D01*
X3270860Y1419079D01*
X3270860Y1450200D01*
X3268880Y1452160D01*
G37*
G36*
X3337400Y1389560D02*
G01*
X3335419Y1387600D01*
X3335419Y1356100D01*
X3337400Y1354120D01*
X3368880Y1354120D01*
X3370860Y1356100D01*
X3370860Y1387600D01*
X3368880Y1389560D01*
X3359920Y1389560D01*
X3359920Y1375000D01*
X3346920Y1375000D01*
X3346920Y1389560D01*
G37*
G36*
X3337400Y1452160D02*
G01*
X3335419Y1450200D01*
X3335419Y1419079D01*
X3337400Y1417120D01*
X3346920Y1417120D01*
X3346920Y1432080D01*
X3359920Y1432080D01*
X3359920Y1417120D01*
X3368880Y1417120D01*
X3370860Y1419079D01*
X3370860Y1450200D01*
X3368880Y1452160D01*
G37*
G36*
X3437400Y1389560D02*
G01*
X3435419Y1387600D01*
X3435419Y1356100D01*
X3437400Y1354120D01*
X3468880Y1354120D01*
X3470860Y1356100D01*
X3470860Y1387600D01*
X3468880Y1389560D01*
X3459920Y1389560D01*
X3459920Y1375000D01*
X3446920Y1375000D01*
X3446920Y1389560D01*
G37*
G36*
X3437400Y1452160D02*
G01*
X3435419Y1450200D01*
X3435419Y1419079D01*
X3437400Y1417120D01*
X3446920Y1417120D01*
X3446920Y1432080D01*
X3459920Y1432080D01*
X3459920Y1417120D01*
X3468880Y1417120D01*
X3470860Y1419079D01*
X3470860Y1450200D01*
X3468880Y1452160D01*
G37*
G36*
X544100Y497840D02*
G01*
X542520Y496260D01*
X542520Y476540D01*
X544100Y474980D01*
X562200Y474980D01*
X563780Y476540D01*
X563780Y496260D01*
X562200Y497840D01*
G37*
G36*
X544100Y531320D02*
G01*
X542520Y529740D01*
X542520Y510040D01*
X544100Y508459D01*
X562200Y508459D01*
X563780Y510040D01*
X563780Y529740D01*
X562200Y531320D01*
G37*
G36*
X644100Y497840D02*
G01*
X642520Y496260D01*
X642520Y476540D01*
X644100Y474980D01*
X662200Y474980D01*
X663780Y476540D01*
X663780Y496260D01*
X662200Y497840D01*
G37*
G36*
X644100Y531320D02*
G01*
X642520Y529740D01*
X642520Y510040D01*
X644100Y508459D01*
X662200Y508459D01*
X663780Y510040D01*
X663780Y529740D01*
X662200Y531320D01*
G37*
G36*
X744100Y497840D02*
G01*
X742520Y496260D01*
X742520Y476540D01*
X744100Y474980D01*
X762200Y474980D01*
X763780Y476540D01*
X763780Y496260D01*
X762200Y497840D01*
G37*
G36*
X744100Y531320D02*
G01*
X742520Y529740D01*
X742520Y510040D01*
X744100Y508459D01*
X762200Y508459D01*
X763780Y510040D01*
X763780Y529740D01*
X762200Y531320D01*
G37*
G36*
X844100Y497840D02*
G01*
X842520Y496260D01*
X842520Y476540D01*
X844100Y474980D01*
X862200Y474980D01*
X863780Y476540D01*
X863780Y496260D01*
X862200Y497840D01*
G37*
G36*
X844100Y531320D02*
G01*
X842520Y529740D01*
X842520Y510040D01*
X844100Y508459D01*
X862200Y508459D01*
X863780Y510040D01*
X863780Y529740D01*
X862200Y531320D01*
G37*
G36*
X944100Y497840D02*
G01*
X942520Y496260D01*
X942520Y476540D01*
X944100Y474980D01*
X962200Y474980D01*
X963780Y476540D01*
X963780Y496260D01*
X962200Y497840D01*
G37*
G36*
X944100Y531320D02*
G01*
X942520Y529740D01*
X942520Y510040D01*
X944100Y508459D01*
X962200Y508459D01*
X963780Y510040D01*
X963780Y529740D01*
X962200Y531320D01*
G37*
G36*
X1044100Y497840D02*
G01*
X1042520Y496260D01*
X1042520Y476540D01*
X1044100Y474980D01*
X1062200Y474980D01*
X1063780Y476540D01*
X1063780Y496260D01*
X1062200Y497840D01*
G37*
G36*
X1044100Y531320D02*
G01*
X1042520Y529740D01*
X1042520Y510040D01*
X1044100Y508459D01*
X1062200Y508459D01*
X1063780Y510040D01*
X1063780Y529740D01*
X1062200Y531320D01*
G37*
G36*
X1144100Y497840D02*
G01*
X1142520Y496260D01*
X1142520Y476540D01*
X1144100Y474980D01*
X1162200Y474980D01*
X1163780Y476540D01*
X1163780Y496260D01*
X1162200Y497840D01*
G37*
G36*
X1144100Y531320D02*
G01*
X1142520Y529740D01*
X1142520Y510040D01*
X1144100Y508459D01*
X1162200Y508459D01*
X1163780Y510040D01*
X1163780Y529740D01*
X1162200Y531320D01*
G37*
G36*
X1244100Y497840D02*
G01*
X1242520Y496260D01*
X1242520Y476540D01*
X1244100Y474980D01*
X1262200Y474980D01*
X1263780Y476540D01*
X1263780Y496260D01*
X1262200Y497840D01*
G37*
G36*
X1244100Y531320D02*
G01*
X1242520Y529740D01*
X1242520Y510040D01*
X1244100Y508459D01*
X1262200Y508459D01*
X1263780Y510040D01*
X1263780Y529740D01*
X1262200Y531320D01*
G37*
G36*
X1344079Y497840D02*
G01*
X1342520Y496260D01*
X1342520Y476540D01*
X1344079Y474980D01*
X1362200Y474980D01*
X1363779Y476540D01*
X1363779Y496260D01*
X1362200Y497840D01*
G37*
G36*
X1344079Y531320D02*
G01*
X1342520Y529740D01*
X1342520Y510040D01*
X1344079Y508459D01*
X1362200Y508459D01*
X1363779Y510040D01*
X1363779Y529740D01*
X1362200Y531320D01*
G37*
G36*
X1444079Y497840D02*
G01*
X1442520Y496260D01*
X1442520Y476540D01*
X1444079Y474980D01*
X1462200Y474980D01*
X1463779Y476540D01*
X1463779Y496260D01*
X1462200Y497840D01*
G37*
G36*
X1444079Y531320D02*
G01*
X1442520Y529740D01*
X1442520Y510040D01*
X1444079Y508459D01*
X1462200Y508459D01*
X1463779Y510040D01*
X1463779Y529740D01*
X1462200Y531320D01*
G37*
G36*
X1544079Y497840D02*
G01*
X1542520Y496260D01*
X1542520Y476540D01*
X1544079Y474980D01*
X1562200Y474980D01*
X1563779Y476540D01*
X1563779Y496260D01*
X1562200Y497840D01*
G37*
G36*
X1544079Y531320D02*
G01*
X1542520Y529740D01*
X1542520Y510040D01*
X1544079Y508459D01*
X1562200Y508459D01*
X1563779Y510040D01*
X1563779Y529740D01*
X1562200Y531320D01*
G37*
G36*
X1644079Y497840D02*
G01*
X1642520Y496260D01*
X1642520Y476540D01*
X1644079Y474980D01*
X1662200Y474980D01*
X1663779Y476540D01*
X1663779Y496260D01*
X1662200Y497840D01*
G37*
G36*
X1644079Y531320D02*
G01*
X1642520Y529740D01*
X1642520Y510040D01*
X1644079Y508459D01*
X1662200Y508459D01*
X1663779Y510040D01*
X1663779Y529740D01*
X1662200Y531320D01*
G37*
G36*
X1744079Y497840D02*
G01*
X1742520Y496260D01*
X1742520Y476540D01*
X1744079Y474980D01*
X1762200Y474980D01*
X1763779Y476540D01*
X1763779Y496260D01*
X1762200Y497840D01*
G37*
G36*
X1744079Y531320D02*
G01*
X1742520Y529740D01*
X1742520Y510040D01*
X1744079Y508459D01*
X1762200Y508459D01*
X1763779Y510040D01*
X1763779Y529740D01*
X1762200Y531320D01*
G37*
G36*
X1844079Y497840D02*
G01*
X1842520Y496260D01*
X1842520Y476540D01*
X1844079Y474980D01*
X1862200Y474980D01*
X1863779Y476540D01*
X1863779Y496260D01*
X1862200Y497840D01*
G37*
G36*
X1844079Y531320D02*
G01*
X1842520Y529740D01*
X1842520Y510040D01*
X1844079Y508459D01*
X1862200Y508459D01*
X1863779Y510040D01*
X1863779Y529740D01*
X1862200Y531320D01*
G37*
G36*
X1944079Y497840D02*
G01*
X1942520Y496260D01*
X1942520Y476540D01*
X1944079Y474980D01*
X1962200Y474980D01*
X1963779Y476540D01*
X1963779Y496260D01*
X1962200Y497840D01*
G37*
G36*
X1944079Y531320D02*
G01*
X1942520Y529740D01*
X1942520Y510040D01*
X1944079Y508459D01*
X1962200Y508459D01*
X1963779Y510040D01*
X1963779Y529740D01*
X1962200Y531320D01*
G37*
G36*
X2044079Y497840D02*
G01*
X2042520Y496260D01*
X2042520Y476540D01*
X2044079Y474980D01*
X2062200Y474980D01*
X2063779Y476540D01*
X2063779Y496260D01*
X2062200Y497840D01*
G37*
G36*
X2044079Y531320D02*
G01*
X2042520Y529740D01*
X2042520Y510040D01*
X2044079Y508459D01*
X2062200Y508459D01*
X2063779Y510040D01*
X2063779Y529740D01*
X2062200Y531320D01*
G37*
G36*
X2144080Y497840D02*
G01*
X2142520Y496260D01*
X2142520Y476540D01*
X2144080Y474980D01*
X2162200Y474980D01*
X2163780Y476540D01*
X2163780Y496260D01*
X2162200Y497840D01*
G37*
G36*
X2144080Y531320D02*
G01*
X2142520Y529740D01*
X2142520Y510040D01*
X2144080Y508459D01*
X2162200Y508459D01*
X2163780Y510040D01*
X2163780Y529740D01*
X2162200Y531320D01*
G37*
G36*
X2244080Y497840D02*
G01*
X2242520Y496260D01*
X2242520Y476540D01*
X2244080Y474980D01*
X2262200Y474980D01*
X2263780Y476540D01*
X2263780Y496260D01*
X2262200Y497840D01*
G37*
G36*
X2244080Y531320D02*
G01*
X2242520Y529740D01*
X2242520Y510040D01*
X2244080Y508459D01*
X2262200Y508459D01*
X2263780Y510040D01*
X2263780Y529740D01*
X2262200Y531320D01*
G37*
G36*
X2344080Y497840D02*
G01*
X2342520Y496260D01*
X2342520Y476540D01*
X2344080Y474980D01*
X2362200Y474980D01*
X2363780Y476540D01*
X2363780Y496260D01*
X2362200Y497840D01*
G37*
G36*
X2344080Y531320D02*
G01*
X2342520Y529740D01*
X2342520Y510040D01*
X2344080Y508459D01*
X2362200Y508459D01*
X2363780Y510040D01*
X2363780Y529740D01*
X2362200Y531320D01*
G37*
G36*
X2444080Y497840D02*
G01*
X2442520Y496260D01*
X2442520Y476540D01*
X2444080Y474980D01*
X2462200Y474980D01*
X2463780Y476540D01*
X2463780Y496260D01*
X2462200Y497840D01*
G37*
G36*
X2444080Y531320D02*
G01*
X2442520Y529740D01*
X2442520Y510040D01*
X2444080Y508459D01*
X2462200Y508459D01*
X2463780Y510040D01*
X2463780Y529740D01*
X2462200Y531320D01*
G37*
G36*
X2544080Y497840D02*
G01*
X2542520Y496260D01*
X2542520Y476540D01*
X2544080Y474980D01*
X2562200Y474980D01*
X2563780Y476540D01*
X2563780Y496260D01*
X2562200Y497840D01*
G37*
G36*
X2544080Y531320D02*
G01*
X2542520Y529740D01*
X2542520Y510040D01*
X2544080Y508459D01*
X2562200Y508459D01*
X2563780Y510040D01*
X2563780Y529740D01*
X2562200Y531320D01*
G37*
G36*
X2644080Y497840D02*
G01*
X2642520Y496260D01*
X2642520Y476540D01*
X2644080Y474980D01*
X2662200Y474980D01*
X2663780Y476540D01*
X2663780Y496260D01*
X2662200Y497840D01*
G37*
G36*
X2644080Y531320D02*
G01*
X2642520Y529740D01*
X2642520Y510040D01*
X2644080Y508459D01*
X2662200Y508459D01*
X2663780Y510040D01*
X2663780Y529740D01*
X2662200Y531320D01*
G37*
G36*
X2744080Y497840D02*
G01*
X2742520Y496260D01*
X2742520Y476540D01*
X2744080Y474980D01*
X2762200Y474980D01*
X2763780Y476540D01*
X2763780Y496260D01*
X2762200Y497840D01*
G37*
G36*
X2744080Y531320D02*
G01*
X2742520Y529740D01*
X2742520Y510040D01*
X2744080Y508459D01*
X2762200Y508459D01*
X2763780Y510040D01*
X2763780Y529740D01*
X2762200Y531320D01*
G37*
G36*
X2844080Y497840D02*
G01*
X2842520Y496260D01*
X2842520Y476540D01*
X2844080Y474980D01*
X2862200Y474980D01*
X2863780Y476540D01*
X2863780Y496260D01*
X2862200Y497840D01*
G37*
G36*
X2844080Y531320D02*
G01*
X2842520Y529740D01*
X2842520Y510040D01*
X2844080Y508459D01*
X2862200Y508459D01*
X2863780Y510040D01*
X2863780Y529740D01*
X2862200Y531320D01*
G37*
G36*
X2944080Y497840D02*
G01*
X2942520Y496260D01*
X2942520Y476540D01*
X2944080Y474980D01*
X2962200Y474980D01*
X2963780Y476540D01*
X2963780Y496260D01*
X2962200Y497840D01*
G37*
G36*
X2944080Y531320D02*
G01*
X2942520Y529740D01*
X2942520Y510040D01*
X2944080Y508459D01*
X2962200Y508459D01*
X2963780Y510040D01*
X2963780Y529740D01*
X2962200Y531320D01*
G37*
G36*
X3044080Y497840D02*
G01*
X3042520Y496260D01*
X3042520Y476540D01*
X3044080Y474980D01*
X3062200Y474980D01*
X3063780Y476540D01*
X3063780Y496260D01*
X3062200Y497840D01*
G37*
G36*
X3044080Y531320D02*
G01*
X3042520Y529740D01*
X3042520Y510040D01*
X3044080Y508459D01*
X3062200Y508459D01*
X3063780Y510040D01*
X3063780Y529740D01*
X3062200Y531320D01*
G37*
G36*
X3144080Y497840D02*
G01*
X3142520Y496260D01*
X3142520Y476540D01*
X3144080Y474980D01*
X3162200Y474980D01*
X3163780Y476540D01*
X3163780Y496260D01*
X3162200Y497840D01*
G37*
G36*
X3144080Y531320D02*
G01*
X3142520Y529740D01*
X3142520Y510040D01*
X3144080Y508459D01*
X3162200Y508459D01*
X3163780Y510040D01*
X3163780Y529740D01*
X3162200Y531320D01*
G37*
G36*
X3244080Y497840D02*
G01*
X3242520Y496260D01*
X3242520Y476540D01*
X3244080Y474980D01*
X3262200Y474980D01*
X3263780Y476540D01*
X3263780Y496260D01*
X3262200Y497840D01*
G37*
G36*
X3244080Y531320D02*
G01*
X3242520Y529740D01*
X3242520Y510040D01*
X3244080Y508459D01*
X3262200Y508459D01*
X3263780Y510040D01*
X3263780Y529740D01*
X3262200Y531320D01*
G37*
G36*
X3344080Y497840D02*
G01*
X3342520Y496260D01*
X3342520Y476540D01*
X3344080Y474980D01*
X3362200Y474980D01*
X3363780Y476540D01*
X3363780Y496260D01*
X3362200Y497840D01*
G37*
G36*
X3344080Y531320D02*
G01*
X3342520Y529740D01*
X3342520Y510040D01*
X3344080Y508459D01*
X3362200Y508459D01*
X3363780Y510040D01*
X3363780Y529740D01*
X3362200Y531320D01*
G37*
G36*
X3444080Y497840D02*
G01*
X3442520Y496260D01*
X3442520Y476540D01*
X3444080Y474980D01*
X3462200Y474980D01*
X3463780Y476540D01*
X3463780Y496260D01*
X3462200Y497840D01*
G37*
G36*
X3444080Y531320D02*
G01*
X3442520Y529740D01*
X3442520Y510040D01*
X3444080Y508459D01*
X3462200Y508459D01*
X3463780Y510040D01*
X3463780Y529740D01*
X3462200Y531320D01*
G37*
G36*
X520460Y3315539D02*
G01*
X516520Y3311600D01*
X516520Y3271940D01*
X520460Y3268000D01*
X579540Y3268000D01*
X583480Y3271940D01*
X583480Y3311600D01*
X579540Y3315539D01*
X565320Y3315539D01*
X561380Y3311600D01*
X561380Y3303320D01*
X557440Y3299380D01*
X542560Y3299380D01*
X538620Y3303320D01*
X538620Y3311600D01*
X534680Y3315539D01*
G37*
G36*
X520460Y3431980D02*
G01*
X516520Y3428039D01*
X516520Y3388380D01*
X520460Y3384440D01*
X534680Y3384440D01*
X538620Y3388380D01*
X538620Y3396660D01*
X542560Y3400600D01*
X557440Y3400600D01*
X561380Y3396660D01*
X561380Y3388380D01*
X565320Y3384440D01*
X579540Y3384440D01*
X583480Y3388380D01*
X583480Y3428039D01*
X579540Y3431980D01*
G37*
G36*
X620460Y3315539D02*
G01*
X616520Y3311600D01*
X616520Y3271940D01*
X620460Y3268000D01*
X679539Y3268000D01*
X683480Y3271940D01*
X683480Y3311600D01*
X679539Y3315539D01*
X665320Y3315539D01*
X661380Y3311600D01*
X661380Y3303320D01*
X657440Y3299380D01*
X642560Y3299380D01*
X638620Y3303320D01*
X638620Y3311600D01*
X634680Y3315539D01*
G37*
G36*
X620460Y3431980D02*
G01*
X616520Y3428039D01*
X616520Y3388380D01*
X620460Y3384440D01*
X634680Y3384440D01*
X638620Y3388380D01*
X638620Y3396660D01*
X642560Y3400600D01*
X657440Y3400600D01*
X661380Y3396660D01*
X661380Y3388380D01*
X665320Y3384440D01*
X679539Y3384440D01*
X683480Y3388380D01*
X683480Y3428039D01*
X679539Y3431980D01*
G37*
G36*
X720460Y3315539D02*
G01*
X716520Y3311600D01*
X716520Y3271940D01*
X720460Y3268000D01*
X779539Y3268000D01*
X783480Y3271940D01*
X783480Y3311600D01*
X779539Y3315539D01*
X765320Y3315539D01*
X761380Y3311600D01*
X761380Y3303320D01*
X757440Y3299380D01*
X742560Y3299380D01*
X738620Y3303320D01*
X738620Y3311600D01*
X734680Y3315539D01*
G37*
G36*
X720460Y3431980D02*
G01*
X716520Y3428039D01*
X716520Y3388380D01*
X720460Y3384440D01*
X734680Y3384440D01*
X738620Y3388380D01*
X738620Y3396660D01*
X742560Y3400600D01*
X757440Y3400600D01*
X761380Y3396660D01*
X761380Y3388380D01*
X765320Y3384440D01*
X779539Y3384440D01*
X783480Y3388380D01*
X783480Y3428039D01*
X779539Y3431980D01*
G37*
G36*
X820460Y3315539D02*
G01*
X816520Y3311600D01*
X816520Y3271940D01*
X820460Y3268000D01*
X879539Y3268000D01*
X883480Y3271940D01*
X883480Y3311600D01*
X879539Y3315539D01*
X865320Y3315539D01*
X861380Y3311600D01*
X861380Y3303320D01*
X857440Y3299380D01*
X842560Y3299380D01*
X838620Y3303320D01*
X838620Y3311600D01*
X834680Y3315539D01*
G37*
G36*
X820460Y3431980D02*
G01*
X816520Y3428039D01*
X816520Y3388380D01*
X820460Y3384440D01*
X834680Y3384440D01*
X838620Y3388380D01*
X838620Y3396660D01*
X842560Y3400600D01*
X857440Y3400600D01*
X861380Y3396660D01*
X861380Y3388380D01*
X865320Y3384440D01*
X879539Y3384440D01*
X883480Y3388380D01*
X883480Y3428039D01*
X879539Y3431980D01*
G37*
G36*
X920460Y3315539D02*
G01*
X916520Y3311600D01*
X916520Y3271940D01*
X920460Y3268000D01*
X979539Y3268000D01*
X983480Y3271940D01*
X983480Y3311600D01*
X979539Y3315539D01*
X965320Y3315539D01*
X961380Y3311600D01*
X961380Y3303320D01*
X957440Y3299380D01*
X942560Y3299380D01*
X938620Y3303320D01*
X938620Y3311600D01*
X934680Y3315539D01*
G37*
G36*
X920460Y3431980D02*
G01*
X916520Y3428039D01*
X916520Y3388380D01*
X920460Y3384440D01*
X934680Y3384440D01*
X938620Y3388380D01*
X938620Y3396660D01*
X942560Y3400600D01*
X957440Y3400600D01*
X961380Y3396660D01*
X961380Y3388380D01*
X965320Y3384440D01*
X979539Y3384440D01*
X983480Y3388380D01*
X983480Y3428039D01*
X979539Y3431980D01*
G37*
G36*
X1020460Y3315539D02*
G01*
X1016520Y3311600D01*
X1016520Y3271940D01*
X1020460Y3268000D01*
X1079540Y3268000D01*
X1083480Y3271940D01*
X1083480Y3311600D01*
X1079540Y3315539D01*
X1065320Y3315539D01*
X1061380Y3311600D01*
X1061380Y3303320D01*
X1057440Y3299380D01*
X1042560Y3299380D01*
X1038620Y3303320D01*
X1038620Y3311600D01*
X1034680Y3315539D01*
G37*
G36*
X1020460Y3431980D02*
G01*
X1016520Y3428039D01*
X1016520Y3388380D01*
X1020460Y3384440D01*
X1034680Y3384440D01*
X1038620Y3388380D01*
X1038620Y3396660D01*
X1042560Y3400600D01*
X1057440Y3400600D01*
X1061380Y3396660D01*
X1061380Y3388380D01*
X1065320Y3384440D01*
X1079540Y3384440D01*
X1083480Y3388380D01*
X1083480Y3428039D01*
X1079540Y3431980D01*
G37*
G36*
X1120460Y3315539D02*
G01*
X1116520Y3311600D01*
X1116520Y3271940D01*
X1120460Y3268000D01*
X1179540Y3268000D01*
X1183480Y3271940D01*
X1183480Y3311600D01*
X1179540Y3315539D01*
X1165320Y3315539D01*
X1161380Y3311600D01*
X1161380Y3303320D01*
X1157440Y3299380D01*
X1142560Y3299380D01*
X1138620Y3303320D01*
X1138620Y3311600D01*
X1134680Y3315539D01*
G37*
G36*
X1120460Y3431980D02*
G01*
X1116520Y3428039D01*
X1116520Y3388380D01*
X1120460Y3384440D01*
X1134680Y3384440D01*
X1138620Y3388380D01*
X1138620Y3396660D01*
X1142560Y3400600D01*
X1157440Y3400600D01*
X1161380Y3396660D01*
X1161380Y3388380D01*
X1165320Y3384440D01*
X1179540Y3384440D01*
X1183480Y3388380D01*
X1183480Y3428039D01*
X1179540Y3431980D01*
G37*
G36*
X1220460Y3315539D02*
G01*
X1216520Y3311600D01*
X1216520Y3271940D01*
X1220460Y3268000D01*
X1279540Y3268000D01*
X1283480Y3271940D01*
X1283480Y3311600D01*
X1279540Y3315539D01*
X1265320Y3315539D01*
X1261380Y3311600D01*
X1261380Y3303320D01*
X1257440Y3299380D01*
X1242560Y3299380D01*
X1238620Y3303320D01*
X1238620Y3311600D01*
X1234680Y3315539D01*
G37*
G36*
X1220460Y3431980D02*
G01*
X1216520Y3428039D01*
X1216520Y3388380D01*
X1220460Y3384440D01*
X1234680Y3384440D01*
X1238620Y3388380D01*
X1238620Y3396660D01*
X1242560Y3400600D01*
X1257440Y3400600D01*
X1261380Y3396660D01*
X1261380Y3388380D01*
X1265320Y3384440D01*
X1279540Y3384440D01*
X1283480Y3388380D01*
X1283480Y3428039D01*
X1279540Y3431980D01*
G37*
G36*
X1320440Y3315539D02*
G01*
X1316500Y3311600D01*
X1316500Y3271940D01*
X1320440Y3268000D01*
X1379540Y3268000D01*
X1383480Y3271940D01*
X1383480Y3311600D01*
X1379540Y3315539D01*
X1365320Y3315539D01*
X1361380Y3311600D01*
X1361380Y3303320D01*
X1357440Y3299380D01*
X1342540Y3299380D01*
X1338600Y3303320D01*
X1338600Y3311600D01*
X1334680Y3315539D01*
G37*
G36*
X1320440Y3431980D02*
G01*
X1316500Y3428039D01*
X1316500Y3388380D01*
X1320440Y3384440D01*
X1334680Y3384440D01*
X1338600Y3388380D01*
X1338600Y3396660D01*
X1342540Y3400600D01*
X1357440Y3400600D01*
X1361380Y3396660D01*
X1361380Y3388380D01*
X1365320Y3384440D01*
X1379540Y3384440D01*
X1383480Y3388380D01*
X1383480Y3428039D01*
X1379540Y3431980D01*
G37*
G36*
X1420440Y3315539D02*
G01*
X1416500Y3311600D01*
X1416500Y3271940D01*
X1420440Y3268000D01*
X1479540Y3268000D01*
X1483480Y3271940D01*
X1483480Y3311600D01*
X1479540Y3315539D01*
X1465320Y3315539D01*
X1461380Y3311600D01*
X1461380Y3303320D01*
X1457440Y3299380D01*
X1442540Y3299380D01*
X1438600Y3303320D01*
X1438600Y3311600D01*
X1434680Y3315539D01*
G37*
G36*
X1420440Y3431980D02*
G01*
X1416500Y3428039D01*
X1416500Y3388380D01*
X1420440Y3384440D01*
X1434680Y3384440D01*
X1438600Y3388380D01*
X1438600Y3396660D01*
X1442540Y3400600D01*
X1457440Y3400600D01*
X1461380Y3396660D01*
X1461380Y3388380D01*
X1465320Y3384440D01*
X1479540Y3384440D01*
X1483480Y3388380D01*
X1483480Y3428039D01*
X1479540Y3431980D01*
G37*
G36*
X1520440Y3315539D02*
G01*
X1516519Y3311600D01*
X1516519Y3271940D01*
X1520440Y3268000D01*
X1579540Y3268000D01*
X1583480Y3271940D01*
X1583480Y3311600D01*
X1579540Y3315539D01*
X1565320Y3315539D01*
X1561380Y3311600D01*
X1561380Y3303320D01*
X1557440Y3299380D01*
X1542540Y3299380D01*
X1538600Y3303320D01*
X1538600Y3311600D01*
X1534680Y3315539D01*
G37*
G36*
X1520440Y3431980D02*
G01*
X1516519Y3428039D01*
X1516519Y3388380D01*
X1520440Y3384440D01*
X1534680Y3384440D01*
X1538600Y3388380D01*
X1538600Y3396660D01*
X1542540Y3400600D01*
X1557440Y3400600D01*
X1561380Y3396660D01*
X1561380Y3388380D01*
X1565320Y3384440D01*
X1579540Y3384440D01*
X1583480Y3388380D01*
X1583480Y3428039D01*
X1579540Y3431980D01*
G37*
G36*
X1620440Y3315539D02*
G01*
X1616519Y3311600D01*
X1616519Y3271940D01*
X1620440Y3268000D01*
X1679540Y3268000D01*
X1683480Y3271940D01*
X1683480Y3311600D01*
X1679540Y3315539D01*
X1665320Y3315539D01*
X1661380Y3311600D01*
X1661380Y3303320D01*
X1657440Y3299380D01*
X1642540Y3299380D01*
X1638600Y3303320D01*
X1638600Y3311600D01*
X1634680Y3315539D01*
G37*
G36*
X1620440Y3431980D02*
G01*
X1616519Y3428039D01*
X1616519Y3388380D01*
X1620440Y3384440D01*
X1634680Y3384440D01*
X1638600Y3388380D01*
X1638600Y3396660D01*
X1642540Y3400600D01*
X1657440Y3400600D01*
X1661380Y3396660D01*
X1661380Y3388380D01*
X1665320Y3384440D01*
X1679540Y3384440D01*
X1683480Y3388380D01*
X1683480Y3428039D01*
X1679540Y3431980D01*
G37*
G36*
X1720440Y3315539D02*
G01*
X1716519Y3311600D01*
X1716519Y3271940D01*
X1720440Y3268000D01*
X1779540Y3268000D01*
X1783480Y3271940D01*
X1783480Y3311600D01*
X1779540Y3315539D01*
X1765320Y3315539D01*
X1761380Y3311600D01*
X1761380Y3303320D01*
X1757440Y3299380D01*
X1742540Y3299380D01*
X1738600Y3303320D01*
X1738600Y3311600D01*
X1734680Y3315539D01*
G37*
G36*
X1720440Y3431980D02*
G01*
X1716519Y3428039D01*
X1716519Y3388380D01*
X1720440Y3384440D01*
X1734680Y3384440D01*
X1738600Y3388380D01*
X1738600Y3396660D01*
X1742540Y3400600D01*
X1757440Y3400600D01*
X1761380Y3396660D01*
X1761380Y3388380D01*
X1765320Y3384440D01*
X1779540Y3384440D01*
X1783480Y3388380D01*
X1783480Y3428039D01*
X1779540Y3431980D01*
G37*
G36*
X1820440Y3315539D02*
G01*
X1816519Y3311600D01*
X1816519Y3271940D01*
X1820440Y3268000D01*
X1879540Y3268000D01*
X1883480Y3271940D01*
X1883480Y3311600D01*
X1879540Y3315539D01*
X1865320Y3315539D01*
X1861380Y3311600D01*
X1861380Y3303320D01*
X1857440Y3299380D01*
X1842540Y3299380D01*
X1838600Y3303320D01*
X1838600Y3311600D01*
X1834680Y3315539D01*
G37*
G36*
X1820440Y3431980D02*
G01*
X1816519Y3428039D01*
X1816519Y3388380D01*
X1820440Y3384440D01*
X1834680Y3384440D01*
X1838600Y3388380D01*
X1838600Y3396660D01*
X1842540Y3400600D01*
X1857440Y3400600D01*
X1861380Y3396660D01*
X1861380Y3388380D01*
X1865320Y3384440D01*
X1879540Y3384440D01*
X1883480Y3388380D01*
X1883480Y3428039D01*
X1879540Y3431980D01*
G37*
G36*
X1920440Y3315539D02*
G01*
X1916519Y3311600D01*
X1916519Y3271940D01*
X1920440Y3268000D01*
X1979540Y3268000D01*
X1983480Y3271940D01*
X1983480Y3311600D01*
X1979540Y3315539D01*
X1965320Y3315539D01*
X1961380Y3311600D01*
X1961380Y3303320D01*
X1957440Y3299380D01*
X1942540Y3299380D01*
X1938600Y3303320D01*
X1938600Y3311600D01*
X1934680Y3315539D01*
G37*
G36*
X1920440Y3431980D02*
G01*
X1916519Y3428039D01*
X1916519Y3388380D01*
X1920440Y3384440D01*
X1934680Y3384440D01*
X1938600Y3388380D01*
X1938600Y3396660D01*
X1942540Y3400600D01*
X1957440Y3400600D01*
X1961380Y3396660D01*
X1961380Y3388380D01*
X1965320Y3384440D01*
X1979540Y3384440D01*
X1983480Y3388380D01*
X1983480Y3428039D01*
X1979540Y3431980D01*
G37*
G36*
X2020440Y3315539D02*
G01*
X2016519Y3311600D01*
X2016519Y3271940D01*
X2020440Y3268000D01*
X2079540Y3268000D01*
X2083480Y3271940D01*
X2083480Y3311600D01*
X2079540Y3315539D01*
X2065320Y3315539D01*
X2061380Y3311600D01*
X2061380Y3303320D01*
X2057440Y3299380D01*
X2042540Y3299380D01*
X2038600Y3303320D01*
X2038600Y3311600D01*
X2034680Y3315539D01*
G37*
G36*
X2020440Y3431980D02*
G01*
X2016519Y3428039D01*
X2016519Y3388380D01*
X2020440Y3384440D01*
X2034680Y3384440D01*
X2038600Y3388380D01*
X2038600Y3396660D01*
X2042540Y3400600D01*
X2057440Y3400600D01*
X2061380Y3396660D01*
X2061380Y3388380D01*
X2065320Y3384440D01*
X2079540Y3384440D01*
X2083480Y3388380D01*
X2083480Y3428039D01*
X2079540Y3431980D01*
G37*
G36*
X2120440Y3315539D02*
G01*
X2116520Y3311600D01*
X2116520Y3271940D01*
X2120440Y3268000D01*
X2179540Y3268000D01*
X2183480Y3271940D01*
X2183480Y3311600D01*
X2179540Y3315539D01*
X2165320Y3315539D01*
X2161380Y3311600D01*
X2161380Y3303320D01*
X2157440Y3299380D01*
X2142540Y3299380D01*
X2138600Y3303320D01*
X2138600Y3311600D01*
X2134680Y3315539D01*
G37*
G36*
X2120440Y3431980D02*
G01*
X2116520Y3428039D01*
X2116520Y3388380D01*
X2120440Y3384440D01*
X2134680Y3384440D01*
X2138600Y3388380D01*
X2138600Y3396660D01*
X2142540Y3400600D01*
X2157440Y3400600D01*
X2161380Y3396660D01*
X2161380Y3388380D01*
X2165320Y3384440D01*
X2179540Y3384440D01*
X2183480Y3388380D01*
X2183480Y3428039D01*
X2179540Y3431980D01*
G37*
G36*
X2220440Y3315539D02*
G01*
X2216520Y3311600D01*
X2216520Y3271940D01*
X2220440Y3268000D01*
X2279540Y3268000D01*
X2283480Y3271940D01*
X2283480Y3311600D01*
X2279540Y3315539D01*
X2265320Y3315539D01*
X2261380Y3311600D01*
X2261380Y3303320D01*
X2257440Y3299380D01*
X2242540Y3299380D01*
X2238600Y3303320D01*
X2238600Y3311600D01*
X2234680Y3315539D01*
G37*
G36*
X2220440Y3431980D02*
G01*
X2216520Y3428039D01*
X2216520Y3388380D01*
X2220440Y3384440D01*
X2234680Y3384440D01*
X2238600Y3388380D01*
X2238600Y3396660D01*
X2242540Y3400600D01*
X2257440Y3400600D01*
X2261380Y3396660D01*
X2261380Y3388380D01*
X2265320Y3384440D01*
X2279540Y3384440D01*
X2283480Y3388380D01*
X2283480Y3428039D01*
X2279540Y3431980D01*
G37*
G36*
X2320440Y3315539D02*
G01*
X2316520Y3311600D01*
X2316520Y3271940D01*
X2320440Y3268000D01*
X2379540Y3268000D01*
X2383480Y3271940D01*
X2383480Y3311600D01*
X2379540Y3315539D01*
X2365320Y3315539D01*
X2361380Y3311600D01*
X2361380Y3303320D01*
X2357440Y3299380D01*
X2342540Y3299380D01*
X2338600Y3303320D01*
X2338600Y3311600D01*
X2334680Y3315539D01*
G37*
G36*
X2320440Y3431980D02*
G01*
X2316520Y3428039D01*
X2316520Y3388380D01*
X2320440Y3384440D01*
X2334680Y3384440D01*
X2338600Y3388380D01*
X2338600Y3396660D01*
X2342540Y3400600D01*
X2357440Y3400600D01*
X2361380Y3396660D01*
X2361380Y3388380D01*
X2365320Y3384440D01*
X2379540Y3384440D01*
X2383480Y3388380D01*
X2383480Y3428039D01*
X2379540Y3431980D01*
G37*
G36*
X2420440Y3315539D02*
G01*
X2416500Y3311600D01*
X2416500Y3271940D01*
X2420440Y3268000D01*
X2479540Y3268000D01*
X2483480Y3271940D01*
X2483480Y3311600D01*
X2479540Y3315539D01*
X2465320Y3315539D01*
X2461380Y3311600D01*
X2461380Y3303320D01*
X2457440Y3299380D01*
X2442540Y3299380D01*
X2438600Y3303320D01*
X2438600Y3311600D01*
X2434680Y3315539D01*
G37*
G36*
X2420440Y3431980D02*
G01*
X2416500Y3428039D01*
X2416500Y3388380D01*
X2420440Y3384440D01*
X2434680Y3384440D01*
X2438600Y3388380D01*
X2438600Y3396660D01*
X2442540Y3400600D01*
X2457440Y3400600D01*
X2461380Y3396660D01*
X2461380Y3388380D01*
X2465320Y3384440D01*
X2479540Y3384440D01*
X2483480Y3388380D01*
X2483480Y3428039D01*
X2479540Y3431980D01*
G37*
G36*
X2520440Y3315539D02*
G01*
X2516500Y3311600D01*
X2516500Y3271940D01*
X2520440Y3268000D01*
X2579540Y3268000D01*
X2583480Y3271940D01*
X2583480Y3311600D01*
X2579540Y3315539D01*
X2565320Y3315539D01*
X2561380Y3311600D01*
X2561380Y3303320D01*
X2557440Y3299380D01*
X2542540Y3299380D01*
X2538600Y3303320D01*
X2538600Y3311600D01*
X2534680Y3315539D01*
G37*
G36*
X2520440Y3431980D02*
G01*
X2516500Y3428039D01*
X2516500Y3388380D01*
X2520440Y3384440D01*
X2534680Y3384440D01*
X2538600Y3388380D01*
X2538600Y3396660D01*
X2542540Y3400600D01*
X2557440Y3400600D01*
X2561380Y3396660D01*
X2561380Y3388380D01*
X2565320Y3384440D01*
X2579540Y3384440D01*
X2583480Y3388380D01*
X2583480Y3428039D01*
X2579540Y3431980D01*
G37*
G36*
X2620440Y3315539D02*
G01*
X2616500Y3311600D01*
X2616500Y3271940D01*
X2620440Y3268000D01*
X2679540Y3268000D01*
X2683480Y3271940D01*
X2683480Y3311600D01*
X2679540Y3315539D01*
X2665320Y3315539D01*
X2661380Y3311600D01*
X2661380Y3303320D01*
X2657440Y3299380D01*
X2642540Y3299380D01*
X2638600Y3303320D01*
X2638600Y3311600D01*
X2634680Y3315539D01*
G37*
G36*
X2620440Y3431980D02*
G01*
X2616500Y3428039D01*
X2616500Y3388380D01*
X2620440Y3384440D01*
X2634680Y3384440D01*
X2638600Y3388380D01*
X2638600Y3396660D01*
X2642540Y3400600D01*
X2657440Y3400600D01*
X2661380Y3396660D01*
X2661380Y3388380D01*
X2665320Y3384440D01*
X2679540Y3384440D01*
X2683480Y3388380D01*
X2683480Y3428039D01*
X2679540Y3431980D01*
G37*
G36*
X2720440Y3315539D02*
G01*
X2716500Y3311600D01*
X2716500Y3271940D01*
X2720440Y3268000D01*
X2779540Y3268000D01*
X2783480Y3271940D01*
X2783480Y3311600D01*
X2779540Y3315539D01*
X2765320Y3315539D01*
X2761380Y3311600D01*
X2761380Y3303320D01*
X2757440Y3299380D01*
X2742540Y3299380D01*
X2738600Y3303320D01*
X2738600Y3311600D01*
X2734680Y3315539D01*
G37*
G36*
X2720440Y3431980D02*
G01*
X2716500Y3428039D01*
X2716500Y3388380D01*
X2720440Y3384440D01*
X2734680Y3384440D01*
X2738600Y3388380D01*
X2738600Y3396660D01*
X2742540Y3400600D01*
X2757440Y3400600D01*
X2761380Y3396660D01*
X2761380Y3388380D01*
X2765320Y3384440D01*
X2779540Y3384440D01*
X2783480Y3388380D01*
X2783480Y3428039D01*
X2779540Y3431980D01*
G37*
G36*
X2820440Y3315539D02*
G01*
X2816500Y3311600D01*
X2816500Y3271940D01*
X2820440Y3268000D01*
X2879540Y3268000D01*
X2883480Y3271940D01*
X2883480Y3311600D01*
X2879540Y3315539D01*
X2865320Y3315539D01*
X2861380Y3311600D01*
X2861380Y3303320D01*
X2857440Y3299380D01*
X2842540Y3299380D01*
X2838600Y3303320D01*
X2838600Y3311600D01*
X2834680Y3315539D01*
G37*
G36*
X2820440Y3431980D02*
G01*
X2816500Y3428039D01*
X2816500Y3388380D01*
X2820440Y3384440D01*
X2834680Y3384440D01*
X2838600Y3388380D01*
X2838600Y3396660D01*
X2842540Y3400600D01*
X2857440Y3400600D01*
X2861380Y3396660D01*
X2861380Y3388380D01*
X2865320Y3384440D01*
X2879540Y3384440D01*
X2883480Y3388380D01*
X2883480Y3428039D01*
X2879540Y3431980D01*
G37*
G36*
X2920440Y3315539D02*
G01*
X2916500Y3311600D01*
X2916500Y3271940D01*
X2920440Y3268000D01*
X2979540Y3268000D01*
X2983480Y3271940D01*
X2983480Y3311600D01*
X2979540Y3315539D01*
X2965320Y3315539D01*
X2961380Y3311600D01*
X2961380Y3303320D01*
X2957440Y3299380D01*
X2942540Y3299380D01*
X2938600Y3303320D01*
X2938600Y3311600D01*
X2934680Y3315539D01*
G37*
G36*
X2920440Y3431980D02*
G01*
X2916500Y3428039D01*
X2916500Y3388380D01*
X2920440Y3384440D01*
X2934680Y3384440D01*
X2938600Y3388380D01*
X2938600Y3396660D01*
X2942540Y3400600D01*
X2957440Y3400600D01*
X2961380Y3396660D01*
X2961380Y3388380D01*
X2965320Y3384440D01*
X2979540Y3384440D01*
X2983480Y3388380D01*
X2983480Y3428039D01*
X2979540Y3431980D01*
G37*
G36*
X3020440Y3315539D02*
G01*
X3016500Y3311600D01*
X3016500Y3271940D01*
X3020440Y3268000D01*
X3079540Y3268000D01*
X3083480Y3271940D01*
X3083480Y3311600D01*
X3079540Y3315539D01*
X3065320Y3315539D01*
X3061380Y3311600D01*
X3061380Y3303320D01*
X3057440Y3299380D01*
X3042540Y3299380D01*
X3038600Y3303320D01*
X3038600Y3311600D01*
X3034680Y3315539D01*
G37*
G36*
X3020440Y3431980D02*
G01*
X3016500Y3428039D01*
X3016500Y3388380D01*
X3020440Y3384440D01*
X3034680Y3384440D01*
X3038600Y3388380D01*
X3038600Y3396660D01*
X3042540Y3400600D01*
X3057440Y3400600D01*
X3061380Y3396660D01*
X3061380Y3388380D01*
X3065320Y3384440D01*
X3079540Y3384440D01*
X3083480Y3388380D01*
X3083480Y3428039D01*
X3079540Y3431980D01*
G37*
G36*
X3120440Y3315539D02*
G01*
X3116500Y3311600D01*
X3116500Y3271940D01*
X3120440Y3268000D01*
X3179540Y3268000D01*
X3183480Y3271940D01*
X3183480Y3311600D01*
X3179540Y3315539D01*
X3165320Y3315539D01*
X3161380Y3311600D01*
X3161380Y3303320D01*
X3157440Y3299380D01*
X3142540Y3299380D01*
X3138600Y3303320D01*
X3138600Y3311600D01*
X3134680Y3315539D01*
G37*
G36*
X3120440Y3431980D02*
G01*
X3116500Y3428039D01*
X3116500Y3388380D01*
X3120440Y3384440D01*
X3134680Y3384440D01*
X3138600Y3388380D01*
X3138600Y3396660D01*
X3142540Y3400600D01*
X3157440Y3400600D01*
X3161380Y3396660D01*
X3161380Y3388380D01*
X3165320Y3384440D01*
X3179540Y3384440D01*
X3183480Y3388380D01*
X3183480Y3428039D01*
X3179540Y3431980D01*
G37*
G36*
X3220440Y3315539D02*
G01*
X3216500Y3311600D01*
X3216500Y3271940D01*
X3220440Y3268000D01*
X3279540Y3268000D01*
X3283480Y3271940D01*
X3283480Y3311600D01*
X3279540Y3315539D01*
X3265320Y3315539D01*
X3261380Y3311600D01*
X3261380Y3303320D01*
X3257440Y3299380D01*
X3242540Y3299380D01*
X3238600Y3303320D01*
X3238600Y3311600D01*
X3234680Y3315539D01*
G37*
G36*
X3220440Y3431980D02*
G01*
X3216500Y3428039D01*
X3216500Y3388380D01*
X3220440Y3384440D01*
X3234680Y3384440D01*
X3238600Y3388380D01*
X3238600Y3396660D01*
X3242540Y3400600D01*
X3257440Y3400600D01*
X3261380Y3396660D01*
X3261380Y3388380D01*
X3265320Y3384440D01*
X3279540Y3384440D01*
X3283480Y3388380D01*
X3283480Y3428039D01*
X3279540Y3431980D01*
G37*
G36*
X3320440Y3315539D02*
G01*
X3316500Y3311600D01*
X3316500Y3271940D01*
X3320440Y3268000D01*
X3379540Y3268000D01*
X3383480Y3271940D01*
X3383480Y3311600D01*
X3379540Y3315539D01*
X3365320Y3315539D01*
X3361380Y3311600D01*
X3361380Y3303320D01*
X3357440Y3299380D01*
X3342540Y3299380D01*
X3338600Y3303320D01*
X3338600Y3311600D01*
X3334680Y3315539D01*
G37*
G36*
X3320440Y3431980D02*
G01*
X3316500Y3428039D01*
X3316500Y3388380D01*
X3320440Y3384440D01*
X3334680Y3384440D01*
X3338600Y3388380D01*
X3338600Y3396660D01*
X3342540Y3400600D01*
X3357440Y3400600D01*
X3361380Y3396660D01*
X3361380Y3388380D01*
X3365320Y3384440D01*
X3379540Y3384440D01*
X3383480Y3388380D01*
X3383480Y3428039D01*
X3379540Y3431980D01*
G37*
G36*
X3420440Y3315539D02*
G01*
X3416500Y3311600D01*
X3416500Y3271940D01*
X3420440Y3268000D01*
X3479540Y3268000D01*
X3483480Y3271940D01*
X3483480Y3311600D01*
X3479540Y3315539D01*
X3465320Y3315539D01*
X3461380Y3311600D01*
X3461380Y3303320D01*
X3457440Y3299380D01*
X3442540Y3299380D01*
X3438600Y3303320D01*
X3438600Y3311600D01*
X3434680Y3315539D01*
G37*
G36*
X3420440Y3431980D02*
G01*
X3416500Y3428039D01*
X3416500Y3388380D01*
X3420440Y3384440D01*
X3434680Y3384440D01*
X3438600Y3388380D01*
X3438600Y3396660D01*
X3442540Y3400600D01*
X3457440Y3400600D01*
X3461380Y3396660D01*
X3461380Y3388380D01*
X3465320Y3384440D01*
X3479540Y3384440D01*
X3483480Y3388380D01*
X3483480Y3428039D01*
X3479540Y3431980D01*
G37*
M02*
