G04 Layer: TopSolderMaskLayer*
G04 EasyEDA v6.5.22, 2023-04-04 18:07:08*
G04 a67cddfb3fce44daa9051d46cbbcc19f,10*
G04 Gerber Generator version 0.2*
G04 Scale: 100 percent, Rotated: No, Reflected: No *
G04 Dimensions in inches *
G04 leading zeros omitted , absolute positions ,3 integer and 6 decimal *
%FSLAX36Y36*%
%MOIN*%

%AMMACRO1*1,1,$1,$2,$3*1,1,$1,$4,$5*1,1,$1,0-$2,0-$3*1,1,$1,0-$4,0-$5*20,1,$1,$2,$3,$4,$5,0*20,1,$1,$4,$5,0-$2,0-$3,0*20,1,$1,0-$2,0-$3,0-$4,0-$5,0*20,1,$1,0-$4,0-$5,$2,$3,0*4,1,4,$2,$3,$4,$5,0-$2,0-$3,0-$4,0-$5,$2,$3,0*%
%ADD10C,0.0660*%
%ADD11MACRO1,0.004X-0.031X0.031X0.031X0.031*%
%ADD12MACRO1,0.004X-0.0271X0.0223X0.0271X0.0223*%
%ADD13MACRO1,0.004X-0.0271X-0.0223X0.0271X-0.0223*%
%ADD14MACRO1,0.004X-0.017X0.0159X0.017X0.0159*%
%ADD15MACRO1,0.004X-0.017X-0.0159X0.017X-0.0159*%
%ADD16MACRO1,0.004X-0.0106X0.0111X0.0106X0.0111*%
%ADD17MACRO1,0.004X-0.0106X-0.0111X0.0106X-0.0111*%
%ADD18MACRO1,0.004X-0.0335X0.0238X0.0335X0.0238*%
%ADD19MACRO1,0.004X-0.0335X-0.0238X0.0335X-0.0238*%
%ADD20C,0.0130*%

%LPD*%
D10*
G01*
X2453140Y2603139D03*
G01*
X2353140Y2603139D03*
G01*
X2253140Y2603139D03*
G01*
X2153140Y2603139D03*
G01*
X2053140Y2603139D03*
G01*
X1953140Y2603139D03*
G01*
X1853140Y2603139D03*
G01*
X1753140Y2603139D03*
G01*
X1653140Y2603139D03*
D11*
G01*
X1553143Y2603143D03*
D10*
G01*
X2453140Y2003139D03*
G01*
X2353140Y2003139D03*
G01*
X2253140Y2003139D03*
G01*
X2153140Y2003139D03*
G01*
X2053140Y2003139D03*
G01*
X1953140Y2003139D03*
G01*
X1853140Y2003139D03*
G01*
X1753140Y2003139D03*
G01*
X1653140Y2003139D03*
D11*
G01*
X1553143Y2003143D03*
D10*
G01*
X1453149Y1653139D03*
G01*
X1353149Y1653139D03*
G01*
X1253149Y1653139D03*
G01*
X1153149Y1653139D03*
G01*
X1053149Y1653139D03*
G01*
X953149Y1653139D03*
G01*
X853149Y1653139D03*
G01*
X753150Y1653139D03*
G01*
X653150Y1653139D03*
D11*
G01*
X553145Y1653144D03*
D10*
G01*
X1453149Y1053150D03*
G01*
X1353149Y1053150D03*
G01*
X1253149Y1053150D03*
G01*
X1153149Y1053150D03*
G01*
X1053149Y1053150D03*
G01*
X953149Y1053150D03*
G01*
X853149Y1053150D03*
G01*
X753150Y1053150D03*
G01*
X653150Y1053150D03*
D11*
G01*
X553145Y1053145D03*
D10*
G01*
X2453140Y1653139D03*
G01*
X2353140Y1653139D03*
G01*
X2253140Y1653139D03*
G01*
X2153140Y1653139D03*
G01*
X2053140Y1653139D03*
G01*
X1953140Y1653139D03*
G01*
X1853140Y1653139D03*
G01*
X1753140Y1653139D03*
G01*
X1653140Y1653139D03*
D11*
G01*
X1553143Y1653144D03*
D10*
G01*
X2453140Y1053150D03*
G01*
X2353140Y1053150D03*
G01*
X2253140Y1053150D03*
G01*
X2153140Y1053150D03*
G01*
X2053140Y1053150D03*
G01*
X1953140Y1053150D03*
G01*
X1853140Y1053150D03*
G01*
X1753140Y1053150D03*
G01*
X1653140Y1053150D03*
D11*
G01*
X1553143Y1053145D03*
D10*
G01*
X3453140Y1653139D03*
G01*
X3353140Y1653139D03*
G01*
X3253140Y1653139D03*
G01*
X3153140Y1653139D03*
G01*
X3053140Y1653139D03*
G01*
X2953140Y1653139D03*
G01*
X2853140Y1653139D03*
G01*
X2753140Y1653139D03*
G01*
X2653140Y1653139D03*
D11*
G01*
X2553142Y1653144D03*
D10*
G01*
X3453140Y1053150D03*
G01*
X3353140Y1053150D03*
G01*
X3253140Y1053150D03*
G01*
X3153140Y1053150D03*
G01*
X3053140Y1053150D03*
G01*
X2953140Y1053150D03*
G01*
X2853140Y1053150D03*
G01*
X2753140Y1053150D03*
G01*
X2653140Y1053150D03*
D11*
G01*
X2553142Y1053145D03*
D12*
G01*
X553146Y2313770D03*
D13*
G01*
X553146Y2392515D03*
D12*
G01*
X653146Y2313770D03*
D13*
G01*
X653146Y2392515D03*
D12*
G01*
X753147Y2313770D03*
D13*
G01*
X753147Y2392515D03*
D12*
G01*
X853146Y2313770D03*
D13*
G01*
X853146Y2392515D03*
D12*
G01*
X953146Y2313770D03*
D13*
G01*
X953146Y2392515D03*
D12*
G01*
X1053146Y2313770D03*
D13*
G01*
X1053146Y2392515D03*
D12*
G01*
X1153146Y2313770D03*
D13*
G01*
X1153146Y2392515D03*
D12*
G01*
X1253146Y2313770D03*
D13*
G01*
X1253146Y2392515D03*
D12*
G01*
X1353144Y2313770D03*
D13*
G01*
X1353144Y2392515D03*
D12*
G01*
X1453144Y2313770D03*
D13*
G01*
X1453144Y2392515D03*
D12*
G01*
X1553144Y2313770D03*
D13*
G01*
X1553144Y2392515D03*
D12*
G01*
X1653144Y2313770D03*
D13*
G01*
X1653144Y2392515D03*
D12*
G01*
X1753144Y2313770D03*
D13*
G01*
X1753144Y2392515D03*
D12*
G01*
X1853143Y2313770D03*
D13*
G01*
X1853143Y2392515D03*
D12*
G01*
X1953143Y2313770D03*
D13*
G01*
X1953143Y2392515D03*
D12*
G01*
X2053143Y2313770D03*
D13*
G01*
X2053143Y2392515D03*
D12*
G01*
X2153143Y2313770D03*
D13*
G01*
X2153143Y2392515D03*
D12*
G01*
X2253143Y2313770D03*
D13*
G01*
X2253143Y2392515D03*
D12*
G01*
X2353143Y2313770D03*
D13*
G01*
X2353143Y2392515D03*
D12*
G01*
X2453143Y2313770D03*
D13*
G01*
X2453143Y2392515D03*
D12*
G01*
X2553143Y2313770D03*
D13*
G01*
X2553143Y2392515D03*
D12*
G01*
X2653143Y2313770D03*
D13*
G01*
X2653143Y2392515D03*
D12*
G01*
X2753143Y2313770D03*
D13*
G01*
X2753143Y2392515D03*
D12*
G01*
X2853142Y2313770D03*
D13*
G01*
X2853142Y2392515D03*
D12*
G01*
X2953142Y2313770D03*
D13*
G01*
X2953142Y2392515D03*
D12*
G01*
X3053142Y2313770D03*
D13*
G01*
X3053142Y2392515D03*
D12*
G01*
X3153142Y2313770D03*
D13*
G01*
X3153142Y2392515D03*
D12*
G01*
X3253142Y2313770D03*
D13*
G01*
X3253142Y2392515D03*
D12*
G01*
X3353141Y2313770D03*
D13*
G01*
X3353141Y2392515D03*
D12*
G01*
X3453141Y2313770D03*
D13*
G01*
X3453141Y2392515D03*
D14*
G01*
X553146Y1373489D03*
D15*
G01*
X553146Y1432800D03*
D14*
G01*
X653146Y1373489D03*
D15*
G01*
X653146Y1432800D03*
D14*
G01*
X753147Y1373489D03*
D15*
G01*
X753147Y1432800D03*
D14*
G01*
X853146Y1373489D03*
D15*
G01*
X853146Y1432800D03*
D14*
G01*
X953146Y1373489D03*
D15*
G01*
X953146Y1432800D03*
D14*
G01*
X1053146Y1373489D03*
D15*
G01*
X1053146Y1432800D03*
D14*
G01*
X1153146Y1373489D03*
D15*
G01*
X1153146Y1432800D03*
D14*
G01*
X1253146Y1373489D03*
D15*
G01*
X1253146Y1432800D03*
D14*
G01*
X1353144Y1373489D03*
D15*
G01*
X1353144Y1432800D03*
D14*
G01*
X1453144Y1373489D03*
D15*
G01*
X1453144Y1432800D03*
D14*
G01*
X1553144Y1373489D03*
D15*
G01*
X1553144Y1432800D03*
D14*
G01*
X1653144Y1373489D03*
D15*
G01*
X1653144Y1432800D03*
D14*
G01*
X1753144Y1373489D03*
D15*
G01*
X1753144Y1432800D03*
D14*
G01*
X1853143Y1373489D03*
D15*
G01*
X1853143Y1432800D03*
D14*
G01*
X1953143Y1373489D03*
D15*
G01*
X1953143Y1432800D03*
D14*
G01*
X2053143Y1373489D03*
D15*
G01*
X2053143Y1432800D03*
D14*
G01*
X2153143Y1373489D03*
D15*
G01*
X2153143Y1432800D03*
D14*
G01*
X2253143Y1373489D03*
D15*
G01*
X2253143Y1432800D03*
D14*
G01*
X2353143Y1373489D03*
D15*
G01*
X2353143Y1432800D03*
D14*
G01*
X2453143Y1373489D03*
D15*
G01*
X2453143Y1432800D03*
D14*
G01*
X2553143Y1373489D03*
D15*
G01*
X2553143Y1432800D03*
D14*
G01*
X2653143Y1373489D03*
D15*
G01*
X2653143Y1432800D03*
D14*
G01*
X2753143Y1373489D03*
D15*
G01*
X2753143Y1432800D03*
D14*
G01*
X2853142Y1373489D03*
D15*
G01*
X2853142Y1432800D03*
D14*
G01*
X2953142Y1373489D03*
D15*
G01*
X2953142Y1432800D03*
D14*
G01*
X3053142Y1373489D03*
D15*
G01*
X3053142Y1432800D03*
D14*
G01*
X3153142Y1373489D03*
D15*
G01*
X3153142Y1432800D03*
D14*
G01*
X3253142Y1373489D03*
D15*
G01*
X3253142Y1432800D03*
D14*
G01*
X3353141Y1373489D03*
D15*
G01*
X3353141Y1432800D03*
D14*
G01*
X3453141Y1373489D03*
D15*
G01*
X3453141Y1432800D03*
D10*
G01*
X1453149Y2603139D03*
G01*
X1353149Y2603139D03*
G01*
X1253149Y2603139D03*
G01*
X1153149Y2603139D03*
G01*
X1053149Y2603139D03*
G01*
X953149Y2603139D03*
G01*
X853149Y2603139D03*
G01*
X753150Y2603139D03*
G01*
X653150Y2603139D03*
D11*
G01*
X553145Y2603143D03*
D10*
G01*
X1453149Y2003139D03*
G01*
X1353149Y2003139D03*
G01*
X1253149Y2003139D03*
G01*
X1153149Y2003139D03*
G01*
X1053149Y2003139D03*
G01*
X953149Y2003139D03*
G01*
X853149Y2003139D03*
G01*
X753150Y2003139D03*
G01*
X653150Y2003139D03*
D11*
G01*
X553145Y2003143D03*
D10*
G01*
X3453140Y2603139D03*
G01*
X3353140Y2603139D03*
G01*
X3253140Y2603139D03*
G01*
X3153140Y2603139D03*
G01*
X3053140Y2603139D03*
G01*
X2953140Y2603139D03*
G01*
X2853140Y2603139D03*
G01*
X2753140Y2603139D03*
G01*
X2653140Y2603139D03*
D11*
G01*
X2553142Y2603143D03*
D10*
G01*
X3453140Y2003139D03*
G01*
X3353140Y2003139D03*
G01*
X3253140Y2003139D03*
G01*
X3153140Y2003139D03*
G01*
X3053140Y2003139D03*
G01*
X2953140Y2003139D03*
G01*
X2853140Y2003139D03*
G01*
X2753140Y2003139D03*
G01*
X2653140Y2003139D03*
D11*
G01*
X2553142Y2003143D03*
D10*
G01*
X1453149Y703150D03*
G01*
X1353149Y703150D03*
G01*
X1253149Y703150D03*
G01*
X1153149Y703150D03*
G01*
X1053149Y703150D03*
G01*
X953149Y703150D03*
G01*
X853149Y703150D03*
G01*
X753150Y703150D03*
G01*
X653150Y703150D03*
D11*
G01*
X553145Y703146D03*
D10*
G01*
X1453149Y203150D03*
G01*
X1353149Y203150D03*
G01*
X1253149Y203150D03*
G01*
X1153149Y203150D03*
G01*
X1053149Y203150D03*
G01*
X953149Y203150D03*
G01*
X853149Y203150D03*
G01*
X753150Y203150D03*
G01*
X653150Y203150D03*
D11*
G01*
X553145Y203148D03*
D10*
G01*
X2453140Y703150D03*
G01*
X2353140Y703150D03*
G01*
X2253140Y703150D03*
G01*
X2153140Y703150D03*
G01*
X2053140Y703150D03*
G01*
X1953140Y703150D03*
G01*
X1853140Y703150D03*
G01*
X1753140Y703150D03*
G01*
X1653140Y703150D03*
D11*
G01*
X1553143Y703146D03*
D10*
G01*
X2453140Y203150D03*
G01*
X2353140Y203150D03*
G01*
X2253140Y203150D03*
G01*
X2153140Y203150D03*
G01*
X2053140Y203150D03*
G01*
X1953140Y203150D03*
G01*
X1853140Y203150D03*
G01*
X1753140Y203150D03*
G01*
X1653140Y203150D03*
D11*
G01*
X1553143Y203148D03*
D10*
G01*
X3453140Y703150D03*
G01*
X3353140Y703150D03*
G01*
X3253140Y703150D03*
G01*
X3153140Y703150D03*
G01*
X3053140Y703150D03*
G01*
X2953140Y703150D03*
G01*
X2853140Y703150D03*
G01*
X2753140Y703150D03*
G01*
X2653140Y703150D03*
D11*
G01*
X2553142Y703146D03*
D10*
G01*
X3453140Y203150D03*
G01*
X3353140Y203150D03*
G01*
X3253140Y203150D03*
G01*
X3153140Y203150D03*
G01*
X3053140Y203150D03*
G01*
X2953140Y203150D03*
G01*
X2853140Y203150D03*
G01*
X2753140Y203150D03*
G01*
X2653140Y203150D03*
D11*
G01*
X2553142Y203148D03*
D16*
G01*
X553146Y486106D03*
D17*
G01*
X553146Y520187D03*
D16*
G01*
X653146Y486106D03*
D17*
G01*
X653146Y520187D03*
D16*
G01*
X753146Y486106D03*
D17*
G01*
X753146Y520187D03*
D16*
G01*
X853145Y486106D03*
D17*
G01*
X853145Y520187D03*
D16*
G01*
X953145Y486106D03*
D17*
G01*
X953145Y520187D03*
D16*
G01*
X1053145Y486106D03*
D17*
G01*
X1053145Y520187D03*
D16*
G01*
X1153145Y486106D03*
D17*
G01*
X1153145Y520187D03*
D16*
G01*
X1253145Y486106D03*
D17*
G01*
X1253145Y520187D03*
D16*
G01*
X1353144Y486106D03*
D17*
G01*
X1353144Y520187D03*
D16*
G01*
X1453144Y486106D03*
D17*
G01*
X1453144Y520187D03*
D16*
G01*
X1553144Y486106D03*
D17*
G01*
X1553144Y520187D03*
D16*
G01*
X1653144Y486106D03*
D17*
G01*
X1653144Y520187D03*
D16*
G01*
X1753144Y486106D03*
D17*
G01*
X1753144Y520187D03*
D16*
G01*
X1853144Y486106D03*
D17*
G01*
X1853144Y520187D03*
D16*
G01*
X1953144Y486106D03*
D17*
G01*
X1953144Y520187D03*
D16*
G01*
X2053144Y486106D03*
D17*
G01*
X2053144Y520187D03*
D16*
G01*
X2153144Y486106D03*
D17*
G01*
X2153144Y520187D03*
D16*
G01*
X2253144Y486106D03*
D17*
G01*
X2253144Y520187D03*
D16*
G01*
X2353143Y486106D03*
D17*
G01*
X2353143Y520187D03*
D16*
G01*
X2453143Y486106D03*
D17*
G01*
X2453143Y520187D03*
D16*
G01*
X2553143Y486106D03*
D17*
G01*
X2553143Y520187D03*
D16*
G01*
X2653143Y486106D03*
D17*
G01*
X2653143Y520187D03*
D16*
G01*
X2753143Y486106D03*
D17*
G01*
X2753143Y520187D03*
D16*
G01*
X2853141Y486106D03*
D17*
G01*
X2853141Y520187D03*
D16*
G01*
X2953141Y486106D03*
D17*
G01*
X2953141Y520187D03*
D16*
G01*
X3053141Y486106D03*
D17*
G01*
X3053141Y520187D03*
D16*
G01*
X3153141Y486106D03*
D17*
G01*
X3153141Y520187D03*
D16*
G01*
X3253141Y486106D03*
D17*
G01*
X3253141Y520187D03*
D16*
G01*
X3353141Y486106D03*
D17*
G01*
X3353141Y520187D03*
D16*
G01*
X3453141Y486106D03*
D17*
G01*
X3453141Y520187D03*
D18*
G01*
X550000Y3291775D03*
D19*
G01*
X550000Y3408213D03*
D18*
G01*
X650000Y3291775D03*
D19*
G01*
X650000Y3408213D03*
D18*
G01*
X749998Y3291775D03*
D19*
G01*
X749998Y3408213D03*
D18*
G01*
X849998Y3291775D03*
D19*
G01*
X849998Y3408213D03*
D18*
G01*
X949998Y3291775D03*
D19*
G01*
X949998Y3408213D03*
D18*
G01*
X1049998Y3291775D03*
D19*
G01*
X1049998Y3408213D03*
D18*
G01*
X1149998Y3291775D03*
D19*
G01*
X1149998Y3408213D03*
D18*
G01*
X1249998Y3291775D03*
D19*
G01*
X1249998Y3408213D03*
D18*
G01*
X1349992Y3291767D03*
D19*
G01*
X1349992Y3408206D03*
D18*
G01*
X1449992Y3291767D03*
D19*
G01*
X1449992Y3408206D03*
D10*
G01*
X1450000Y3599989D03*
G01*
X1350000Y3599989D03*
G01*
X1250000Y3599989D03*
G01*
X1150000Y3599989D03*
G01*
X1050000Y3599989D03*
G01*
X950000Y3599989D03*
G01*
X850000Y3599989D03*
G01*
X750000Y3599989D03*
G01*
X650000Y3599989D03*
D11*
G01*
X549998Y3599992D03*
D10*
G01*
X1450000Y2999989D03*
G01*
X1350000Y2999989D03*
G01*
X1250000Y2999989D03*
G01*
X1150000Y2999989D03*
G01*
X1050000Y2999989D03*
G01*
X950000Y2999989D03*
G01*
X850000Y2999989D03*
G01*
X750000Y2999989D03*
G01*
X650000Y2999989D03*
D11*
G01*
X549998Y2999993D03*
D10*
G01*
X2450000Y3599989D03*
G01*
X2350000Y3599989D03*
G01*
X2250000Y3599989D03*
G01*
X2150000Y3599989D03*
G01*
X2050000Y3599989D03*
G01*
X1950000Y3599989D03*
G01*
X1850000Y3599989D03*
G01*
X1750000Y3599989D03*
G01*
X1650000Y3599989D03*
D11*
G01*
X1549995Y3599992D03*
D10*
G01*
X2450000Y2999989D03*
G01*
X2350000Y2999989D03*
G01*
X2250000Y2999989D03*
G01*
X2150000Y2999989D03*
G01*
X2050000Y2999989D03*
G01*
X1950000Y2999989D03*
G01*
X1850000Y2999989D03*
G01*
X1750000Y2999989D03*
G01*
X1650000Y2999989D03*
D11*
G01*
X1549995Y2999993D03*
D10*
G01*
X3449989Y3599989D03*
G01*
X3349989Y3599989D03*
G01*
X3249989Y3599989D03*
G01*
X3149989Y3599989D03*
G01*
X3049989Y3599989D03*
G01*
X2949989Y3599989D03*
G01*
X2849989Y3599989D03*
G01*
X2749989Y3599989D03*
G01*
X2649989Y3599989D03*
D11*
G01*
X2549994Y3599992D03*
D10*
G01*
X3449989Y2999989D03*
G01*
X3349989Y2999989D03*
G01*
X3249989Y2999989D03*
G01*
X3149989Y2999989D03*
G01*
X3049989Y2999989D03*
G01*
X2949989Y2999989D03*
G01*
X2849989Y2999989D03*
G01*
X2749989Y2999989D03*
G01*
X2649989Y2999989D03*
D11*
G01*
X2549994Y2999993D03*
D18*
G01*
X1549994Y3291775D03*
D19*
G01*
X1549994Y3408213D03*
D18*
G01*
X1649994Y3291775D03*
D19*
G01*
X1649994Y3408213D03*
D18*
G01*
X1749994Y3291775D03*
D19*
G01*
X1749994Y3408213D03*
D18*
G01*
X1849994Y3291775D03*
D19*
G01*
X1849994Y3408213D03*
D18*
G01*
X1949994Y3291775D03*
D19*
G01*
X1949994Y3408213D03*
D18*
G01*
X2049994Y3291775D03*
D19*
G01*
X2049994Y3408213D03*
D18*
G01*
X2149994Y3291775D03*
D19*
G01*
X2149994Y3408213D03*
D18*
G01*
X2249994Y3291775D03*
D19*
G01*
X2249994Y3408213D03*
D18*
G01*
X2349994Y3291775D03*
D19*
G01*
X2349994Y3408213D03*
D18*
G01*
X2449992Y3291775D03*
D19*
G01*
X2449992Y3408213D03*
D18*
G01*
X2549992Y3291775D03*
D19*
G01*
X2549992Y3408213D03*
D18*
G01*
X2649992Y3291775D03*
D19*
G01*
X2649992Y3408213D03*
D18*
G01*
X2749992Y3291775D03*
D19*
G01*
X2749992Y3408213D03*
D18*
G01*
X2849992Y3291775D03*
D19*
G01*
X2849992Y3408213D03*
D18*
G01*
X2949992Y3291775D03*
D19*
G01*
X2949992Y3408213D03*
D18*
G01*
X3049992Y3291775D03*
D19*
G01*
X3049992Y3408213D03*
D18*
G01*
X3149992Y3291775D03*
D19*
G01*
X3149992Y3408213D03*
D18*
G01*
X3249992Y3291775D03*
D19*
G01*
X3249992Y3408213D03*
D18*
G01*
X3349992Y3291775D03*
D19*
G01*
X3349992Y3408213D03*
D18*
G01*
X3449992Y3291775D03*
D19*
G01*
X3449992Y3408213D03*
M02*
