G04 Layer: TopSilkscreenLayer*
G04 EasyEDA v6.5.22, 2023-04-04 18:07:08*
G04 a67cddfb3fce44daa9051d46cbbcc19f,10*
G04 Gerber Generator version 0.2*
G04 Scale: 100 percent, Rotated: No, Reflected: No *
G04 Dimensions in inches *
G04 leading zeros omitted , absolute positions ,3 integer and 6 decimal *
%FSLAX36Y36*%
%MOIN*%

%ADD10C,0.0118*%
%ADD11C,0.0060*%
%ADD12C,0.0080*%
%ADD13C,0.0080*%
%ADD14C,0.0100*%
%ADD15C,0.0199*%

%LPD*%
D10*
X322350Y1520943D02*
G01*
X316950Y1537044D01*
X300850Y1547743D01*
X274050Y1553144D01*
X257950Y1553144D01*
X231050Y1547743D01*
X214949Y1537044D01*
X209549Y1520943D01*
X209549Y1510243D01*
X214949Y1494043D01*
X231050Y1483344D01*
X257950Y1477944D01*
X274050Y1477944D01*
X300850Y1483344D01*
X316950Y1494043D01*
X322350Y1510243D01*
X322350Y1520943D01*
X306250Y1378144D02*
G01*
X316950Y1383544D01*
X322350Y1399643D01*
X322350Y1410344D01*
X316950Y1426444D01*
X300850Y1437143D01*
X274050Y1442543D01*
X247150Y1442543D01*
X225650Y1437143D01*
X214949Y1426444D01*
X209549Y1410344D01*
X209549Y1404944D01*
X214949Y1388843D01*
X225650Y1378144D01*
X241849Y1372743D01*
X247150Y1372743D01*
X263249Y1378144D01*
X274050Y1388843D01*
X279349Y1404944D01*
X279349Y1410344D01*
X274050Y1426444D01*
X263249Y1437143D01*
X247150Y1442543D01*
X322350Y1305144D02*
G01*
X316950Y1321244D01*
X300850Y1331943D01*
X274050Y1337343D01*
X257950Y1337343D01*
X231050Y1331943D01*
X214949Y1321244D01*
X209549Y1305144D01*
X209549Y1294344D01*
X214949Y1278243D01*
X231050Y1267543D01*
X257950Y1262143D01*
X274050Y1262143D01*
X300850Y1267543D01*
X316950Y1278243D01*
X322350Y1294344D01*
X322350Y1305144D01*
X322350Y1216044D02*
G01*
X322350Y1156943D01*
X279349Y1189144D01*
X279349Y1173043D01*
X274050Y1162343D01*
X268649Y1156943D01*
X252550Y1151543D01*
X241849Y1151543D01*
X225650Y1156943D01*
X214949Y1167644D01*
X209549Y1183744D01*
X209549Y1199843D01*
X214949Y1216044D01*
X220349Y1221343D01*
X231050Y1226743D01*
X3633939Y1185347D02*
G01*
X3639339Y1169247D01*
X3655439Y1158546D01*
X3682238Y1153146D01*
X3698341Y1153146D01*
X3725239Y1158546D01*
X3741340Y1169247D01*
X3746740Y1185347D01*
X3746740Y1196046D01*
X3741340Y1212247D01*
X3725239Y1222946D01*
X3698341Y1228346D01*
X3682238Y1228346D01*
X3655439Y1222946D01*
X3639339Y1212247D01*
X3633939Y1196046D01*
X3633939Y1185347D01*
X3650039Y1328146D02*
G01*
X3639339Y1322746D01*
X3633939Y1306646D01*
X3633939Y1295947D01*
X3639339Y1279846D01*
X3655439Y1269146D01*
X3682238Y1263746D01*
X3709138Y1263746D01*
X3730639Y1269146D01*
X3741340Y1279846D01*
X3746740Y1295947D01*
X3746740Y1301347D01*
X3741340Y1317447D01*
X3730639Y1328146D01*
X3714439Y1333546D01*
X3709138Y1333546D01*
X3693038Y1328146D01*
X3682238Y1317447D01*
X3676939Y1301347D01*
X3676939Y1295947D01*
X3682238Y1279846D01*
X3693038Y1269146D01*
X3709138Y1263746D01*
X3633939Y1401147D02*
G01*
X3639339Y1385046D01*
X3655439Y1374346D01*
X3682238Y1368946D01*
X3698341Y1368946D01*
X3725239Y1374346D01*
X3741340Y1385046D01*
X3746740Y1401147D01*
X3746740Y1411947D01*
X3741340Y1428047D01*
X3725239Y1438746D01*
X3698341Y1444146D01*
X3682238Y1444146D01*
X3655439Y1438746D01*
X3639339Y1428047D01*
X3633939Y1411947D01*
X3633939Y1401147D01*
X3633939Y1490246D02*
G01*
X3633939Y1549346D01*
X3676939Y1517147D01*
X3676939Y1533247D01*
X3682238Y1543946D01*
X3687638Y1549346D01*
X3703741Y1554747D01*
X3714439Y1554747D01*
X3730639Y1549346D01*
X3741340Y1538647D01*
X3746740Y1522546D01*
X3746740Y1506446D01*
X3741340Y1490246D01*
X3735940Y1484947D01*
X3725239Y1479546D01*
X3633924Y360351D02*
G01*
X3639324Y344252D01*
X3655424Y333551D01*
X3682325Y328152D01*
X3698424Y328152D01*
X3725225Y333551D01*
X3741324Y344252D01*
X3746724Y360351D01*
X3746724Y371051D01*
X3741324Y387251D01*
X3725225Y397952D01*
X3698424Y403351D01*
X3682325Y403351D01*
X3655424Y397952D01*
X3639324Y387251D01*
X3633924Y371051D01*
X3633924Y360351D01*
X3633924Y492451D02*
G01*
X3709125Y438751D01*
X3709125Y519252D01*
X3633924Y492451D02*
G01*
X3746724Y492451D01*
X3633924Y586952D02*
G01*
X3639324Y570851D01*
X3655424Y560052D01*
X3682325Y554751D01*
X3698424Y554751D01*
X3725225Y560052D01*
X3741324Y570851D01*
X3746724Y586952D01*
X3746724Y597651D01*
X3741324Y613751D01*
X3725225Y624452D01*
X3698424Y629852D01*
X3682325Y629852D01*
X3655424Y624452D01*
X3639324Y613751D01*
X3633924Y597651D01*
X3633924Y586952D01*
X3660825Y670652D02*
G01*
X3655424Y670652D01*
X3644724Y676051D01*
X3639324Y681451D01*
X3633924Y692152D01*
X3633924Y713652D01*
X3639324Y724351D01*
X3644724Y729751D01*
X3655424Y735052D01*
X3666125Y735052D01*
X3676925Y729751D01*
X3693024Y718951D01*
X3746724Y665252D01*
X3746724Y740452D01*
X322363Y695947D02*
G01*
X316963Y712046D01*
X300864Y722746D01*
X273964Y728146D01*
X257863Y728146D01*
X231064Y722746D01*
X214963Y712046D01*
X209564Y695947D01*
X209564Y685147D01*
X214963Y669047D01*
X231064Y658346D01*
X257863Y652946D01*
X273964Y652946D01*
X300864Y658346D01*
X316963Y669047D01*
X322363Y685147D01*
X322363Y695947D01*
X322363Y563847D02*
G01*
X247163Y617546D01*
X247163Y537046D01*
X322363Y563847D02*
G01*
X209564Y563847D01*
X322363Y469346D02*
G01*
X316963Y485446D01*
X300864Y496246D01*
X273964Y501547D01*
X257863Y501547D01*
X231064Y496246D01*
X214963Y485446D01*
X209564Y469346D01*
X209564Y458647D01*
X214963Y442546D01*
X231064Y431846D01*
X257863Y426446D01*
X273964Y426446D01*
X300864Y431846D01*
X316963Y442546D01*
X322363Y458647D01*
X322363Y469346D01*
X295464Y385646D02*
G01*
X300864Y385646D01*
X311563Y380246D01*
X316963Y374846D01*
X322363Y364146D01*
X322363Y342647D01*
X316963Y331947D01*
X311563Y326547D01*
X300864Y321246D01*
X290163Y321246D01*
X279364Y326547D01*
X263263Y337346D01*
X209564Y390947D01*
X209564Y315846D01*
X3633940Y2185345D02*
G01*
X3639340Y2169245D01*
X3655439Y2158546D01*
X3682240Y2153146D01*
X3698339Y2153146D01*
X3725240Y2158546D01*
X3741340Y2169245D01*
X3746740Y2185345D01*
X3746740Y2196046D01*
X3741340Y2212246D01*
X3725240Y2222946D01*
X3698339Y2228346D01*
X3682240Y2228346D01*
X3655439Y2222946D01*
X3639340Y2212246D01*
X3633940Y2196046D01*
X3633940Y2185345D01*
X3633940Y2290545D02*
G01*
X3639340Y2274445D01*
X3650039Y2269146D01*
X3660839Y2269146D01*
X3671540Y2274445D01*
X3676940Y2285246D01*
X3682240Y2306646D01*
X3687640Y2322746D01*
X3698339Y2333546D01*
X3709139Y2338946D01*
X3725240Y2338946D01*
X3735940Y2333546D01*
X3741340Y2328146D01*
X3746740Y2312046D01*
X3746740Y2290545D01*
X3741340Y2274445D01*
X3735940Y2269146D01*
X3725240Y2263746D01*
X3709139Y2263746D01*
X3698339Y2269146D01*
X3687640Y2279845D01*
X3682240Y2295945D01*
X3676940Y2317446D01*
X3671540Y2328146D01*
X3660839Y2333546D01*
X3650039Y2333546D01*
X3639340Y2328146D01*
X3633940Y2312046D01*
X3633940Y2290545D01*
X3633940Y2406545D02*
G01*
X3639340Y2390446D01*
X3655439Y2379746D01*
X3682240Y2374346D01*
X3698339Y2374346D01*
X3725240Y2379746D01*
X3741340Y2390446D01*
X3746740Y2406545D01*
X3746740Y2417246D01*
X3741340Y2433346D01*
X3725240Y2444146D01*
X3698339Y2449445D01*
X3682240Y2449445D01*
X3655439Y2444146D01*
X3639340Y2433346D01*
X3633940Y2417246D01*
X3633940Y2406545D01*
X3633940Y2549346D02*
G01*
X3633940Y2495646D01*
X3682240Y2490246D01*
X3676940Y2495646D01*
X3671540Y2511745D01*
X3671540Y2527845D01*
X3676940Y2543946D01*
X3687640Y2554746D01*
X3703739Y2560046D01*
X3714539Y2560046D01*
X3730640Y2554746D01*
X3741340Y2543946D01*
X3746740Y2527845D01*
X3746740Y2511745D01*
X3741340Y2495646D01*
X3735940Y2490246D01*
X3725240Y2484946D01*
X322359Y2520947D02*
G01*
X316959Y2537048D01*
X300859Y2547748D01*
X274059Y2553148D01*
X257959Y2553148D01*
X231060Y2547748D01*
X214960Y2537048D01*
X209560Y2520947D01*
X209560Y2510147D01*
X214960Y2494047D01*
X231060Y2483348D01*
X257959Y2477948D01*
X274059Y2477948D01*
X300859Y2483348D01*
X316959Y2494047D01*
X322359Y2510147D01*
X322359Y2520947D01*
X322359Y2415747D02*
G01*
X316959Y2431848D01*
X306260Y2437148D01*
X295459Y2437148D01*
X284760Y2431848D01*
X279360Y2421048D01*
X274059Y2399648D01*
X268659Y2383447D01*
X257959Y2372748D01*
X247159Y2367348D01*
X231060Y2367348D01*
X220360Y2372748D01*
X214960Y2378148D01*
X209560Y2394247D01*
X209560Y2415747D01*
X214960Y2431848D01*
X220360Y2437148D01*
X231060Y2442548D01*
X247159Y2442548D01*
X257959Y2437148D01*
X268659Y2426448D01*
X274059Y2410347D01*
X279360Y2388847D01*
X284760Y2378148D01*
X295459Y2372748D01*
X306260Y2372748D01*
X316959Y2378148D01*
X322359Y2394247D01*
X322359Y2415747D01*
X322359Y2299747D02*
G01*
X316959Y2315848D01*
X300859Y2326547D01*
X274059Y2331948D01*
X257959Y2331948D01*
X231060Y2326547D01*
X214960Y2315848D01*
X209560Y2299747D01*
X209560Y2289047D01*
X214960Y2272948D01*
X231060Y2262148D01*
X257959Y2256747D01*
X274059Y2256747D01*
X300859Y2262148D01*
X316959Y2272948D01*
X322359Y2289047D01*
X322359Y2299747D01*
X322359Y2156948D02*
G01*
X322359Y2210648D01*
X274059Y2215947D01*
X279360Y2210648D01*
X284760Y2194548D01*
X284760Y2178447D01*
X279360Y2162348D01*
X268659Y2151547D01*
X252559Y2146248D01*
X241759Y2146248D01*
X225659Y2151547D01*
X214960Y2162348D01*
X209560Y2178447D01*
X209560Y2194548D01*
X214960Y2210648D01*
X220360Y2215947D01*
X231060Y2221347D01*
X3652289Y3099998D02*
G01*
X3646889Y3110698D01*
X3630789Y3126799D01*
X3743589Y3126799D01*
X3657689Y3167599D02*
G01*
X3652289Y3167599D01*
X3641589Y3172999D01*
X3636189Y3178398D01*
X3630789Y3189099D01*
X3630789Y3210599D01*
X3636189Y3221298D01*
X3641589Y3226698D01*
X3652289Y3232098D01*
X3662988Y3232098D01*
X3673788Y3226698D01*
X3689889Y3215999D01*
X3743589Y3162298D01*
X3743589Y3237399D01*
X3630789Y3305099D02*
G01*
X3636189Y3288998D01*
X3652289Y3278198D01*
X3679089Y3272899D01*
X3695189Y3272899D01*
X3722088Y3278198D01*
X3738189Y3288998D01*
X3743589Y3305099D01*
X3743589Y3315799D01*
X3738189Y3331898D01*
X3722088Y3342698D01*
X3695189Y3347999D01*
X3679089Y3347999D01*
X3652289Y3342698D01*
X3636189Y3331898D01*
X3630789Y3315799D01*
X3630789Y3305099D01*
X3646889Y3447899D02*
G01*
X3636189Y3442498D01*
X3630789Y3426399D01*
X3630789Y3415698D01*
X3636189Y3399598D01*
X3652289Y3388798D01*
X3679089Y3383499D01*
X3705988Y3383499D01*
X3727488Y3388798D01*
X3738189Y3399598D01*
X3743589Y3415698D01*
X3743589Y3420999D01*
X3738189Y3437098D01*
X3727488Y3447899D01*
X3711388Y3453299D01*
X3705988Y3453299D01*
X3689889Y3447899D01*
X3679089Y3437098D01*
X3673788Y3420999D01*
X3673788Y3415698D01*
X3679089Y3399598D01*
X3689889Y3388798D01*
X3705988Y3383499D01*
X297705Y3499992D02*
G01*
X303105Y3489292D01*
X319205Y3473191D01*
X206406Y3473191D01*
X292305Y3432392D02*
G01*
X297705Y3432392D01*
X308405Y3426992D01*
X313805Y3421592D01*
X319205Y3410891D01*
X319205Y3389391D01*
X313805Y3378692D01*
X308405Y3373292D01*
X297705Y3367892D01*
X287006Y3367892D01*
X276206Y3373292D01*
X260106Y3383991D01*
X206406Y3437692D01*
X206406Y3362591D01*
X319205Y3294892D02*
G01*
X313805Y3310992D01*
X297705Y3321792D01*
X270905Y3327091D01*
X254805Y3327091D01*
X227905Y3321792D01*
X211806Y3310992D01*
X206406Y3294892D01*
X206406Y3284191D01*
X211806Y3268092D01*
X227905Y3257292D01*
X254805Y3251992D01*
X270905Y3251992D01*
X297705Y3257292D01*
X313805Y3268092D01*
X319205Y3284191D01*
X319205Y3294892D01*
X303105Y3152091D02*
G01*
X313805Y3157492D01*
X319205Y3173591D01*
X319205Y3184292D01*
X313805Y3200392D01*
X297705Y3211192D01*
X270905Y3216491D01*
X244005Y3216491D01*
X222505Y3211192D01*
X211806Y3200392D01*
X206406Y3184292D01*
X206406Y3178991D01*
X211806Y3162892D01*
X222505Y3152091D01*
X238605Y3146691D01*
X244005Y3146691D01*
X260106Y3152091D01*
X270905Y3162892D01*
X276206Y3178991D01*
X276206Y3184292D01*
X270905Y3200392D01*
X260106Y3211192D01*
X244005Y3216491D01*
D11*
X572168Y2261804D02*
G01*
X529268Y2261804D01*
X572168Y2261804D02*
G01*
X572168Y2243404D01*
X570169Y2237305D01*
X568069Y2235205D01*
X563969Y2233204D01*
X559868Y2233204D01*
X555769Y2235205D01*
X553769Y2237305D01*
X551768Y2243404D01*
X551768Y2261804D01*
X551768Y2247505D02*
G01*
X529268Y2233204D01*
X572168Y2215605D02*
G01*
X572168Y2193105D01*
X555769Y2205304D01*
X555769Y2199205D01*
X553769Y2195104D01*
X551768Y2193105D01*
X545569Y2191005D01*
X541469Y2191005D01*
X535369Y2193105D01*
X531269Y2197204D01*
X529268Y2203305D01*
X529268Y2209405D01*
X531269Y2215605D01*
X533269Y2217604D01*
X537368Y2219704D01*
X563969Y2177505D02*
G01*
X566069Y2173404D01*
X572168Y2167305D01*
X529268Y2167305D01*
X672168Y2261804D02*
G01*
X629268Y2261804D01*
X672168Y2261804D02*
G01*
X672168Y2243404D01*
X670169Y2237305D01*
X668069Y2235205D01*
X663969Y2233204D01*
X659868Y2233204D01*
X655769Y2235205D01*
X653769Y2237305D01*
X651768Y2243404D01*
X651768Y2261804D01*
X651768Y2247505D02*
G01*
X629268Y2233204D01*
X672168Y2215605D02*
G01*
X672168Y2193105D01*
X655769Y2205304D01*
X655769Y2199205D01*
X653769Y2195104D01*
X651768Y2193105D01*
X645569Y2191005D01*
X641469Y2191005D01*
X635369Y2193105D01*
X631269Y2197204D01*
X629268Y2203305D01*
X629268Y2209405D01*
X631269Y2215605D01*
X633269Y2217604D01*
X637368Y2219704D01*
X661968Y2175504D02*
G01*
X663969Y2175504D01*
X668069Y2173404D01*
X670169Y2171404D01*
X672168Y2167305D01*
X672168Y2159104D01*
X670169Y2155005D01*
X668069Y2153004D01*
X663969Y2150904D01*
X659868Y2150904D01*
X655769Y2153004D01*
X649668Y2157105D01*
X629268Y2177505D01*
X629268Y2148904D01*
X772169Y2261804D02*
G01*
X729268Y2261804D01*
X772169Y2261804D02*
G01*
X772169Y2243404D01*
X770168Y2237305D01*
X768068Y2235205D01*
X763968Y2233204D01*
X759868Y2233204D01*
X755769Y2235205D01*
X753769Y2237305D01*
X751768Y2243404D01*
X751768Y2261804D01*
X751768Y2247505D02*
G01*
X729268Y2233204D01*
X772169Y2215605D02*
G01*
X772169Y2193105D01*
X755769Y2205304D01*
X755769Y2199205D01*
X753769Y2195104D01*
X751768Y2193105D01*
X745569Y2191005D01*
X741469Y2191005D01*
X735369Y2193105D01*
X731269Y2197204D01*
X729268Y2203305D01*
X729268Y2209405D01*
X731269Y2215605D01*
X733269Y2217604D01*
X737368Y2219704D01*
X772169Y2173404D02*
G01*
X772169Y2150904D01*
X755769Y2163204D01*
X755769Y2157105D01*
X753769Y2153004D01*
X751768Y2150904D01*
X745569Y2148904D01*
X741469Y2148904D01*
X735369Y2150904D01*
X731269Y2155005D01*
X729268Y2161205D01*
X729268Y2167305D01*
X731269Y2173404D01*
X733269Y2175504D01*
X737368Y2177505D01*
X872168Y2261804D02*
G01*
X829268Y2261804D01*
X872168Y2261804D02*
G01*
X872168Y2243404D01*
X870168Y2237305D01*
X868068Y2235205D01*
X863968Y2233204D01*
X859867Y2233204D01*
X855767Y2235205D01*
X853768Y2237305D01*
X851768Y2243404D01*
X851768Y2261804D01*
X851768Y2247505D02*
G01*
X829268Y2233204D01*
X872168Y2215605D02*
G01*
X872168Y2193105D01*
X855767Y2205304D01*
X855767Y2199205D01*
X853768Y2195104D01*
X851768Y2193105D01*
X845568Y2191005D01*
X841468Y2191005D01*
X835367Y2193105D01*
X831268Y2197204D01*
X829268Y2203305D01*
X829268Y2209405D01*
X831268Y2215605D01*
X833267Y2217604D01*
X837367Y2219704D01*
X872168Y2157105D02*
G01*
X843567Y2177505D01*
X843567Y2146804D01*
X872168Y2157105D02*
G01*
X829268Y2157105D01*
X972168Y2261804D02*
G01*
X929268Y2261804D01*
X972168Y2261804D02*
G01*
X972168Y2243404D01*
X970168Y2237305D01*
X968068Y2235205D01*
X963968Y2233204D01*
X959867Y2233204D01*
X955767Y2235205D01*
X953768Y2237305D01*
X951768Y2243404D01*
X951768Y2261804D01*
X951768Y2247505D02*
G01*
X929268Y2233204D01*
X972168Y2215605D02*
G01*
X972168Y2193105D01*
X955767Y2205304D01*
X955767Y2199205D01*
X953768Y2195104D01*
X951768Y2193105D01*
X945568Y2191005D01*
X941468Y2191005D01*
X935367Y2193105D01*
X931268Y2197204D01*
X929268Y2203305D01*
X929268Y2209405D01*
X931268Y2215605D01*
X933267Y2217604D01*
X937367Y2219704D01*
X972168Y2153004D02*
G01*
X972168Y2173404D01*
X953768Y2175504D01*
X955767Y2173404D01*
X957867Y2167305D01*
X957867Y2161205D01*
X955767Y2155005D01*
X951768Y2150904D01*
X945568Y2148904D01*
X941468Y2148904D01*
X935367Y2150904D01*
X931268Y2155005D01*
X929268Y2161205D01*
X929268Y2167305D01*
X931268Y2173404D01*
X933267Y2175504D01*
X937367Y2177505D01*
X1072168Y2261804D02*
G01*
X1029268Y2261804D01*
X1072168Y2261804D02*
G01*
X1072168Y2243404D01*
X1070168Y2237305D01*
X1068068Y2235205D01*
X1063968Y2233204D01*
X1059867Y2233204D01*
X1055767Y2235205D01*
X1053768Y2237305D01*
X1051768Y2243404D01*
X1051768Y2261804D01*
X1051768Y2247505D02*
G01*
X1029268Y2233204D01*
X1072168Y2215605D02*
G01*
X1072168Y2193105D01*
X1055767Y2205304D01*
X1055767Y2199205D01*
X1053768Y2195104D01*
X1051768Y2193105D01*
X1045568Y2191005D01*
X1041468Y2191005D01*
X1035367Y2193105D01*
X1031268Y2197204D01*
X1029268Y2203305D01*
X1029268Y2209405D01*
X1031268Y2215605D01*
X1033267Y2217604D01*
X1037367Y2219704D01*
X1066067Y2153004D02*
G01*
X1070168Y2155005D01*
X1072168Y2161205D01*
X1072168Y2165304D01*
X1070168Y2171404D01*
X1063968Y2175504D01*
X1053768Y2177505D01*
X1043567Y2177505D01*
X1035367Y2175504D01*
X1031268Y2171404D01*
X1029268Y2165304D01*
X1029268Y2163204D01*
X1031268Y2157105D01*
X1035367Y2153004D01*
X1041468Y2150904D01*
X1043567Y2150904D01*
X1049668Y2153004D01*
X1053768Y2157105D01*
X1055767Y2163204D01*
X1055767Y2165304D01*
X1053768Y2171404D01*
X1049668Y2175504D01*
X1043567Y2177505D01*
X1172168Y2261804D02*
G01*
X1129268Y2261804D01*
X1172168Y2261804D02*
G01*
X1172168Y2243404D01*
X1170168Y2237305D01*
X1168068Y2235205D01*
X1163968Y2233204D01*
X1159867Y2233204D01*
X1155767Y2235205D01*
X1153768Y2237305D01*
X1151768Y2243404D01*
X1151768Y2261804D01*
X1151768Y2247505D02*
G01*
X1129268Y2233204D01*
X1172168Y2215605D02*
G01*
X1172168Y2193105D01*
X1155767Y2205304D01*
X1155767Y2199205D01*
X1153768Y2195104D01*
X1151768Y2193105D01*
X1145568Y2191005D01*
X1141468Y2191005D01*
X1135367Y2193105D01*
X1131268Y2197204D01*
X1129268Y2203305D01*
X1129268Y2209405D01*
X1131268Y2215605D01*
X1133267Y2217604D01*
X1137367Y2219704D01*
X1172168Y2148904D02*
G01*
X1129268Y2169304D01*
X1172168Y2177505D02*
G01*
X1172168Y2148904D01*
X1272168Y2261804D02*
G01*
X1229268Y2261804D01*
X1272168Y2261804D02*
G01*
X1272168Y2243404D01*
X1270168Y2237305D01*
X1268068Y2235205D01*
X1263968Y2233204D01*
X1259867Y2233204D01*
X1255767Y2235205D01*
X1253768Y2237305D01*
X1251768Y2243404D01*
X1251768Y2261804D01*
X1251768Y2247505D02*
G01*
X1229268Y2233204D01*
X1272168Y2215605D02*
G01*
X1272168Y2193105D01*
X1255767Y2205304D01*
X1255767Y2199205D01*
X1253768Y2195104D01*
X1251768Y2193105D01*
X1245568Y2191005D01*
X1241468Y2191005D01*
X1235367Y2193105D01*
X1231268Y2197204D01*
X1229268Y2203305D01*
X1229268Y2209405D01*
X1231268Y2215605D01*
X1233267Y2217604D01*
X1237367Y2219704D01*
X1272168Y2167305D02*
G01*
X1270168Y2173404D01*
X1266067Y2175504D01*
X1261967Y2175504D01*
X1257867Y2173404D01*
X1255767Y2169304D01*
X1253768Y2161205D01*
X1251768Y2155005D01*
X1247668Y2150904D01*
X1243567Y2148904D01*
X1237367Y2148904D01*
X1233267Y2150904D01*
X1231268Y2153004D01*
X1229268Y2159104D01*
X1229268Y2167305D01*
X1231268Y2173404D01*
X1233267Y2175504D01*
X1237367Y2177505D01*
X1243567Y2177505D01*
X1247668Y2175504D01*
X1251768Y2171404D01*
X1253768Y2165304D01*
X1255767Y2157105D01*
X1257867Y2153004D01*
X1261967Y2150904D01*
X1266067Y2150904D01*
X1270168Y2153004D01*
X1272168Y2159104D01*
X1272168Y2167305D01*
X1372166Y2261804D02*
G01*
X1329266Y2261804D01*
X1372166Y2261804D02*
G01*
X1372166Y2243404D01*
X1370167Y2237305D01*
X1368067Y2235205D01*
X1363967Y2233204D01*
X1359867Y2233204D01*
X1355766Y2235205D01*
X1353766Y2237305D01*
X1351766Y2243404D01*
X1351766Y2261804D01*
X1351766Y2247505D02*
G01*
X1329266Y2233204D01*
X1372166Y2215605D02*
G01*
X1372166Y2193105D01*
X1355766Y2205304D01*
X1355766Y2199205D01*
X1353766Y2195104D01*
X1351766Y2193105D01*
X1345567Y2191005D01*
X1341467Y2191005D01*
X1335366Y2193105D01*
X1331266Y2197204D01*
X1329266Y2203305D01*
X1329266Y2209405D01*
X1331266Y2215605D01*
X1333266Y2217604D01*
X1337367Y2219704D01*
X1357866Y2150904D02*
G01*
X1351766Y2153004D01*
X1347667Y2157105D01*
X1345567Y2163204D01*
X1345567Y2165304D01*
X1347667Y2171404D01*
X1351766Y2175504D01*
X1357866Y2177505D01*
X1359867Y2177505D01*
X1366067Y2175504D01*
X1370167Y2171404D01*
X1372166Y2165304D01*
X1372166Y2163204D01*
X1370167Y2157105D01*
X1366067Y2153004D01*
X1357866Y2150904D01*
X1347667Y2150904D01*
X1337367Y2153004D01*
X1331266Y2157105D01*
X1329266Y2163204D01*
X1329266Y2167305D01*
X1331266Y2173404D01*
X1335366Y2175504D01*
X1472166Y2261804D02*
G01*
X1429266Y2261804D01*
X1472166Y2261804D02*
G01*
X1472166Y2243404D01*
X1470167Y2237305D01*
X1468067Y2235205D01*
X1463967Y2233204D01*
X1459867Y2233204D01*
X1455766Y2235205D01*
X1453766Y2237305D01*
X1451766Y2243404D01*
X1451766Y2261804D01*
X1451766Y2247505D02*
G01*
X1429266Y2233204D01*
X1472166Y2199205D02*
G01*
X1443567Y2219704D01*
X1443567Y2189005D01*
X1472166Y2199205D02*
G01*
X1429266Y2199205D01*
X1472166Y2163204D02*
G01*
X1470167Y2169304D01*
X1463967Y2173404D01*
X1453766Y2175504D01*
X1447667Y2175504D01*
X1437367Y2173404D01*
X1431266Y2169304D01*
X1429266Y2163204D01*
X1429266Y2159104D01*
X1431266Y2153004D01*
X1437367Y2148904D01*
X1447667Y2146804D01*
X1453766Y2146804D01*
X1463967Y2148904D01*
X1470167Y2153004D01*
X1472166Y2159104D01*
X1472166Y2163204D01*
X1572166Y2261804D02*
G01*
X1529266Y2261804D01*
X1572166Y2261804D02*
G01*
X1572166Y2243404D01*
X1570167Y2237305D01*
X1568067Y2235205D01*
X1563967Y2233204D01*
X1559867Y2233204D01*
X1555766Y2235205D01*
X1553766Y2237305D01*
X1551766Y2243404D01*
X1551766Y2261804D01*
X1551766Y2247505D02*
G01*
X1529266Y2233204D01*
X1572166Y2199205D02*
G01*
X1543567Y2219704D01*
X1543567Y2189005D01*
X1572166Y2199205D02*
G01*
X1529266Y2199205D01*
X1563967Y2175504D02*
G01*
X1566067Y2171404D01*
X1572166Y2165304D01*
X1529266Y2165304D01*
X1672166Y2261804D02*
G01*
X1629266Y2261804D01*
X1672166Y2261804D02*
G01*
X1672166Y2243404D01*
X1670167Y2237305D01*
X1668067Y2235205D01*
X1663967Y2233204D01*
X1659867Y2233204D01*
X1655766Y2235205D01*
X1653766Y2237305D01*
X1651766Y2243404D01*
X1651766Y2261804D01*
X1651766Y2247505D02*
G01*
X1629266Y2233204D01*
X1672166Y2199205D02*
G01*
X1643567Y2219704D01*
X1643567Y2189005D01*
X1672166Y2199205D02*
G01*
X1629266Y2199205D01*
X1661967Y2173404D02*
G01*
X1663967Y2173404D01*
X1668067Y2171404D01*
X1670167Y2169304D01*
X1672166Y2165304D01*
X1672166Y2157105D01*
X1670167Y2153004D01*
X1668067Y2150904D01*
X1663967Y2148904D01*
X1659867Y2148904D01*
X1655766Y2150904D01*
X1649666Y2155005D01*
X1629266Y2175504D01*
X1629266Y2146804D01*
X1772165Y2261804D02*
G01*
X1729265Y2261804D01*
X1772165Y2261804D02*
G01*
X1772165Y2243404D01*
X1770165Y2237305D01*
X1768065Y2235205D01*
X1763966Y2233204D01*
X1759866Y2233204D01*
X1755766Y2235205D01*
X1753765Y2237305D01*
X1751765Y2243404D01*
X1751765Y2261804D01*
X1751765Y2247505D02*
G01*
X1729265Y2233204D01*
X1772165Y2199205D02*
G01*
X1743566Y2219704D01*
X1743566Y2189005D01*
X1772165Y2199205D02*
G01*
X1729265Y2199205D01*
X1772165Y2171404D02*
G01*
X1772165Y2148904D01*
X1755766Y2161205D01*
X1755766Y2155005D01*
X1753765Y2150904D01*
X1751765Y2148904D01*
X1745565Y2146804D01*
X1741466Y2146804D01*
X1735366Y2148904D01*
X1731265Y2153004D01*
X1729265Y2159104D01*
X1729265Y2165304D01*
X1731265Y2171404D01*
X1733266Y2173404D01*
X1737366Y2175504D01*
X1872165Y2261804D02*
G01*
X1829265Y2261804D01*
X1872165Y2261804D02*
G01*
X1872165Y2243404D01*
X1870165Y2237305D01*
X1868065Y2235205D01*
X1863966Y2233204D01*
X1859866Y2233204D01*
X1855766Y2235205D01*
X1853765Y2237305D01*
X1851765Y2243404D01*
X1851765Y2261804D01*
X1851765Y2247505D02*
G01*
X1829265Y2233204D01*
X1872165Y2199205D02*
G01*
X1843566Y2219704D01*
X1843566Y2189005D01*
X1872165Y2199205D02*
G01*
X1829265Y2199205D01*
X1872165Y2155005D02*
G01*
X1843566Y2175504D01*
X1843566Y2144805D01*
X1872165Y2155005D02*
G01*
X1829265Y2155005D01*
X1972165Y2261804D02*
G01*
X1929265Y2261804D01*
X1972165Y2261804D02*
G01*
X1972165Y2243404D01*
X1970165Y2237305D01*
X1968065Y2235205D01*
X1963966Y2233204D01*
X1959866Y2233204D01*
X1955766Y2235205D01*
X1953765Y2237305D01*
X1951765Y2243404D01*
X1951765Y2261804D01*
X1951765Y2247505D02*
G01*
X1929265Y2233204D01*
X1972165Y2199205D02*
G01*
X1943566Y2219704D01*
X1943566Y2189005D01*
X1972165Y2199205D02*
G01*
X1929265Y2199205D01*
X1972165Y2150904D02*
G01*
X1972165Y2171404D01*
X1953765Y2173404D01*
X1955766Y2171404D01*
X1957866Y2165304D01*
X1957866Y2159104D01*
X1955766Y2153004D01*
X1951765Y2148904D01*
X1945565Y2146804D01*
X1941466Y2146804D01*
X1935366Y2148904D01*
X1931265Y2153004D01*
X1929265Y2159104D01*
X1929265Y2165304D01*
X1931265Y2171404D01*
X1933266Y2173404D01*
X1937366Y2175504D01*
X2072165Y2261804D02*
G01*
X2029265Y2261804D01*
X2072165Y2261804D02*
G01*
X2072165Y2243404D01*
X2070165Y2237305D01*
X2068065Y2235205D01*
X2063966Y2233204D01*
X2059866Y2233204D01*
X2055766Y2235205D01*
X2053765Y2237305D01*
X2051765Y2243404D01*
X2051765Y2261804D01*
X2051765Y2247505D02*
G01*
X2029265Y2233204D01*
X2072165Y2199205D02*
G01*
X2043566Y2219704D01*
X2043566Y2189005D01*
X2072165Y2199205D02*
G01*
X2029265Y2199205D01*
X2066066Y2150904D02*
G01*
X2070165Y2153004D01*
X2072165Y2159104D01*
X2072165Y2163204D01*
X2070165Y2169304D01*
X2063966Y2173404D01*
X2053765Y2175504D01*
X2043566Y2175504D01*
X2035366Y2173404D01*
X2031265Y2169304D01*
X2029265Y2163204D01*
X2029265Y2161205D01*
X2031265Y2155005D01*
X2035366Y2150904D01*
X2041466Y2148904D01*
X2043566Y2148904D01*
X2049665Y2150904D01*
X2053765Y2155005D01*
X2055766Y2161205D01*
X2055766Y2163204D01*
X2053765Y2169304D01*
X2049665Y2173404D01*
X2043566Y2175504D01*
X2172165Y2261804D02*
G01*
X2129265Y2261804D01*
X2172165Y2261804D02*
G01*
X2172165Y2243404D01*
X2170165Y2237305D01*
X2168065Y2235205D01*
X2163966Y2233204D01*
X2159866Y2233204D01*
X2155766Y2235205D01*
X2153765Y2237305D01*
X2151765Y2243404D01*
X2151765Y2261804D01*
X2151765Y2247505D02*
G01*
X2129265Y2233204D01*
X2172165Y2199205D02*
G01*
X2143566Y2219704D01*
X2143566Y2189005D01*
X2172165Y2199205D02*
G01*
X2129265Y2199205D01*
X2172165Y2146804D02*
G01*
X2129265Y2167305D01*
X2172165Y2175504D02*
G01*
X2172165Y2146804D01*
X2272165Y2261804D02*
G01*
X2229265Y2261804D01*
X2272165Y2261804D02*
G01*
X2272165Y2243404D01*
X2270165Y2237305D01*
X2268065Y2235205D01*
X2263966Y2233204D01*
X2259866Y2233204D01*
X2255766Y2235205D01*
X2253765Y2237305D01*
X2251765Y2243404D01*
X2251765Y2261804D01*
X2251765Y2247505D02*
G01*
X2229265Y2233204D01*
X2272165Y2199205D02*
G01*
X2243566Y2219704D01*
X2243566Y2189005D01*
X2272165Y2199205D02*
G01*
X2229265Y2199205D01*
X2272165Y2165304D02*
G01*
X2270165Y2171404D01*
X2266066Y2173404D01*
X2261966Y2173404D01*
X2257866Y2171404D01*
X2255766Y2167305D01*
X2253765Y2159104D01*
X2251765Y2153004D01*
X2247665Y2148904D01*
X2243566Y2146804D01*
X2237366Y2146804D01*
X2233266Y2148904D01*
X2231265Y2150904D01*
X2229265Y2157105D01*
X2229265Y2165304D01*
X2231265Y2171404D01*
X2233266Y2173404D01*
X2237366Y2175504D01*
X2243566Y2175504D01*
X2247665Y2173404D01*
X2251765Y2169304D01*
X2253765Y2163204D01*
X2255766Y2155005D01*
X2257866Y2150904D01*
X2261966Y2148904D01*
X2266066Y2148904D01*
X2270165Y2150904D01*
X2272165Y2157105D01*
X2272165Y2165304D01*
X2372165Y2261804D02*
G01*
X2329264Y2261804D01*
X2372165Y2261804D02*
G01*
X2372165Y2243404D01*
X2370164Y2237305D01*
X2368064Y2235205D01*
X2363964Y2233204D01*
X2359865Y2233204D01*
X2355765Y2235205D01*
X2353765Y2237305D01*
X2351764Y2243404D01*
X2351764Y2261804D01*
X2351764Y2247505D02*
G01*
X2329264Y2233204D01*
X2372165Y2199205D02*
G01*
X2343564Y2219704D01*
X2343564Y2189005D01*
X2372165Y2199205D02*
G01*
X2329264Y2199205D01*
X2357865Y2148904D02*
G01*
X2351764Y2150904D01*
X2347664Y2155005D01*
X2345564Y2161205D01*
X2345564Y2163204D01*
X2347664Y2169304D01*
X2351764Y2173404D01*
X2357865Y2175504D01*
X2359865Y2175504D01*
X2366064Y2173404D01*
X2370164Y2169304D01*
X2372165Y2163204D01*
X2372165Y2161205D01*
X2370164Y2155005D01*
X2366064Y2150904D01*
X2357865Y2148904D01*
X2347664Y2148904D01*
X2337365Y2150904D01*
X2331265Y2155005D01*
X2329264Y2161205D01*
X2329264Y2165304D01*
X2331265Y2171404D01*
X2335365Y2173404D01*
X2472165Y2261804D02*
G01*
X2429264Y2261804D01*
X2472165Y2261804D02*
G01*
X2472165Y2243404D01*
X2470164Y2237305D01*
X2468064Y2235205D01*
X2463964Y2233204D01*
X2459865Y2233204D01*
X2455765Y2235205D01*
X2453765Y2237305D01*
X2451764Y2243404D01*
X2451764Y2261804D01*
X2451764Y2247505D02*
G01*
X2429264Y2233204D01*
X2472165Y2195104D02*
G01*
X2472165Y2215605D01*
X2453765Y2217604D01*
X2455765Y2215605D01*
X2457865Y2209405D01*
X2457865Y2203305D01*
X2455765Y2197204D01*
X2451764Y2193105D01*
X2445564Y2191005D01*
X2441464Y2191005D01*
X2435365Y2193105D01*
X2431265Y2197204D01*
X2429264Y2203305D01*
X2429264Y2209405D01*
X2431265Y2215605D01*
X2433265Y2217604D01*
X2437365Y2219704D01*
X2472165Y2165304D02*
G01*
X2470164Y2171404D01*
X2463964Y2175504D01*
X2453765Y2177505D01*
X2447664Y2177505D01*
X2437365Y2175504D01*
X2431265Y2171404D01*
X2429264Y2165304D01*
X2429264Y2161205D01*
X2431265Y2155005D01*
X2437365Y2150904D01*
X2447664Y2148904D01*
X2453765Y2148904D01*
X2463964Y2150904D01*
X2470164Y2155005D01*
X2472165Y2161205D01*
X2472165Y2165304D01*
X2572165Y2261804D02*
G01*
X2529264Y2261804D01*
X2572165Y2261804D02*
G01*
X2572165Y2243404D01*
X2570164Y2237305D01*
X2568064Y2235205D01*
X2563964Y2233204D01*
X2559865Y2233204D01*
X2555765Y2235205D01*
X2553765Y2237305D01*
X2551764Y2243404D01*
X2551764Y2261804D01*
X2551764Y2247505D02*
G01*
X2529264Y2233204D01*
X2572165Y2195104D02*
G01*
X2572165Y2215605D01*
X2553765Y2217604D01*
X2555765Y2215605D01*
X2557865Y2209405D01*
X2557865Y2203305D01*
X2555765Y2197204D01*
X2551764Y2193105D01*
X2545564Y2191005D01*
X2541464Y2191005D01*
X2535365Y2193105D01*
X2531265Y2197204D01*
X2529264Y2203305D01*
X2529264Y2209405D01*
X2531265Y2215605D01*
X2533265Y2217604D01*
X2537365Y2219704D01*
X2563964Y2177505D02*
G01*
X2566064Y2173404D01*
X2572165Y2167305D01*
X2529264Y2167305D01*
X2672165Y2261804D02*
G01*
X2629264Y2261804D01*
X2672165Y2261804D02*
G01*
X2672165Y2243404D01*
X2670164Y2237305D01*
X2668064Y2235205D01*
X2663964Y2233204D01*
X2659865Y2233204D01*
X2655765Y2235205D01*
X2653765Y2237305D01*
X2651764Y2243404D01*
X2651764Y2261804D01*
X2651764Y2247505D02*
G01*
X2629264Y2233204D01*
X2672165Y2195104D02*
G01*
X2672165Y2215605D01*
X2653765Y2217604D01*
X2655765Y2215605D01*
X2657865Y2209405D01*
X2657865Y2203305D01*
X2655765Y2197204D01*
X2651764Y2193105D01*
X2645564Y2191005D01*
X2641464Y2191005D01*
X2635365Y2193105D01*
X2631265Y2197204D01*
X2629264Y2203305D01*
X2629264Y2209405D01*
X2631265Y2215605D01*
X2633265Y2217604D01*
X2637365Y2219704D01*
X2661965Y2175504D02*
G01*
X2663964Y2175504D01*
X2668064Y2173404D01*
X2670164Y2171404D01*
X2672165Y2167305D01*
X2672165Y2159104D01*
X2670164Y2155005D01*
X2668064Y2153004D01*
X2663964Y2150904D01*
X2659865Y2150904D01*
X2655765Y2153004D01*
X2649665Y2157105D01*
X2629264Y2177505D01*
X2629264Y2148904D01*
X2772165Y2261804D02*
G01*
X2729264Y2261804D01*
X2772165Y2261804D02*
G01*
X2772165Y2243404D01*
X2770164Y2237305D01*
X2768064Y2235205D01*
X2763964Y2233204D01*
X2759865Y2233204D01*
X2755765Y2235205D01*
X2753765Y2237305D01*
X2751764Y2243404D01*
X2751764Y2261804D01*
X2751764Y2247505D02*
G01*
X2729264Y2233204D01*
X2772165Y2195104D02*
G01*
X2772165Y2215605D01*
X2753765Y2217604D01*
X2755765Y2215605D01*
X2757865Y2209405D01*
X2757865Y2203305D01*
X2755765Y2197204D01*
X2751764Y2193105D01*
X2745564Y2191005D01*
X2741464Y2191005D01*
X2735365Y2193105D01*
X2731265Y2197204D01*
X2729264Y2203305D01*
X2729264Y2209405D01*
X2731265Y2215605D01*
X2733265Y2217604D01*
X2737365Y2219704D01*
X2772165Y2173404D02*
G01*
X2772165Y2150904D01*
X2755765Y2163204D01*
X2755765Y2157105D01*
X2753765Y2153004D01*
X2751764Y2150904D01*
X2745564Y2148904D01*
X2741464Y2148904D01*
X2735365Y2150904D01*
X2731265Y2155005D01*
X2729264Y2161205D01*
X2729264Y2167305D01*
X2731265Y2173404D01*
X2733265Y2175504D01*
X2737365Y2177505D01*
X2872164Y2261804D02*
G01*
X2829264Y2261804D01*
X2872164Y2261804D02*
G01*
X2872164Y2243404D01*
X2870164Y2237305D01*
X2868064Y2235205D01*
X2863963Y2233204D01*
X2859863Y2233204D01*
X2855763Y2235205D01*
X2853764Y2237305D01*
X2851764Y2243404D01*
X2851764Y2261804D01*
X2851764Y2247505D02*
G01*
X2829264Y2233204D01*
X2872164Y2195104D02*
G01*
X2872164Y2215605D01*
X2853764Y2217604D01*
X2855763Y2215605D01*
X2857863Y2209405D01*
X2857863Y2203305D01*
X2855763Y2197204D01*
X2851764Y2193105D01*
X2845564Y2191005D01*
X2841463Y2191005D01*
X2835363Y2193105D01*
X2831264Y2197204D01*
X2829264Y2203305D01*
X2829264Y2209405D01*
X2831264Y2215605D01*
X2833263Y2217604D01*
X2837363Y2219704D01*
X2872164Y2157105D02*
G01*
X2843563Y2177505D01*
X2843563Y2146804D01*
X2872164Y2157105D02*
G01*
X2829264Y2157105D01*
X2972164Y2261804D02*
G01*
X2929264Y2261804D01*
X2972164Y2261804D02*
G01*
X2972164Y2243404D01*
X2970164Y2237305D01*
X2968064Y2235205D01*
X2963963Y2233204D01*
X2959863Y2233204D01*
X2955763Y2235205D01*
X2953764Y2237305D01*
X2951764Y2243404D01*
X2951764Y2261804D01*
X2951764Y2247505D02*
G01*
X2929264Y2233204D01*
X2972164Y2195104D02*
G01*
X2972164Y2215605D01*
X2953764Y2217604D01*
X2955763Y2215605D01*
X2957863Y2209405D01*
X2957863Y2203305D01*
X2955763Y2197204D01*
X2951764Y2193105D01*
X2945564Y2191005D01*
X2941463Y2191005D01*
X2935363Y2193105D01*
X2931264Y2197204D01*
X2929264Y2203305D01*
X2929264Y2209405D01*
X2931264Y2215605D01*
X2933263Y2217604D01*
X2937363Y2219704D01*
X2972164Y2153004D02*
G01*
X2972164Y2173404D01*
X2953764Y2175504D01*
X2955763Y2173404D01*
X2957863Y2167305D01*
X2957863Y2161205D01*
X2955763Y2155005D01*
X2951764Y2150904D01*
X2945564Y2148904D01*
X2941463Y2148904D01*
X2935363Y2150904D01*
X2931264Y2155005D01*
X2929264Y2161205D01*
X2929264Y2167305D01*
X2931264Y2173404D01*
X2933263Y2175504D01*
X2937363Y2177505D01*
X3072164Y2261804D02*
G01*
X3029264Y2261804D01*
X3072164Y2261804D02*
G01*
X3072164Y2243404D01*
X3070164Y2237305D01*
X3068064Y2235205D01*
X3063963Y2233204D01*
X3059863Y2233204D01*
X3055763Y2235205D01*
X3053764Y2237305D01*
X3051764Y2243404D01*
X3051764Y2261804D01*
X3051764Y2247505D02*
G01*
X3029264Y2233204D01*
X3072164Y2195104D02*
G01*
X3072164Y2215605D01*
X3053764Y2217604D01*
X3055763Y2215605D01*
X3057863Y2209405D01*
X3057863Y2203305D01*
X3055763Y2197204D01*
X3051764Y2193105D01*
X3045564Y2191005D01*
X3041463Y2191005D01*
X3035363Y2193105D01*
X3031264Y2197204D01*
X3029264Y2203305D01*
X3029264Y2209405D01*
X3031264Y2215605D01*
X3033263Y2217604D01*
X3037363Y2219704D01*
X3066063Y2153004D02*
G01*
X3070164Y2155005D01*
X3072164Y2161205D01*
X3072164Y2165304D01*
X3070164Y2171404D01*
X3063963Y2175504D01*
X3053764Y2177505D01*
X3043563Y2177505D01*
X3035363Y2175504D01*
X3031264Y2171404D01*
X3029264Y2165304D01*
X3029264Y2163204D01*
X3031264Y2157105D01*
X3035363Y2153004D01*
X3041463Y2150904D01*
X3043563Y2150904D01*
X3049664Y2153004D01*
X3053764Y2157105D01*
X3055763Y2163204D01*
X3055763Y2165304D01*
X3053764Y2171404D01*
X3049664Y2175504D01*
X3043563Y2177505D01*
X3172164Y2261804D02*
G01*
X3129264Y2261804D01*
X3172164Y2261804D02*
G01*
X3172164Y2243404D01*
X3170164Y2237305D01*
X3168064Y2235205D01*
X3163963Y2233204D01*
X3159863Y2233204D01*
X3155763Y2235205D01*
X3153764Y2237305D01*
X3151764Y2243404D01*
X3151764Y2261804D01*
X3151764Y2247505D02*
G01*
X3129264Y2233204D01*
X3172164Y2195104D02*
G01*
X3172164Y2215605D01*
X3153764Y2217604D01*
X3155763Y2215605D01*
X3157863Y2209405D01*
X3157863Y2203305D01*
X3155763Y2197204D01*
X3151764Y2193105D01*
X3145564Y2191005D01*
X3141463Y2191005D01*
X3135363Y2193105D01*
X3131264Y2197204D01*
X3129264Y2203305D01*
X3129264Y2209405D01*
X3131264Y2215605D01*
X3133263Y2217604D01*
X3137363Y2219704D01*
X3172164Y2148904D02*
G01*
X3129264Y2169304D01*
X3172164Y2177505D02*
G01*
X3172164Y2148904D01*
X3272164Y2261804D02*
G01*
X3229264Y2261804D01*
X3272164Y2261804D02*
G01*
X3272164Y2243404D01*
X3270164Y2237305D01*
X3268064Y2235205D01*
X3263963Y2233204D01*
X3259863Y2233204D01*
X3255763Y2235205D01*
X3253764Y2237305D01*
X3251764Y2243404D01*
X3251764Y2261804D01*
X3251764Y2247505D02*
G01*
X3229264Y2233204D01*
X3272164Y2195104D02*
G01*
X3272164Y2215605D01*
X3253764Y2217604D01*
X3255763Y2215605D01*
X3257863Y2209405D01*
X3257863Y2203305D01*
X3255763Y2197204D01*
X3251764Y2193105D01*
X3245564Y2191005D01*
X3241463Y2191005D01*
X3235363Y2193105D01*
X3231264Y2197204D01*
X3229264Y2203305D01*
X3229264Y2209405D01*
X3231264Y2215605D01*
X3233263Y2217604D01*
X3237363Y2219704D01*
X3272164Y2167305D02*
G01*
X3270164Y2173404D01*
X3266063Y2175504D01*
X3261963Y2175504D01*
X3257863Y2173404D01*
X3255763Y2169304D01*
X3253764Y2161205D01*
X3251764Y2155005D01*
X3247664Y2150904D01*
X3243563Y2148904D01*
X3237363Y2148904D01*
X3233263Y2150904D01*
X3231264Y2153004D01*
X3229264Y2159104D01*
X3229264Y2167305D01*
X3231264Y2173404D01*
X3233263Y2175504D01*
X3237363Y2177505D01*
X3243563Y2177505D01*
X3247664Y2175504D01*
X3251764Y2171404D01*
X3253764Y2165304D01*
X3255763Y2157105D01*
X3257863Y2153004D01*
X3261963Y2150904D01*
X3266063Y2150904D01*
X3270164Y2153004D01*
X3272164Y2159104D01*
X3272164Y2167305D01*
X3372163Y2261804D02*
G01*
X3329263Y2261804D01*
X3372163Y2261804D02*
G01*
X3372163Y2243404D01*
X3370163Y2237305D01*
X3368063Y2235205D01*
X3363963Y2233204D01*
X3359862Y2233204D01*
X3355762Y2235205D01*
X3353762Y2237305D01*
X3351763Y2243404D01*
X3351763Y2261804D01*
X3351763Y2247505D02*
G01*
X3329263Y2233204D01*
X3372163Y2195104D02*
G01*
X3372163Y2215605D01*
X3353762Y2217604D01*
X3355762Y2215605D01*
X3357862Y2209405D01*
X3357862Y2203305D01*
X3355762Y2197204D01*
X3351763Y2193105D01*
X3345563Y2191005D01*
X3341463Y2191005D01*
X3335362Y2193105D01*
X3331262Y2197204D01*
X3329263Y2203305D01*
X3329263Y2209405D01*
X3331262Y2215605D01*
X3333262Y2217604D01*
X3337362Y2219704D01*
X3357862Y2150904D02*
G01*
X3351763Y2153004D01*
X3347663Y2157105D01*
X3345563Y2163204D01*
X3345563Y2165304D01*
X3347663Y2171404D01*
X3351763Y2175504D01*
X3357862Y2177505D01*
X3359862Y2177505D01*
X3366063Y2175504D01*
X3370163Y2171404D01*
X3372163Y2165304D01*
X3372163Y2163204D01*
X3370163Y2157105D01*
X3366063Y2153004D01*
X3357862Y2150904D01*
X3347663Y2150904D01*
X3337362Y2153004D01*
X3331262Y2157105D01*
X3329263Y2163204D01*
X3329263Y2167305D01*
X3331262Y2173404D01*
X3335362Y2175504D01*
X3472163Y2261804D02*
G01*
X3429263Y2261804D01*
X3472163Y2261804D02*
G01*
X3472163Y2243404D01*
X3470163Y2237305D01*
X3468063Y2235205D01*
X3463963Y2233204D01*
X3459862Y2233204D01*
X3455762Y2235205D01*
X3453762Y2237305D01*
X3451763Y2243404D01*
X3451763Y2261804D01*
X3451763Y2247505D02*
G01*
X3429263Y2233204D01*
X3466063Y2195104D02*
G01*
X3470163Y2197204D01*
X3472163Y2203305D01*
X3472163Y2207404D01*
X3470163Y2213505D01*
X3463963Y2217604D01*
X3453762Y2219704D01*
X3443563Y2219704D01*
X3435362Y2217604D01*
X3431262Y2213505D01*
X3429263Y2207404D01*
X3429263Y2205304D01*
X3431262Y2199205D01*
X3435362Y2195104D01*
X3441463Y2193105D01*
X3443563Y2193105D01*
X3449663Y2195104D01*
X3453762Y2199205D01*
X3455762Y2205304D01*
X3455762Y2207404D01*
X3453762Y2213505D01*
X3449663Y2217604D01*
X3443563Y2219704D01*
X3472163Y2167305D02*
G01*
X3470163Y2173404D01*
X3463963Y2177505D01*
X3453762Y2179605D01*
X3447663Y2179605D01*
X3437362Y2177505D01*
X3431262Y2173404D01*
X3429263Y2167305D01*
X3429263Y2163204D01*
X3431262Y2157105D01*
X3437362Y2153004D01*
X3447663Y2150904D01*
X3453762Y2150904D01*
X3463963Y2153004D01*
X3470163Y2157105D01*
X3472163Y2163204D01*
X3472163Y2167305D01*
X572168Y1328735D02*
G01*
X529268Y1328735D01*
X572168Y1328735D02*
G01*
X572168Y1310336D01*
X570169Y1304236D01*
X568069Y1302136D01*
X563969Y1300136D01*
X559868Y1300136D01*
X555769Y1302136D01*
X553769Y1304236D01*
X551768Y1310336D01*
X551768Y1328735D01*
X551768Y1314436D02*
G01*
X529268Y1300136D01*
X566069Y1262035D02*
G01*
X570169Y1264135D01*
X572168Y1270235D01*
X572168Y1274335D01*
X570169Y1280435D01*
X563969Y1284535D01*
X553769Y1286635D01*
X543569Y1286635D01*
X535369Y1284535D01*
X531269Y1280435D01*
X529268Y1274335D01*
X529268Y1272235D01*
X531269Y1266136D01*
X535369Y1262035D01*
X541469Y1260036D01*
X543569Y1260036D01*
X549668Y1262035D01*
X553769Y1266136D01*
X555769Y1272235D01*
X555769Y1274335D01*
X553769Y1280435D01*
X549668Y1284535D01*
X543569Y1286635D01*
X563969Y1246536D02*
G01*
X566069Y1242435D01*
X572168Y1236235D01*
X529268Y1236235D01*
X672168Y1328735D02*
G01*
X629268Y1328735D01*
X672168Y1328735D02*
G01*
X672168Y1310336D01*
X670169Y1304236D01*
X668069Y1302136D01*
X663969Y1300136D01*
X659868Y1300136D01*
X655769Y1302136D01*
X653769Y1304236D01*
X651768Y1310336D01*
X651768Y1328735D01*
X651768Y1314436D02*
G01*
X629268Y1300136D01*
X666069Y1262035D02*
G01*
X670169Y1264135D01*
X672168Y1270235D01*
X672168Y1274335D01*
X670169Y1280435D01*
X663969Y1284535D01*
X653769Y1286635D01*
X643569Y1286635D01*
X635369Y1284535D01*
X631269Y1280435D01*
X629268Y1274335D01*
X629268Y1272235D01*
X631269Y1266136D01*
X635369Y1262035D01*
X641469Y1260036D01*
X643569Y1260036D01*
X649668Y1262035D01*
X653769Y1266136D01*
X655769Y1272235D01*
X655769Y1274335D01*
X653769Y1280435D01*
X649668Y1284535D01*
X643569Y1286635D01*
X661968Y1244436D02*
G01*
X663969Y1244436D01*
X668069Y1242435D01*
X670169Y1240336D01*
X672168Y1236235D01*
X672168Y1228135D01*
X670169Y1224036D01*
X668069Y1221936D01*
X663969Y1219935D01*
X659868Y1219935D01*
X655769Y1221936D01*
X649668Y1226035D01*
X629268Y1246536D01*
X629268Y1217836D01*
X772169Y1328735D02*
G01*
X729268Y1328735D01*
X772169Y1328735D02*
G01*
X772169Y1310336D01*
X770168Y1304236D01*
X768068Y1302136D01*
X763968Y1300136D01*
X759868Y1300136D01*
X755769Y1302136D01*
X753769Y1304236D01*
X751768Y1310336D01*
X751768Y1328735D01*
X751768Y1314436D02*
G01*
X729268Y1300136D01*
X766068Y1262035D02*
G01*
X770168Y1264135D01*
X772169Y1270235D01*
X772169Y1274335D01*
X770168Y1280435D01*
X763968Y1284535D01*
X753769Y1286635D01*
X743569Y1286635D01*
X735369Y1284535D01*
X731269Y1280435D01*
X729268Y1274335D01*
X729268Y1272235D01*
X731269Y1266136D01*
X735369Y1262035D01*
X741469Y1260036D01*
X743569Y1260036D01*
X749668Y1262035D01*
X753769Y1266136D01*
X755769Y1272235D01*
X755769Y1274335D01*
X753769Y1280435D01*
X749668Y1284535D01*
X743569Y1286635D01*
X772169Y1242435D02*
G01*
X772169Y1219935D01*
X755769Y1232235D01*
X755769Y1226035D01*
X753769Y1221936D01*
X751768Y1219935D01*
X745569Y1217836D01*
X741469Y1217836D01*
X735369Y1219935D01*
X731269Y1224036D01*
X729268Y1230136D01*
X729268Y1236235D01*
X731269Y1242435D01*
X733269Y1244436D01*
X737368Y1246536D01*
X872168Y1328735D02*
G01*
X829268Y1328735D01*
X872168Y1328735D02*
G01*
X872168Y1310336D01*
X870168Y1304236D01*
X868068Y1302136D01*
X863968Y1300136D01*
X859867Y1300136D01*
X855767Y1302136D01*
X853768Y1304236D01*
X851768Y1310336D01*
X851768Y1328735D01*
X851768Y1314436D02*
G01*
X829268Y1300136D01*
X866067Y1262035D02*
G01*
X870168Y1264135D01*
X872168Y1270235D01*
X872168Y1274335D01*
X870168Y1280435D01*
X863968Y1284535D01*
X853768Y1286635D01*
X843567Y1286635D01*
X835367Y1284535D01*
X831268Y1280435D01*
X829268Y1274335D01*
X829268Y1272235D01*
X831268Y1266136D01*
X835367Y1262035D01*
X841468Y1260036D01*
X843567Y1260036D01*
X849668Y1262035D01*
X853768Y1266136D01*
X855767Y1272235D01*
X855767Y1274335D01*
X853768Y1280435D01*
X849668Y1284535D01*
X843567Y1286635D01*
X872168Y1226035D02*
G01*
X843567Y1246536D01*
X843567Y1215835D01*
X872168Y1226035D02*
G01*
X829268Y1226035D01*
X972168Y1328735D02*
G01*
X929268Y1328735D01*
X972168Y1328735D02*
G01*
X972168Y1310336D01*
X970168Y1304236D01*
X968068Y1302136D01*
X963968Y1300136D01*
X959867Y1300136D01*
X955767Y1302136D01*
X953768Y1304236D01*
X951768Y1310336D01*
X951768Y1328735D01*
X951768Y1314436D02*
G01*
X929268Y1300136D01*
X966067Y1262035D02*
G01*
X970168Y1264135D01*
X972168Y1270235D01*
X972168Y1274335D01*
X970168Y1280435D01*
X963968Y1284535D01*
X953768Y1286635D01*
X943567Y1286635D01*
X935367Y1284535D01*
X931268Y1280435D01*
X929268Y1274335D01*
X929268Y1272235D01*
X931268Y1266136D01*
X935367Y1262035D01*
X941468Y1260036D01*
X943567Y1260036D01*
X949668Y1262035D01*
X953768Y1266136D01*
X955767Y1272235D01*
X955767Y1274335D01*
X953768Y1280435D01*
X949668Y1284535D01*
X943567Y1286635D01*
X972168Y1221936D02*
G01*
X972168Y1242435D01*
X953768Y1244436D01*
X955767Y1242435D01*
X957867Y1236235D01*
X957867Y1230136D01*
X955767Y1224036D01*
X951768Y1219935D01*
X945568Y1217836D01*
X941468Y1217836D01*
X935367Y1219935D01*
X931268Y1224036D01*
X929268Y1230136D01*
X929268Y1236235D01*
X931268Y1242435D01*
X933267Y1244436D01*
X937367Y1246536D01*
X1072168Y1328735D02*
G01*
X1029268Y1328735D01*
X1072168Y1328735D02*
G01*
X1072168Y1310336D01*
X1070168Y1304236D01*
X1068068Y1302136D01*
X1063968Y1300136D01*
X1059867Y1300136D01*
X1055767Y1302136D01*
X1053768Y1304236D01*
X1051768Y1310336D01*
X1051768Y1328735D01*
X1051768Y1314436D02*
G01*
X1029268Y1300136D01*
X1066067Y1262035D02*
G01*
X1070168Y1264135D01*
X1072168Y1270235D01*
X1072168Y1274335D01*
X1070168Y1280435D01*
X1063968Y1284535D01*
X1053768Y1286635D01*
X1043567Y1286635D01*
X1035367Y1284535D01*
X1031268Y1280435D01*
X1029268Y1274335D01*
X1029268Y1272235D01*
X1031268Y1266136D01*
X1035367Y1262035D01*
X1041468Y1260036D01*
X1043567Y1260036D01*
X1049668Y1262035D01*
X1053768Y1266136D01*
X1055767Y1272235D01*
X1055767Y1274335D01*
X1053768Y1280435D01*
X1049668Y1284535D01*
X1043567Y1286635D01*
X1066067Y1221936D02*
G01*
X1070168Y1224036D01*
X1072168Y1230136D01*
X1072168Y1234236D01*
X1070168Y1240336D01*
X1063968Y1244436D01*
X1053768Y1246536D01*
X1043567Y1246536D01*
X1035367Y1244436D01*
X1031268Y1240336D01*
X1029268Y1234236D01*
X1029268Y1232235D01*
X1031268Y1226035D01*
X1035367Y1221936D01*
X1041468Y1219935D01*
X1043567Y1219935D01*
X1049668Y1221936D01*
X1053768Y1226035D01*
X1055767Y1232235D01*
X1055767Y1234236D01*
X1053768Y1240336D01*
X1049668Y1244436D01*
X1043567Y1246536D01*
X1172168Y1328735D02*
G01*
X1129268Y1328735D01*
X1172168Y1328735D02*
G01*
X1172168Y1310336D01*
X1170168Y1304236D01*
X1168068Y1302136D01*
X1163968Y1300136D01*
X1159867Y1300136D01*
X1155767Y1302136D01*
X1153768Y1304236D01*
X1151768Y1310336D01*
X1151768Y1328735D01*
X1151768Y1314436D02*
G01*
X1129268Y1300136D01*
X1166067Y1262035D02*
G01*
X1170168Y1264135D01*
X1172168Y1270235D01*
X1172168Y1274335D01*
X1170168Y1280435D01*
X1163968Y1284535D01*
X1153768Y1286635D01*
X1143567Y1286635D01*
X1135367Y1284535D01*
X1131268Y1280435D01*
X1129268Y1274335D01*
X1129268Y1272235D01*
X1131268Y1266136D01*
X1135367Y1262035D01*
X1141468Y1260036D01*
X1143567Y1260036D01*
X1149668Y1262035D01*
X1153768Y1266136D01*
X1155767Y1272235D01*
X1155767Y1274335D01*
X1153768Y1280435D01*
X1149668Y1284535D01*
X1143567Y1286635D01*
X1172168Y1217836D02*
G01*
X1129268Y1238335D01*
X1172168Y1246536D02*
G01*
X1172168Y1217836D01*
X1272168Y1328735D02*
G01*
X1229268Y1328735D01*
X1272168Y1328735D02*
G01*
X1272168Y1310336D01*
X1270168Y1304236D01*
X1268068Y1302136D01*
X1263968Y1300136D01*
X1259867Y1300136D01*
X1255767Y1302136D01*
X1253768Y1304236D01*
X1251768Y1310336D01*
X1251768Y1328735D01*
X1251768Y1314436D02*
G01*
X1229268Y1300136D01*
X1266067Y1262035D02*
G01*
X1270168Y1264135D01*
X1272168Y1270235D01*
X1272168Y1274335D01*
X1270168Y1280435D01*
X1263968Y1284535D01*
X1253768Y1286635D01*
X1243567Y1286635D01*
X1235367Y1284535D01*
X1231268Y1280435D01*
X1229268Y1274335D01*
X1229268Y1272235D01*
X1231268Y1266136D01*
X1235367Y1262035D01*
X1241468Y1260036D01*
X1243567Y1260036D01*
X1249668Y1262035D01*
X1253768Y1266136D01*
X1255767Y1272235D01*
X1255767Y1274335D01*
X1253768Y1280435D01*
X1249668Y1284535D01*
X1243567Y1286635D01*
X1272168Y1236235D02*
G01*
X1270168Y1242435D01*
X1266067Y1244436D01*
X1261967Y1244436D01*
X1257867Y1242435D01*
X1255767Y1238335D01*
X1253768Y1230136D01*
X1251768Y1224036D01*
X1247668Y1219935D01*
X1243567Y1217836D01*
X1237367Y1217836D01*
X1233267Y1219935D01*
X1231268Y1221936D01*
X1229268Y1228135D01*
X1229268Y1236235D01*
X1231268Y1242435D01*
X1233267Y1244436D01*
X1237367Y1246536D01*
X1243567Y1246536D01*
X1247668Y1244436D01*
X1251768Y1240336D01*
X1253768Y1234236D01*
X1255767Y1226035D01*
X1257867Y1221936D01*
X1261967Y1219935D01*
X1266067Y1219935D01*
X1270168Y1221936D01*
X1272168Y1228135D01*
X1272168Y1236235D01*
X1372166Y1328735D02*
G01*
X1329266Y1328735D01*
X1372166Y1328735D02*
G01*
X1372166Y1310336D01*
X1370167Y1304236D01*
X1368067Y1302136D01*
X1363967Y1300136D01*
X1359867Y1300136D01*
X1355766Y1302136D01*
X1353766Y1304236D01*
X1351766Y1310336D01*
X1351766Y1328735D01*
X1351766Y1314436D02*
G01*
X1329266Y1300136D01*
X1366067Y1262035D02*
G01*
X1370167Y1264135D01*
X1372166Y1270235D01*
X1372166Y1274335D01*
X1370167Y1280435D01*
X1363967Y1284535D01*
X1353766Y1286635D01*
X1343567Y1286635D01*
X1335366Y1284535D01*
X1331266Y1280435D01*
X1329266Y1274335D01*
X1329266Y1272235D01*
X1331266Y1266136D01*
X1335366Y1262035D01*
X1341467Y1260036D01*
X1343567Y1260036D01*
X1349666Y1262035D01*
X1353766Y1266136D01*
X1355766Y1272235D01*
X1355766Y1274335D01*
X1353766Y1280435D01*
X1349666Y1284535D01*
X1343567Y1286635D01*
X1357866Y1219935D02*
G01*
X1351766Y1221936D01*
X1347667Y1226035D01*
X1345567Y1232235D01*
X1345567Y1234236D01*
X1347667Y1240336D01*
X1351766Y1244436D01*
X1357866Y1246536D01*
X1359867Y1246536D01*
X1366067Y1244436D01*
X1370167Y1240336D01*
X1372166Y1234236D01*
X1372166Y1232235D01*
X1370167Y1226035D01*
X1366067Y1221936D01*
X1357866Y1219935D01*
X1347667Y1219935D01*
X1337367Y1221936D01*
X1331266Y1226035D01*
X1329266Y1232235D01*
X1329266Y1236235D01*
X1331266Y1242435D01*
X1335366Y1244436D01*
X1472166Y1328735D02*
G01*
X1429266Y1328735D01*
X1472166Y1328735D02*
G01*
X1472166Y1310336D01*
X1470167Y1304236D01*
X1468067Y1302136D01*
X1463967Y1300136D01*
X1459867Y1300136D01*
X1455766Y1302136D01*
X1453766Y1304236D01*
X1451766Y1310336D01*
X1451766Y1328735D01*
X1451766Y1314436D02*
G01*
X1429266Y1300136D01*
X1472166Y1257935D02*
G01*
X1429266Y1278436D01*
X1472166Y1286635D02*
G01*
X1472166Y1257935D01*
X1472166Y1232235D02*
G01*
X1470167Y1238335D01*
X1463967Y1242435D01*
X1453766Y1244436D01*
X1447667Y1244436D01*
X1437367Y1242435D01*
X1431266Y1238335D01*
X1429266Y1232235D01*
X1429266Y1228135D01*
X1431266Y1221936D01*
X1437367Y1217836D01*
X1447667Y1215835D01*
X1453766Y1215835D01*
X1463967Y1217836D01*
X1470167Y1221936D01*
X1472166Y1228135D01*
X1472166Y1232235D01*
X1572166Y1328735D02*
G01*
X1529266Y1328735D01*
X1572166Y1328735D02*
G01*
X1572166Y1310336D01*
X1570167Y1304236D01*
X1568067Y1302136D01*
X1563967Y1300136D01*
X1559867Y1300136D01*
X1555766Y1302136D01*
X1553766Y1304236D01*
X1551766Y1310336D01*
X1551766Y1328735D01*
X1551766Y1314436D02*
G01*
X1529266Y1300136D01*
X1572166Y1257935D02*
G01*
X1529266Y1278436D01*
X1572166Y1286635D02*
G01*
X1572166Y1257935D01*
X1563967Y1244436D02*
G01*
X1566067Y1240336D01*
X1572166Y1234236D01*
X1529266Y1234236D01*
X1672166Y1328735D02*
G01*
X1629266Y1328735D01*
X1672166Y1328735D02*
G01*
X1672166Y1310336D01*
X1670167Y1304236D01*
X1668067Y1302136D01*
X1663967Y1300136D01*
X1659867Y1300136D01*
X1655766Y1302136D01*
X1653766Y1304236D01*
X1651766Y1310336D01*
X1651766Y1328735D01*
X1651766Y1314436D02*
G01*
X1629266Y1300136D01*
X1672166Y1257935D02*
G01*
X1629266Y1278436D01*
X1672166Y1286635D02*
G01*
X1672166Y1257935D01*
X1661967Y1242435D02*
G01*
X1663967Y1242435D01*
X1668067Y1240336D01*
X1670167Y1238335D01*
X1672166Y1234236D01*
X1672166Y1226035D01*
X1670167Y1221936D01*
X1668067Y1219935D01*
X1663967Y1217836D01*
X1659867Y1217836D01*
X1655766Y1219935D01*
X1649666Y1224036D01*
X1629266Y1244436D01*
X1629266Y1215835D01*
X1772166Y1328735D02*
G01*
X1729266Y1328735D01*
X1772166Y1328735D02*
G01*
X1772166Y1310336D01*
X1770167Y1304236D01*
X1768067Y1302136D01*
X1763967Y1300136D01*
X1759867Y1300136D01*
X1755766Y1302136D01*
X1753766Y1304236D01*
X1751766Y1310336D01*
X1751766Y1328735D01*
X1751766Y1314436D02*
G01*
X1729266Y1300136D01*
X1772166Y1257935D02*
G01*
X1729266Y1278436D01*
X1772166Y1286635D02*
G01*
X1772166Y1257935D01*
X1772166Y1240336D02*
G01*
X1772166Y1217836D01*
X1755766Y1230136D01*
X1755766Y1224036D01*
X1753766Y1219935D01*
X1751766Y1217836D01*
X1745567Y1215835D01*
X1741467Y1215835D01*
X1735366Y1217836D01*
X1731266Y1221936D01*
X1729266Y1228135D01*
X1729266Y1234236D01*
X1731266Y1240336D01*
X1733266Y1242435D01*
X1737367Y1244436D01*
X1872165Y1328735D02*
G01*
X1829265Y1328735D01*
X1872165Y1328735D02*
G01*
X1872165Y1310336D01*
X1870165Y1304236D01*
X1868065Y1302136D01*
X1863966Y1300136D01*
X1859866Y1300136D01*
X1855766Y1302136D01*
X1853765Y1304236D01*
X1851765Y1310336D01*
X1851765Y1328735D01*
X1851765Y1314436D02*
G01*
X1829265Y1300136D01*
X1872165Y1257935D02*
G01*
X1829265Y1278436D01*
X1872165Y1286635D02*
G01*
X1872165Y1257935D01*
X1872165Y1224036D02*
G01*
X1843566Y1244436D01*
X1843566Y1213735D01*
X1872165Y1224036D02*
G01*
X1829265Y1224036D01*
X1972165Y1328735D02*
G01*
X1929265Y1328735D01*
X1972165Y1328735D02*
G01*
X1972165Y1310336D01*
X1970165Y1304236D01*
X1968065Y1302136D01*
X1963966Y1300136D01*
X1959866Y1300136D01*
X1955766Y1302136D01*
X1953765Y1304236D01*
X1951765Y1310336D01*
X1951765Y1328735D01*
X1951765Y1314436D02*
G01*
X1929265Y1300136D01*
X1972165Y1257935D02*
G01*
X1929265Y1278436D01*
X1972165Y1286635D02*
G01*
X1972165Y1257935D01*
X1972165Y1219935D02*
G01*
X1972165Y1240336D01*
X1953765Y1242435D01*
X1955766Y1240336D01*
X1957866Y1234236D01*
X1957866Y1228135D01*
X1955766Y1221936D01*
X1951765Y1217836D01*
X1945565Y1215835D01*
X1941466Y1215835D01*
X1935366Y1217836D01*
X1931265Y1221936D01*
X1929265Y1228135D01*
X1929265Y1234236D01*
X1931265Y1240336D01*
X1933266Y1242435D01*
X1937366Y1244436D01*
X2072165Y1328735D02*
G01*
X2029265Y1328735D01*
X2072165Y1328735D02*
G01*
X2072165Y1310336D01*
X2070165Y1304236D01*
X2068065Y1302136D01*
X2063966Y1300136D01*
X2059866Y1300136D01*
X2055766Y1302136D01*
X2053765Y1304236D01*
X2051765Y1310336D01*
X2051765Y1328735D01*
X2051765Y1314436D02*
G01*
X2029265Y1300136D01*
X2072165Y1257935D02*
G01*
X2029265Y1278436D01*
X2072165Y1286635D02*
G01*
X2072165Y1257935D01*
X2066066Y1219935D02*
G01*
X2070165Y1221936D01*
X2072165Y1228135D01*
X2072165Y1232235D01*
X2070165Y1238335D01*
X2063966Y1242435D01*
X2053765Y1244436D01*
X2043566Y1244436D01*
X2035366Y1242435D01*
X2031265Y1238335D01*
X2029265Y1232235D01*
X2029265Y1230136D01*
X2031265Y1224036D01*
X2035366Y1219935D01*
X2041466Y1217836D01*
X2043566Y1217836D01*
X2049665Y1219935D01*
X2053765Y1224036D01*
X2055766Y1230136D01*
X2055766Y1232235D01*
X2053765Y1238335D01*
X2049665Y1242435D01*
X2043566Y1244436D01*
X2172165Y1328735D02*
G01*
X2129265Y1328735D01*
X2172165Y1328735D02*
G01*
X2172165Y1310336D01*
X2170165Y1304236D01*
X2168065Y1302136D01*
X2163966Y1300136D01*
X2159866Y1300136D01*
X2155766Y1302136D01*
X2153765Y1304236D01*
X2151765Y1310336D01*
X2151765Y1328735D01*
X2151765Y1314436D02*
G01*
X2129265Y1300136D01*
X2172165Y1257935D02*
G01*
X2129265Y1278436D01*
X2172165Y1286635D02*
G01*
X2172165Y1257935D01*
X2172165Y1215835D02*
G01*
X2129265Y1236235D01*
X2172165Y1244436D02*
G01*
X2172165Y1215835D01*
X2272165Y1328735D02*
G01*
X2229265Y1328735D01*
X2272165Y1328735D02*
G01*
X2272165Y1310336D01*
X2270165Y1304236D01*
X2268065Y1302136D01*
X2263966Y1300136D01*
X2259866Y1300136D01*
X2255766Y1302136D01*
X2253765Y1304236D01*
X2251765Y1310336D01*
X2251765Y1328735D01*
X2251765Y1314436D02*
G01*
X2229265Y1300136D01*
X2272165Y1257935D02*
G01*
X2229265Y1278436D01*
X2272165Y1286635D02*
G01*
X2272165Y1257935D01*
X2272165Y1234236D02*
G01*
X2270165Y1240336D01*
X2266066Y1242435D01*
X2261966Y1242435D01*
X2257866Y1240336D01*
X2255766Y1236235D01*
X2253765Y1228135D01*
X2251765Y1221936D01*
X2247665Y1217836D01*
X2243566Y1215835D01*
X2237366Y1215835D01*
X2233266Y1217836D01*
X2231265Y1219935D01*
X2229265Y1226035D01*
X2229265Y1234236D01*
X2231265Y1240336D01*
X2233266Y1242435D01*
X2237366Y1244436D01*
X2243566Y1244436D01*
X2247665Y1242435D01*
X2251765Y1238335D01*
X2253765Y1232235D01*
X2255766Y1224036D01*
X2257866Y1219935D01*
X2261966Y1217836D01*
X2266066Y1217836D01*
X2270165Y1219935D01*
X2272165Y1226035D01*
X2272165Y1234236D01*
X2372165Y1328735D02*
G01*
X2329264Y1328735D01*
X2372165Y1328735D02*
G01*
X2372165Y1310336D01*
X2370164Y1304236D01*
X2368064Y1302136D01*
X2363964Y1300136D01*
X2359865Y1300136D01*
X2355765Y1302136D01*
X2353765Y1304236D01*
X2351764Y1310336D01*
X2351764Y1328735D01*
X2351764Y1314436D02*
G01*
X2329264Y1300136D01*
X2372165Y1257935D02*
G01*
X2329264Y1278436D01*
X2372165Y1286635D02*
G01*
X2372165Y1257935D01*
X2357865Y1217836D02*
G01*
X2351764Y1219935D01*
X2347664Y1224036D01*
X2345564Y1230136D01*
X2345564Y1232235D01*
X2347664Y1238335D01*
X2351764Y1242435D01*
X2357865Y1244436D01*
X2359865Y1244436D01*
X2366064Y1242435D01*
X2370164Y1238335D01*
X2372165Y1232235D01*
X2372165Y1230136D01*
X2370164Y1224036D01*
X2366064Y1219935D01*
X2357865Y1217836D01*
X2347664Y1217836D01*
X2337365Y1219935D01*
X2331265Y1224036D01*
X2329264Y1230136D01*
X2329264Y1234236D01*
X2331265Y1240336D01*
X2335365Y1242435D01*
X2472165Y1328735D02*
G01*
X2429264Y1328735D01*
X2472165Y1328735D02*
G01*
X2472165Y1310336D01*
X2470164Y1304236D01*
X2468064Y1302136D01*
X2463964Y1300136D01*
X2459865Y1300136D01*
X2455765Y1302136D01*
X2453765Y1304236D01*
X2451764Y1310336D01*
X2451764Y1328735D01*
X2451764Y1314436D02*
G01*
X2429264Y1300136D01*
X2472165Y1276336D02*
G01*
X2470164Y1282536D01*
X2466064Y1284535D01*
X2461965Y1284535D01*
X2457865Y1282536D01*
X2455765Y1278436D01*
X2453765Y1270235D01*
X2451764Y1264135D01*
X2447664Y1260036D01*
X2443564Y1257935D01*
X2437365Y1257935D01*
X2433265Y1260036D01*
X2431265Y1262035D01*
X2429264Y1268236D01*
X2429264Y1276336D01*
X2431265Y1282536D01*
X2433265Y1284535D01*
X2437365Y1286635D01*
X2443564Y1286635D01*
X2447664Y1284535D01*
X2451764Y1280435D01*
X2453765Y1274335D01*
X2455765Y1266136D01*
X2457865Y1262035D01*
X2461965Y1260036D01*
X2466064Y1260036D01*
X2470164Y1262035D01*
X2472165Y1268236D01*
X2472165Y1276336D01*
X2472165Y1232235D02*
G01*
X2470164Y1238335D01*
X2463964Y1242435D01*
X2453765Y1244436D01*
X2447664Y1244436D01*
X2437365Y1242435D01*
X2431265Y1238335D01*
X2429264Y1232235D01*
X2429264Y1228135D01*
X2431265Y1221936D01*
X2437365Y1217836D01*
X2447664Y1215835D01*
X2453765Y1215835D01*
X2463964Y1217836D01*
X2470164Y1221936D01*
X2472165Y1228135D01*
X2472165Y1232235D01*
X2572165Y1328735D02*
G01*
X2529264Y1328735D01*
X2572165Y1328735D02*
G01*
X2572165Y1310336D01*
X2570164Y1304236D01*
X2568064Y1302136D01*
X2563964Y1300136D01*
X2559865Y1300136D01*
X2555765Y1302136D01*
X2553765Y1304236D01*
X2551764Y1310336D01*
X2551764Y1328735D01*
X2551764Y1314436D02*
G01*
X2529264Y1300136D01*
X2572165Y1276336D02*
G01*
X2570164Y1282536D01*
X2566064Y1284535D01*
X2561965Y1284535D01*
X2557865Y1282536D01*
X2555765Y1278436D01*
X2553765Y1270235D01*
X2551764Y1264135D01*
X2547664Y1260036D01*
X2543564Y1257935D01*
X2537365Y1257935D01*
X2533265Y1260036D01*
X2531265Y1262035D01*
X2529264Y1268236D01*
X2529264Y1276336D01*
X2531265Y1282536D01*
X2533265Y1284535D01*
X2537365Y1286635D01*
X2543564Y1286635D01*
X2547664Y1284535D01*
X2551764Y1280435D01*
X2553765Y1274335D01*
X2555765Y1266136D01*
X2557865Y1262035D01*
X2561965Y1260036D01*
X2566064Y1260036D01*
X2570164Y1262035D01*
X2572165Y1268236D01*
X2572165Y1276336D01*
X2563964Y1244436D02*
G01*
X2566064Y1240336D01*
X2572165Y1234236D01*
X2529264Y1234236D01*
X2672165Y1328735D02*
G01*
X2629264Y1328735D01*
X2672165Y1328735D02*
G01*
X2672165Y1310336D01*
X2670164Y1304236D01*
X2668064Y1302136D01*
X2663964Y1300136D01*
X2659865Y1300136D01*
X2655765Y1302136D01*
X2653765Y1304236D01*
X2651764Y1310336D01*
X2651764Y1328735D01*
X2651764Y1314436D02*
G01*
X2629264Y1300136D01*
X2672165Y1276336D02*
G01*
X2670164Y1282536D01*
X2666064Y1284535D01*
X2661965Y1284535D01*
X2657865Y1282536D01*
X2655765Y1278436D01*
X2653765Y1270235D01*
X2651764Y1264135D01*
X2647664Y1260036D01*
X2643564Y1257935D01*
X2637365Y1257935D01*
X2633265Y1260036D01*
X2631265Y1262035D01*
X2629264Y1268236D01*
X2629264Y1276336D01*
X2631265Y1282536D01*
X2633265Y1284535D01*
X2637365Y1286635D01*
X2643564Y1286635D01*
X2647664Y1284535D01*
X2651764Y1280435D01*
X2653765Y1274335D01*
X2655765Y1266136D01*
X2657865Y1262035D01*
X2661965Y1260036D01*
X2666064Y1260036D01*
X2670164Y1262035D01*
X2672165Y1268236D01*
X2672165Y1276336D01*
X2661965Y1242435D02*
G01*
X2663964Y1242435D01*
X2668064Y1240336D01*
X2670164Y1238335D01*
X2672165Y1234236D01*
X2672165Y1226035D01*
X2670164Y1221936D01*
X2668064Y1219935D01*
X2663964Y1217836D01*
X2659865Y1217836D01*
X2655765Y1219935D01*
X2649665Y1224036D01*
X2629264Y1244436D01*
X2629264Y1215835D01*
X2772165Y1328735D02*
G01*
X2729264Y1328735D01*
X2772165Y1328735D02*
G01*
X2772165Y1310336D01*
X2770164Y1304236D01*
X2768064Y1302136D01*
X2763964Y1300136D01*
X2759865Y1300136D01*
X2755765Y1302136D01*
X2753765Y1304236D01*
X2751764Y1310336D01*
X2751764Y1328735D01*
X2751764Y1314436D02*
G01*
X2729264Y1300136D01*
X2772165Y1276336D02*
G01*
X2770164Y1282536D01*
X2766064Y1284535D01*
X2761965Y1284535D01*
X2757865Y1282536D01*
X2755765Y1278436D01*
X2753765Y1270235D01*
X2751764Y1264135D01*
X2747664Y1260036D01*
X2743564Y1257935D01*
X2737365Y1257935D01*
X2733265Y1260036D01*
X2731265Y1262035D01*
X2729264Y1268236D01*
X2729264Y1276336D01*
X2731265Y1282536D01*
X2733265Y1284535D01*
X2737365Y1286635D01*
X2743564Y1286635D01*
X2747664Y1284535D01*
X2751764Y1280435D01*
X2753765Y1274335D01*
X2755765Y1266136D01*
X2757865Y1262035D01*
X2761965Y1260036D01*
X2766064Y1260036D01*
X2770164Y1262035D01*
X2772165Y1268236D01*
X2772165Y1276336D01*
X2772165Y1240336D02*
G01*
X2772165Y1217836D01*
X2755765Y1230136D01*
X2755765Y1224036D01*
X2753765Y1219935D01*
X2751764Y1217836D01*
X2745564Y1215835D01*
X2741464Y1215835D01*
X2735365Y1217836D01*
X2731265Y1221936D01*
X2729264Y1228135D01*
X2729264Y1234236D01*
X2731265Y1240336D01*
X2733265Y1242435D01*
X2737365Y1244436D01*
X2872164Y1328735D02*
G01*
X2829264Y1328735D01*
X2872164Y1328735D02*
G01*
X2872164Y1310336D01*
X2870164Y1304236D01*
X2868064Y1302136D01*
X2863963Y1300136D01*
X2859863Y1300136D01*
X2855763Y1302136D01*
X2853764Y1304236D01*
X2851764Y1310336D01*
X2851764Y1328735D01*
X2851764Y1314436D02*
G01*
X2829264Y1300136D01*
X2872164Y1276336D02*
G01*
X2870164Y1282536D01*
X2866063Y1284535D01*
X2861963Y1284535D01*
X2857863Y1282536D01*
X2855763Y1278436D01*
X2853764Y1270235D01*
X2851764Y1264135D01*
X2847664Y1260036D01*
X2843563Y1257935D01*
X2837363Y1257935D01*
X2833263Y1260036D01*
X2831264Y1262035D01*
X2829264Y1268236D01*
X2829264Y1276336D01*
X2831264Y1282536D01*
X2833263Y1284535D01*
X2837363Y1286635D01*
X2843563Y1286635D01*
X2847664Y1284535D01*
X2851764Y1280435D01*
X2853764Y1274335D01*
X2855763Y1266136D01*
X2857863Y1262035D01*
X2861963Y1260036D01*
X2866063Y1260036D01*
X2870164Y1262035D01*
X2872164Y1268236D01*
X2872164Y1276336D01*
X2872164Y1224036D02*
G01*
X2843563Y1244436D01*
X2843563Y1213735D01*
X2872164Y1224036D02*
G01*
X2829264Y1224036D01*
X2972164Y1328735D02*
G01*
X2929264Y1328735D01*
X2972164Y1328735D02*
G01*
X2972164Y1310336D01*
X2970164Y1304236D01*
X2968064Y1302136D01*
X2963963Y1300136D01*
X2959863Y1300136D01*
X2955763Y1302136D01*
X2953764Y1304236D01*
X2951764Y1310336D01*
X2951764Y1328735D01*
X2951764Y1314436D02*
G01*
X2929264Y1300136D01*
X2972164Y1276336D02*
G01*
X2970164Y1282536D01*
X2966063Y1284535D01*
X2961963Y1284535D01*
X2957863Y1282536D01*
X2955763Y1278436D01*
X2953764Y1270235D01*
X2951764Y1264135D01*
X2947664Y1260036D01*
X2943563Y1257935D01*
X2937363Y1257935D01*
X2933263Y1260036D01*
X2931264Y1262035D01*
X2929264Y1268236D01*
X2929264Y1276336D01*
X2931264Y1282536D01*
X2933263Y1284535D01*
X2937363Y1286635D01*
X2943563Y1286635D01*
X2947664Y1284535D01*
X2951764Y1280435D01*
X2953764Y1274335D01*
X2955763Y1266136D01*
X2957863Y1262035D01*
X2961963Y1260036D01*
X2966063Y1260036D01*
X2970164Y1262035D01*
X2972164Y1268236D01*
X2972164Y1276336D01*
X2972164Y1219935D02*
G01*
X2972164Y1240336D01*
X2953764Y1242435D01*
X2955763Y1240336D01*
X2957863Y1234236D01*
X2957863Y1228135D01*
X2955763Y1221936D01*
X2951764Y1217836D01*
X2945564Y1215835D01*
X2941463Y1215835D01*
X2935363Y1217836D01*
X2931264Y1221936D01*
X2929264Y1228135D01*
X2929264Y1234236D01*
X2931264Y1240336D01*
X2933263Y1242435D01*
X2937363Y1244436D01*
X3072164Y1328735D02*
G01*
X3029264Y1328735D01*
X3072164Y1328735D02*
G01*
X3072164Y1310336D01*
X3070164Y1304236D01*
X3068064Y1302136D01*
X3063963Y1300136D01*
X3059863Y1300136D01*
X3055763Y1302136D01*
X3053764Y1304236D01*
X3051764Y1310336D01*
X3051764Y1328735D01*
X3051764Y1314436D02*
G01*
X3029264Y1300136D01*
X3072164Y1276336D02*
G01*
X3070164Y1282536D01*
X3066063Y1284535D01*
X3061963Y1284535D01*
X3057863Y1282536D01*
X3055763Y1278436D01*
X3053764Y1270235D01*
X3051764Y1264135D01*
X3047664Y1260036D01*
X3043563Y1257935D01*
X3037363Y1257935D01*
X3033263Y1260036D01*
X3031264Y1262035D01*
X3029264Y1268236D01*
X3029264Y1276336D01*
X3031264Y1282536D01*
X3033263Y1284535D01*
X3037363Y1286635D01*
X3043563Y1286635D01*
X3047664Y1284535D01*
X3051764Y1280435D01*
X3053764Y1274335D01*
X3055763Y1266136D01*
X3057863Y1262035D01*
X3061963Y1260036D01*
X3066063Y1260036D01*
X3070164Y1262035D01*
X3072164Y1268236D01*
X3072164Y1276336D01*
X3066063Y1219935D02*
G01*
X3070164Y1221936D01*
X3072164Y1228135D01*
X3072164Y1232235D01*
X3070164Y1238335D01*
X3063963Y1242435D01*
X3053764Y1244436D01*
X3043563Y1244436D01*
X3035363Y1242435D01*
X3031264Y1238335D01*
X3029264Y1232235D01*
X3029264Y1230136D01*
X3031264Y1224036D01*
X3035363Y1219935D01*
X3041463Y1217836D01*
X3043563Y1217836D01*
X3049664Y1219935D01*
X3053764Y1224036D01*
X3055763Y1230136D01*
X3055763Y1232235D01*
X3053764Y1238335D01*
X3049664Y1242435D01*
X3043563Y1244436D01*
X3172164Y1328735D02*
G01*
X3129264Y1328735D01*
X3172164Y1328735D02*
G01*
X3172164Y1310336D01*
X3170164Y1304236D01*
X3168064Y1302136D01*
X3163963Y1300136D01*
X3159863Y1300136D01*
X3155763Y1302136D01*
X3153764Y1304236D01*
X3151764Y1310336D01*
X3151764Y1328735D01*
X3151764Y1314436D02*
G01*
X3129264Y1300136D01*
X3172164Y1276336D02*
G01*
X3170164Y1282536D01*
X3166063Y1284535D01*
X3161963Y1284535D01*
X3157863Y1282536D01*
X3155763Y1278436D01*
X3153764Y1270235D01*
X3151764Y1264135D01*
X3147664Y1260036D01*
X3143563Y1257935D01*
X3137363Y1257935D01*
X3133263Y1260036D01*
X3131264Y1262035D01*
X3129264Y1268236D01*
X3129264Y1276336D01*
X3131264Y1282536D01*
X3133263Y1284535D01*
X3137363Y1286635D01*
X3143563Y1286635D01*
X3147664Y1284535D01*
X3151764Y1280435D01*
X3153764Y1274335D01*
X3155763Y1266136D01*
X3157863Y1262035D01*
X3161963Y1260036D01*
X3166063Y1260036D01*
X3170164Y1262035D01*
X3172164Y1268236D01*
X3172164Y1276336D01*
X3172164Y1215835D02*
G01*
X3129264Y1236235D01*
X3172164Y1244436D02*
G01*
X3172164Y1215835D01*
X3272164Y1328735D02*
G01*
X3229264Y1328735D01*
X3272164Y1328735D02*
G01*
X3272164Y1310336D01*
X3270164Y1304236D01*
X3268064Y1302136D01*
X3263963Y1300136D01*
X3259863Y1300136D01*
X3255763Y1302136D01*
X3253764Y1304236D01*
X3251764Y1310336D01*
X3251764Y1328735D01*
X3251764Y1314436D02*
G01*
X3229264Y1300136D01*
X3272164Y1276336D02*
G01*
X3270164Y1282536D01*
X3266063Y1284535D01*
X3261963Y1284535D01*
X3257863Y1282536D01*
X3255763Y1278436D01*
X3253764Y1270235D01*
X3251764Y1264135D01*
X3247664Y1260036D01*
X3243563Y1257935D01*
X3237363Y1257935D01*
X3233263Y1260036D01*
X3231264Y1262035D01*
X3229264Y1268236D01*
X3229264Y1276336D01*
X3231264Y1282536D01*
X3233263Y1284535D01*
X3237363Y1286635D01*
X3243563Y1286635D01*
X3247664Y1284535D01*
X3251764Y1280435D01*
X3253764Y1274335D01*
X3255763Y1266136D01*
X3257863Y1262035D01*
X3261963Y1260036D01*
X3266063Y1260036D01*
X3270164Y1262035D01*
X3272164Y1268236D01*
X3272164Y1276336D01*
X3272164Y1234236D02*
G01*
X3270164Y1240336D01*
X3266063Y1242435D01*
X3261963Y1242435D01*
X3257863Y1240336D01*
X3255763Y1236235D01*
X3253764Y1228135D01*
X3251764Y1221936D01*
X3247664Y1217836D01*
X3243563Y1215835D01*
X3237363Y1215835D01*
X3233263Y1217836D01*
X3231264Y1219935D01*
X3229264Y1226035D01*
X3229264Y1234236D01*
X3231264Y1240336D01*
X3233263Y1242435D01*
X3237363Y1244436D01*
X3243563Y1244436D01*
X3247664Y1242435D01*
X3251764Y1238335D01*
X3253764Y1232235D01*
X3255763Y1224036D01*
X3257863Y1219935D01*
X3261963Y1217836D01*
X3266063Y1217836D01*
X3270164Y1219935D01*
X3272164Y1226035D01*
X3272164Y1234236D01*
X3372163Y1328735D02*
G01*
X3329263Y1328735D01*
X3372163Y1328735D02*
G01*
X3372163Y1310336D01*
X3370163Y1304236D01*
X3368063Y1302136D01*
X3363963Y1300136D01*
X3359862Y1300136D01*
X3355762Y1302136D01*
X3353762Y1304236D01*
X3351763Y1310336D01*
X3351763Y1328735D01*
X3351763Y1314436D02*
G01*
X3329263Y1300136D01*
X3372163Y1276336D02*
G01*
X3370163Y1282536D01*
X3366063Y1284535D01*
X3361962Y1284535D01*
X3357862Y1282536D01*
X3355762Y1278436D01*
X3353762Y1270235D01*
X3351763Y1264135D01*
X3347663Y1260036D01*
X3343563Y1257935D01*
X3337362Y1257935D01*
X3333262Y1260036D01*
X3331262Y1262035D01*
X3329263Y1268236D01*
X3329263Y1276336D01*
X3331262Y1282536D01*
X3333262Y1284535D01*
X3337362Y1286635D01*
X3343563Y1286635D01*
X3347663Y1284535D01*
X3351763Y1280435D01*
X3353762Y1274335D01*
X3355762Y1266136D01*
X3357862Y1262035D01*
X3361962Y1260036D01*
X3366063Y1260036D01*
X3370163Y1262035D01*
X3372163Y1268236D01*
X3372163Y1276336D01*
X3357862Y1217836D02*
G01*
X3351763Y1219935D01*
X3347663Y1224036D01*
X3345563Y1230136D01*
X3345563Y1232235D01*
X3347663Y1238335D01*
X3351763Y1242435D01*
X3357862Y1244436D01*
X3359862Y1244436D01*
X3366063Y1242435D01*
X3370163Y1238335D01*
X3372163Y1232235D01*
X3372163Y1230136D01*
X3370163Y1224036D01*
X3366063Y1219935D01*
X3357862Y1217836D01*
X3347663Y1217836D01*
X3337362Y1219935D01*
X3331262Y1224036D01*
X3329263Y1230136D01*
X3329263Y1234236D01*
X3331262Y1240336D01*
X3335362Y1242435D01*
X3472163Y1328735D02*
G01*
X3429263Y1328735D01*
X3472163Y1328735D02*
G01*
X3472163Y1310336D01*
X3470163Y1304236D01*
X3468063Y1302136D01*
X3463963Y1300136D01*
X3459862Y1300136D01*
X3455762Y1302136D01*
X3453762Y1304236D01*
X3451763Y1310336D01*
X3451763Y1328735D01*
X3451763Y1314436D02*
G01*
X3429263Y1300136D01*
X3457862Y1260036D02*
G01*
X3451763Y1262035D01*
X3447663Y1266136D01*
X3445563Y1272235D01*
X3445563Y1274335D01*
X3447663Y1280435D01*
X3451763Y1284535D01*
X3457862Y1286635D01*
X3459862Y1286635D01*
X3466063Y1284535D01*
X3470163Y1280435D01*
X3472163Y1274335D01*
X3472163Y1272235D01*
X3470163Y1266136D01*
X3466063Y1262035D01*
X3457862Y1260036D01*
X3447663Y1260036D01*
X3437362Y1262035D01*
X3431262Y1266136D01*
X3429263Y1272235D01*
X3429263Y1276336D01*
X3431262Y1282536D01*
X3435362Y1284535D01*
X3472163Y1234236D02*
G01*
X3470163Y1240336D01*
X3463963Y1244436D01*
X3453762Y1246536D01*
X3447663Y1246536D01*
X3437362Y1244436D01*
X3431262Y1240336D01*
X3429263Y1234236D01*
X3429263Y1230136D01*
X3431262Y1224036D01*
X3437362Y1219935D01*
X3447663Y1217836D01*
X3453762Y1217836D01*
X3463963Y1219935D01*
X3470163Y1224036D01*
X3472163Y1230136D01*
X3472163Y1234236D01*
X571981Y448027D02*
G01*
X534382Y448027D01*
X571981Y448027D02*
G01*
X571981Y431927D01*
X570181Y426527D01*
X568382Y424728D01*
X564881Y422928D01*
X561282Y422928D01*
X557681Y424728D01*
X555882Y426527D01*
X554081Y431927D01*
X554081Y448027D01*
X554081Y435527D02*
G01*
X534382Y422928D01*
X559481Y387928D02*
G01*
X554081Y389728D01*
X550581Y393227D01*
X548782Y398627D01*
X548782Y400428D01*
X550581Y405828D01*
X554081Y409328D01*
X559481Y411127D01*
X561282Y411127D01*
X566682Y409328D01*
X570181Y405828D01*
X571981Y400428D01*
X571981Y398627D01*
X570181Y393227D01*
X566682Y389728D01*
X559481Y387928D01*
X550581Y387928D01*
X541581Y389728D01*
X536181Y393227D01*
X534382Y398627D01*
X534382Y402228D01*
X536181Y407627D01*
X539782Y409328D01*
X564881Y376127D02*
G01*
X566682Y372528D01*
X571981Y367127D01*
X534382Y367127D01*
X671981Y448027D02*
G01*
X634382Y448027D01*
X671981Y448027D02*
G01*
X671981Y431927D01*
X670181Y426527D01*
X668382Y424728D01*
X664881Y422928D01*
X661282Y422928D01*
X657681Y424728D01*
X655882Y426527D01*
X654081Y431927D01*
X654081Y448027D01*
X654081Y435527D02*
G01*
X634382Y422928D01*
X659481Y387928D02*
G01*
X654081Y389728D01*
X650581Y393227D01*
X648782Y398627D01*
X648782Y400428D01*
X650581Y405828D01*
X654081Y409328D01*
X659481Y411127D01*
X661282Y411127D01*
X666682Y409328D01*
X670181Y405828D01*
X671981Y400428D01*
X671981Y398627D01*
X670181Y393227D01*
X666682Y389728D01*
X659481Y387928D01*
X650581Y387928D01*
X641581Y389728D01*
X636181Y393227D01*
X634382Y398627D01*
X634382Y402228D01*
X636181Y407627D01*
X639782Y409328D01*
X663081Y374328D02*
G01*
X664881Y374328D01*
X668382Y372528D01*
X670181Y370727D01*
X671981Y367127D01*
X671981Y360028D01*
X670181Y356428D01*
X668382Y354627D01*
X664881Y352827D01*
X661282Y352827D01*
X657681Y354627D01*
X652282Y358227D01*
X634382Y376127D01*
X634382Y351028D01*
X771981Y448027D02*
G01*
X734382Y448027D01*
X771981Y448027D02*
G01*
X771981Y431927D01*
X770182Y426527D01*
X768382Y424728D01*
X764881Y422928D01*
X761282Y422928D01*
X757681Y424728D01*
X755882Y426527D01*
X754081Y431927D01*
X754081Y448027D01*
X754081Y435527D02*
G01*
X734382Y422928D01*
X759481Y387928D02*
G01*
X754081Y389728D01*
X750581Y393227D01*
X748782Y398627D01*
X748782Y400428D01*
X750581Y405828D01*
X754081Y409328D01*
X759481Y411127D01*
X761282Y411127D01*
X766682Y409328D01*
X770182Y405828D01*
X771981Y400428D01*
X771981Y398627D01*
X770182Y393227D01*
X766682Y389728D01*
X759481Y387928D01*
X750581Y387928D01*
X741581Y389728D01*
X736181Y393227D01*
X734382Y398627D01*
X734382Y402228D01*
X736181Y407627D01*
X739782Y409328D01*
X771981Y372528D02*
G01*
X771981Y352827D01*
X757681Y363528D01*
X757681Y358227D01*
X755882Y354627D01*
X754081Y352827D01*
X748782Y351028D01*
X745181Y351028D01*
X739782Y352827D01*
X736181Y356428D01*
X734382Y361727D01*
X734382Y367127D01*
X736181Y372528D01*
X737982Y374328D01*
X741581Y376127D01*
X871980Y448027D02*
G01*
X834381Y448027D01*
X871980Y448027D02*
G01*
X871980Y431927D01*
X870181Y426527D01*
X868380Y424726D01*
X864880Y422926D01*
X861280Y422926D01*
X857681Y424726D01*
X855880Y426527D01*
X854080Y431927D01*
X854080Y448027D01*
X854080Y435527D02*
G01*
X834381Y422926D01*
X859480Y387926D02*
G01*
X854080Y389726D01*
X850581Y393227D01*
X848780Y398627D01*
X848780Y400426D01*
X850581Y405826D01*
X854080Y409326D01*
X859480Y411127D01*
X861280Y411127D01*
X866680Y409326D01*
X870181Y405826D01*
X871980Y400426D01*
X871980Y398627D01*
X870181Y393227D01*
X866680Y389726D01*
X859480Y387926D01*
X850581Y387926D01*
X841580Y389726D01*
X836180Y393227D01*
X834381Y398627D01*
X834381Y402226D01*
X836180Y407627D01*
X839781Y409326D01*
X871980Y358227D02*
G01*
X846980Y376127D01*
X846980Y349227D01*
X871980Y358227D02*
G01*
X834381Y358227D01*
X971980Y448027D02*
G01*
X934381Y448027D01*
X971980Y448027D02*
G01*
X971980Y431927D01*
X970181Y426527D01*
X968380Y424726D01*
X964880Y422926D01*
X961280Y422926D01*
X957681Y424726D01*
X955880Y426527D01*
X954080Y431927D01*
X954080Y448027D01*
X954080Y435527D02*
G01*
X934381Y422926D01*
X959480Y387926D02*
G01*
X954080Y389726D01*
X950581Y393227D01*
X948780Y398627D01*
X948780Y400426D01*
X950581Y405826D01*
X954080Y409326D01*
X959480Y411127D01*
X961280Y411127D01*
X966680Y409326D01*
X970181Y405826D01*
X971980Y400426D01*
X971980Y398627D01*
X970181Y393227D01*
X966680Y389726D01*
X959480Y387926D01*
X950581Y387926D01*
X941580Y389726D01*
X936180Y393227D01*
X934381Y398627D01*
X934381Y402226D01*
X936180Y407627D01*
X939781Y409326D01*
X971980Y354627D02*
G01*
X971980Y372527D01*
X955880Y374326D01*
X957681Y372527D01*
X959480Y367127D01*
X959480Y361727D01*
X957681Y356426D01*
X954080Y352827D01*
X948780Y351026D01*
X945181Y351026D01*
X939781Y352827D01*
X936180Y356426D01*
X934381Y361727D01*
X934381Y367127D01*
X936180Y372527D01*
X937980Y374326D01*
X941580Y376127D01*
X1071980Y448027D02*
G01*
X1034381Y448027D01*
X1071980Y448027D02*
G01*
X1071980Y431927D01*
X1070181Y426527D01*
X1068380Y424726D01*
X1064880Y422926D01*
X1061280Y422926D01*
X1057681Y424726D01*
X1055880Y426527D01*
X1054080Y431927D01*
X1054080Y448027D01*
X1054080Y435527D02*
G01*
X1034381Y422926D01*
X1059480Y387926D02*
G01*
X1054080Y389726D01*
X1050581Y393227D01*
X1048780Y398627D01*
X1048780Y400426D01*
X1050581Y405826D01*
X1054080Y409326D01*
X1059480Y411127D01*
X1061280Y411127D01*
X1066680Y409326D01*
X1070181Y405826D01*
X1071980Y400426D01*
X1071980Y398627D01*
X1070181Y393227D01*
X1066680Y389726D01*
X1059480Y387926D01*
X1050581Y387926D01*
X1041580Y389726D01*
X1036180Y393227D01*
X1034381Y398627D01*
X1034381Y402226D01*
X1036180Y407627D01*
X1039781Y409326D01*
X1066680Y354627D02*
G01*
X1070181Y356426D01*
X1071980Y361727D01*
X1071980Y365327D01*
X1070181Y370727D01*
X1064880Y374326D01*
X1055880Y376127D01*
X1046980Y376127D01*
X1039781Y374326D01*
X1036180Y370727D01*
X1034381Y365327D01*
X1034381Y363526D01*
X1036180Y358227D01*
X1039781Y354627D01*
X1045181Y352827D01*
X1046980Y352827D01*
X1052281Y354627D01*
X1055880Y358227D01*
X1057681Y363526D01*
X1057681Y365327D01*
X1055880Y370727D01*
X1052281Y374326D01*
X1046980Y376127D01*
X1171980Y448027D02*
G01*
X1134381Y448027D01*
X1171980Y448027D02*
G01*
X1171980Y431927D01*
X1170181Y426527D01*
X1168380Y424726D01*
X1164880Y422926D01*
X1161280Y422926D01*
X1157681Y424726D01*
X1155880Y426527D01*
X1154080Y431927D01*
X1154080Y448027D01*
X1154080Y435527D02*
G01*
X1134381Y422926D01*
X1159480Y387926D02*
G01*
X1154080Y389726D01*
X1150581Y393227D01*
X1148780Y398627D01*
X1148780Y400426D01*
X1150581Y405826D01*
X1154080Y409326D01*
X1159480Y411127D01*
X1161280Y411127D01*
X1166680Y409326D01*
X1170181Y405826D01*
X1171980Y400426D01*
X1171980Y398627D01*
X1170181Y393227D01*
X1166680Y389726D01*
X1159480Y387926D01*
X1150581Y387926D01*
X1141580Y389726D01*
X1136180Y393227D01*
X1134381Y398627D01*
X1134381Y402226D01*
X1136180Y407627D01*
X1139781Y409326D01*
X1171980Y351026D02*
G01*
X1134381Y368926D01*
X1171980Y376127D02*
G01*
X1171980Y351026D01*
X1271980Y448027D02*
G01*
X1234381Y448027D01*
X1271980Y448027D02*
G01*
X1271980Y431927D01*
X1270181Y426527D01*
X1268380Y424726D01*
X1264880Y422926D01*
X1261280Y422926D01*
X1257681Y424726D01*
X1255880Y426527D01*
X1254080Y431927D01*
X1254080Y448027D01*
X1254080Y435527D02*
G01*
X1234381Y422926D01*
X1259480Y387926D02*
G01*
X1254080Y389726D01*
X1250581Y393227D01*
X1248780Y398627D01*
X1248780Y400426D01*
X1250581Y405826D01*
X1254080Y409326D01*
X1259480Y411127D01*
X1261280Y411127D01*
X1266680Y409326D01*
X1270181Y405826D01*
X1271980Y400426D01*
X1271980Y398627D01*
X1270181Y393227D01*
X1266680Y389726D01*
X1259480Y387926D01*
X1250581Y387926D01*
X1241580Y389726D01*
X1236180Y393227D01*
X1234381Y398627D01*
X1234381Y402226D01*
X1236180Y407627D01*
X1239781Y409326D01*
X1271980Y367127D02*
G01*
X1270181Y372527D01*
X1266680Y374326D01*
X1263081Y374326D01*
X1259480Y372527D01*
X1257681Y368926D01*
X1255880Y361727D01*
X1254080Y356426D01*
X1250581Y352827D01*
X1246980Y351026D01*
X1241580Y351026D01*
X1237980Y352827D01*
X1236180Y354627D01*
X1234381Y360027D01*
X1234381Y367127D01*
X1236180Y372527D01*
X1237980Y374326D01*
X1241580Y376127D01*
X1246980Y376127D01*
X1250581Y374326D01*
X1254080Y370727D01*
X1255880Y365327D01*
X1257681Y358227D01*
X1259480Y354627D01*
X1263081Y352827D01*
X1266680Y352827D01*
X1270181Y354627D01*
X1271980Y360027D01*
X1271980Y367127D01*
X1371980Y448025D02*
G01*
X1334380Y448025D01*
X1371980Y448025D02*
G01*
X1371980Y431925D01*
X1370180Y426525D01*
X1368379Y424726D01*
X1364880Y422926D01*
X1361279Y422926D01*
X1357680Y424726D01*
X1355879Y426525D01*
X1354080Y431925D01*
X1354080Y448025D01*
X1354080Y435525D02*
G01*
X1334380Y422926D01*
X1359480Y387926D02*
G01*
X1354080Y389726D01*
X1350580Y393225D01*
X1348779Y398625D01*
X1348779Y400426D01*
X1350580Y405826D01*
X1354080Y409326D01*
X1359480Y411125D01*
X1361279Y411125D01*
X1366679Y409326D01*
X1370180Y405826D01*
X1371980Y400426D01*
X1371980Y398625D01*
X1370180Y393225D01*
X1366679Y389726D01*
X1359480Y387926D01*
X1350580Y387926D01*
X1341580Y389726D01*
X1336180Y393225D01*
X1334380Y398625D01*
X1334380Y402226D01*
X1336180Y407626D01*
X1339780Y409326D01*
X1359480Y352826D02*
G01*
X1354080Y354625D01*
X1350580Y358225D01*
X1348779Y363526D01*
X1348779Y365326D01*
X1350580Y370725D01*
X1354080Y374326D01*
X1359480Y376125D01*
X1361279Y376125D01*
X1366679Y374326D01*
X1370180Y370725D01*
X1371980Y365326D01*
X1371980Y363526D01*
X1370180Y358225D01*
X1366679Y354625D01*
X1359480Y352826D01*
X1350580Y352826D01*
X1341580Y354625D01*
X1336180Y358225D01*
X1334380Y363526D01*
X1334380Y367125D01*
X1336180Y372525D01*
X1339780Y374326D01*
X1471980Y448025D02*
G01*
X1434380Y448025D01*
X1471980Y448025D02*
G01*
X1471980Y431925D01*
X1470180Y426525D01*
X1468379Y424726D01*
X1464880Y422926D01*
X1461279Y422926D01*
X1457680Y424726D01*
X1455879Y426525D01*
X1454080Y431925D01*
X1454080Y448025D01*
X1454080Y435525D02*
G01*
X1434380Y422926D01*
X1464880Y411125D02*
G01*
X1466679Y407626D01*
X1471980Y402226D01*
X1434380Y402226D01*
X1471980Y379625D02*
G01*
X1470180Y385025D01*
X1464880Y388625D01*
X1455879Y390426D01*
X1450580Y390426D01*
X1441580Y388625D01*
X1436180Y385025D01*
X1434380Y379625D01*
X1434380Y376125D01*
X1436180Y370725D01*
X1441580Y367125D01*
X1450580Y365326D01*
X1455879Y365326D01*
X1464880Y367125D01*
X1470180Y370725D01*
X1471980Y376125D01*
X1471980Y379625D01*
X1471980Y342826D02*
G01*
X1470180Y348126D01*
X1464880Y351725D01*
X1455879Y353526D01*
X1450580Y353526D01*
X1441580Y351725D01*
X1436180Y348126D01*
X1434380Y342826D01*
X1434380Y339225D01*
X1436180Y333825D01*
X1441580Y330326D01*
X1450580Y328526D01*
X1455879Y328526D01*
X1464880Y330326D01*
X1470180Y333825D01*
X1471980Y339225D01*
X1471980Y342826D01*
X1571980Y448025D02*
G01*
X1534380Y448025D01*
X1571980Y448025D02*
G01*
X1571980Y431925D01*
X1570180Y426525D01*
X1568379Y424726D01*
X1564880Y422926D01*
X1561279Y422926D01*
X1557680Y424726D01*
X1555879Y426525D01*
X1554080Y431925D01*
X1554080Y448025D01*
X1554080Y435525D02*
G01*
X1534380Y422926D01*
X1564880Y411125D02*
G01*
X1566679Y407626D01*
X1571980Y402226D01*
X1534380Y402226D01*
X1571980Y379625D02*
G01*
X1570180Y385025D01*
X1564880Y388625D01*
X1555879Y390426D01*
X1550580Y390426D01*
X1541580Y388625D01*
X1536180Y385025D01*
X1534380Y379625D01*
X1534380Y376125D01*
X1536180Y370725D01*
X1541580Y367125D01*
X1550580Y365326D01*
X1555879Y365326D01*
X1564880Y367125D01*
X1570180Y370725D01*
X1571980Y376125D01*
X1571980Y379625D01*
X1564880Y353526D02*
G01*
X1566679Y349926D01*
X1571980Y344625D01*
X1534380Y344625D01*
X1671980Y448025D02*
G01*
X1634380Y448025D01*
X1671980Y448025D02*
G01*
X1671980Y431925D01*
X1670180Y426525D01*
X1668379Y424726D01*
X1664880Y422926D01*
X1661279Y422926D01*
X1657680Y424726D01*
X1655879Y426525D01*
X1654080Y431925D01*
X1654080Y448025D01*
X1654080Y435525D02*
G01*
X1634380Y422926D01*
X1664880Y411125D02*
G01*
X1666679Y407626D01*
X1671980Y402226D01*
X1634380Y402226D01*
X1671980Y379625D02*
G01*
X1670180Y385025D01*
X1664880Y388625D01*
X1655879Y390426D01*
X1650580Y390426D01*
X1641580Y388625D01*
X1636180Y385025D01*
X1634380Y379625D01*
X1634380Y376125D01*
X1636180Y370725D01*
X1641580Y367125D01*
X1650580Y365326D01*
X1655879Y365326D01*
X1664880Y367125D01*
X1670180Y370725D01*
X1671980Y376125D01*
X1671980Y379625D01*
X1663080Y351725D02*
G01*
X1664880Y351725D01*
X1668379Y349926D01*
X1670180Y348126D01*
X1671980Y344625D01*
X1671980Y337426D01*
X1670180Y333825D01*
X1668379Y332026D01*
X1664880Y330326D01*
X1661279Y330326D01*
X1657680Y332026D01*
X1652280Y335626D01*
X1634380Y353526D01*
X1634380Y328526D01*
X1771980Y448025D02*
G01*
X1734380Y448025D01*
X1771980Y448025D02*
G01*
X1771980Y431925D01*
X1770180Y426525D01*
X1768379Y424726D01*
X1764880Y422926D01*
X1761279Y422926D01*
X1757680Y424726D01*
X1755879Y426525D01*
X1754080Y431925D01*
X1754080Y448025D01*
X1754080Y435525D02*
G01*
X1734380Y422926D01*
X1764880Y411125D02*
G01*
X1766679Y407626D01*
X1771980Y402226D01*
X1734380Y402226D01*
X1771980Y379625D02*
G01*
X1770180Y385025D01*
X1764880Y388625D01*
X1755879Y390426D01*
X1750580Y390426D01*
X1741580Y388625D01*
X1736180Y385025D01*
X1734380Y379625D01*
X1734380Y376125D01*
X1736180Y370725D01*
X1741580Y367125D01*
X1750580Y365326D01*
X1755879Y365326D01*
X1764880Y367125D01*
X1770180Y370725D01*
X1771980Y376125D01*
X1771980Y379625D01*
X1771980Y349926D02*
G01*
X1771980Y330326D01*
X1757680Y341026D01*
X1757680Y335626D01*
X1755879Y332026D01*
X1754080Y330326D01*
X1748779Y328526D01*
X1745180Y328526D01*
X1739780Y330326D01*
X1736180Y333825D01*
X1734380Y339225D01*
X1734380Y344625D01*
X1736180Y349926D01*
X1737979Y351725D01*
X1741580Y353526D01*
X1871979Y448024D02*
G01*
X1834378Y448024D01*
X1871979Y448024D02*
G01*
X1871979Y431925D01*
X1870178Y426525D01*
X1868379Y424724D01*
X1864879Y423024D01*
X1861279Y423024D01*
X1857678Y424724D01*
X1855879Y426525D01*
X1854079Y431925D01*
X1854079Y448024D01*
X1854079Y435524D02*
G01*
X1834378Y423024D01*
X1864879Y411125D02*
G01*
X1866679Y407624D01*
X1871979Y402224D01*
X1834378Y402224D01*
X1871979Y379625D02*
G01*
X1870178Y385025D01*
X1864879Y388625D01*
X1855879Y390425D01*
X1850578Y390425D01*
X1841579Y388625D01*
X1836179Y385025D01*
X1834378Y379625D01*
X1834378Y376125D01*
X1836179Y370725D01*
X1841579Y367125D01*
X1850578Y365324D01*
X1855879Y365324D01*
X1864879Y367125D01*
X1870178Y370725D01*
X1871979Y376125D01*
X1871979Y379625D01*
X1871979Y335625D02*
G01*
X1846979Y353524D01*
X1846979Y326725D01*
X1871979Y335625D02*
G01*
X1834378Y335625D01*
X1971979Y448024D02*
G01*
X1934378Y448024D01*
X1971979Y448024D02*
G01*
X1971979Y431925D01*
X1970178Y426525D01*
X1968379Y424724D01*
X1964879Y423024D01*
X1961279Y423024D01*
X1957678Y424724D01*
X1955879Y426525D01*
X1954079Y431925D01*
X1954079Y448024D01*
X1954079Y435524D02*
G01*
X1934378Y423024D01*
X1964879Y411125D02*
G01*
X1966679Y407624D01*
X1971979Y402224D01*
X1934378Y402224D01*
X1971979Y379625D02*
G01*
X1970178Y385025D01*
X1964879Y388625D01*
X1955879Y390425D01*
X1950578Y390425D01*
X1941579Y388625D01*
X1936179Y385025D01*
X1934378Y379625D01*
X1934378Y376125D01*
X1936179Y370725D01*
X1941579Y367125D01*
X1950578Y365324D01*
X1955879Y365324D01*
X1964879Y367125D01*
X1970178Y370725D01*
X1971979Y376125D01*
X1971979Y379625D01*
X1971979Y332024D02*
G01*
X1971979Y349924D01*
X1955879Y351725D01*
X1957678Y349924D01*
X1959479Y344625D01*
X1959479Y339225D01*
X1957678Y333825D01*
X1954079Y330324D01*
X1948779Y328524D01*
X1945178Y328524D01*
X1939778Y330324D01*
X1936179Y333825D01*
X1934378Y339225D01*
X1934378Y344625D01*
X1936179Y349924D01*
X1937978Y351725D01*
X1941579Y353524D01*
X2071979Y448024D02*
G01*
X2034378Y448024D01*
X2071979Y448024D02*
G01*
X2071979Y431925D01*
X2070178Y426525D01*
X2068379Y424724D01*
X2064879Y423024D01*
X2061279Y423024D01*
X2057678Y424724D01*
X2055879Y426525D01*
X2054079Y431925D01*
X2054079Y448024D01*
X2054079Y435524D02*
G01*
X2034378Y423024D01*
X2064879Y411125D02*
G01*
X2066679Y407624D01*
X2071979Y402224D01*
X2034378Y402224D01*
X2071979Y379625D02*
G01*
X2070178Y385025D01*
X2064879Y388625D01*
X2055879Y390425D01*
X2050578Y390425D01*
X2041579Y388625D01*
X2036179Y385025D01*
X2034378Y379625D01*
X2034378Y376125D01*
X2036179Y370725D01*
X2041579Y367125D01*
X2050578Y365324D01*
X2055879Y365324D01*
X2064879Y367125D01*
X2070178Y370725D01*
X2071979Y376125D01*
X2071979Y379625D01*
X2066679Y332024D02*
G01*
X2070178Y333825D01*
X2071979Y339225D01*
X2071979Y342824D01*
X2070178Y348125D01*
X2064879Y351725D01*
X2055879Y353524D01*
X2046979Y353524D01*
X2039778Y351725D01*
X2036179Y348125D01*
X2034378Y342824D01*
X2034378Y341024D01*
X2036179Y335625D01*
X2039778Y332024D01*
X2045178Y330324D01*
X2046979Y330324D01*
X2052278Y332024D01*
X2055879Y335625D01*
X2057678Y341024D01*
X2057678Y342824D01*
X2055879Y348125D01*
X2052278Y351725D01*
X2046979Y353524D01*
X2171979Y448024D02*
G01*
X2134378Y448024D01*
X2171979Y448024D02*
G01*
X2171979Y431925D01*
X2170178Y426525D01*
X2168379Y424724D01*
X2164879Y423024D01*
X2161279Y423024D01*
X2157678Y424724D01*
X2155879Y426525D01*
X2154079Y431925D01*
X2154079Y448024D01*
X2154079Y435524D02*
G01*
X2134378Y423024D01*
X2164879Y411125D02*
G01*
X2166679Y407624D01*
X2171979Y402224D01*
X2134378Y402224D01*
X2171979Y379625D02*
G01*
X2170178Y385025D01*
X2164879Y388625D01*
X2155879Y390425D01*
X2150578Y390425D01*
X2141579Y388625D01*
X2136179Y385025D01*
X2134378Y379625D01*
X2134378Y376125D01*
X2136179Y370725D01*
X2141579Y367125D01*
X2150578Y365324D01*
X2155879Y365324D01*
X2164879Y367125D01*
X2170178Y370725D01*
X2171979Y376125D01*
X2171979Y379625D01*
X2171979Y328524D02*
G01*
X2134378Y346424D01*
X2171979Y353524D02*
G01*
X2171979Y328524D01*
X2271979Y448024D02*
G01*
X2234378Y448024D01*
X2271979Y448024D02*
G01*
X2271979Y431925D01*
X2270178Y426525D01*
X2268379Y424724D01*
X2264879Y423024D01*
X2261279Y423024D01*
X2257678Y424724D01*
X2255879Y426525D01*
X2254079Y431925D01*
X2254079Y448024D01*
X2254079Y435524D02*
G01*
X2234378Y423024D01*
X2264879Y411125D02*
G01*
X2266679Y407624D01*
X2271979Y402224D01*
X2234378Y402224D01*
X2271979Y379625D02*
G01*
X2270178Y385025D01*
X2264879Y388625D01*
X2255879Y390425D01*
X2250578Y390425D01*
X2241579Y388625D01*
X2236179Y385025D01*
X2234378Y379625D01*
X2234378Y376125D01*
X2236179Y370725D01*
X2241579Y367125D01*
X2250578Y365324D01*
X2255879Y365324D01*
X2264879Y367125D01*
X2270178Y370725D01*
X2271979Y376125D01*
X2271979Y379625D01*
X2271979Y344625D02*
G01*
X2270178Y349924D01*
X2266679Y351725D01*
X2263078Y351725D01*
X2259479Y349924D01*
X2257678Y346424D01*
X2255879Y339225D01*
X2254079Y333825D01*
X2250578Y330324D01*
X2246979Y328524D01*
X2241579Y328524D01*
X2237978Y330324D01*
X2236179Y332024D01*
X2234378Y337424D01*
X2234378Y344625D01*
X2236179Y349924D01*
X2237978Y351725D01*
X2241579Y353524D01*
X2246979Y353524D01*
X2250578Y351725D01*
X2254079Y348125D01*
X2255879Y342824D01*
X2257678Y335625D01*
X2259479Y332024D01*
X2263078Y330324D01*
X2266679Y330324D01*
X2270178Y332024D01*
X2271979Y337424D01*
X2271979Y344625D01*
X2371977Y448024D02*
G01*
X2334377Y448024D01*
X2371977Y448024D02*
G01*
X2371977Y431923D01*
X2370177Y426523D01*
X2368378Y424724D01*
X2364877Y423024D01*
X2361278Y423024D01*
X2357677Y424724D01*
X2355878Y426523D01*
X2354077Y431923D01*
X2354077Y448024D01*
X2354077Y435524D02*
G01*
X2334377Y423024D01*
X2364877Y411123D02*
G01*
X2366678Y407624D01*
X2371977Y402224D01*
X2334377Y402224D01*
X2371977Y379623D02*
G01*
X2370177Y385023D01*
X2364877Y388623D01*
X2355878Y390423D01*
X2350577Y390423D01*
X2341577Y388623D01*
X2336178Y385023D01*
X2334377Y379623D01*
X2334377Y376123D01*
X2336178Y370724D01*
X2341577Y367123D01*
X2350577Y365324D01*
X2355878Y365324D01*
X2364877Y367123D01*
X2370177Y370724D01*
X2371977Y376123D01*
X2371977Y379623D01*
X2359477Y330324D02*
G01*
X2354077Y332024D01*
X2350577Y335623D01*
X2348778Y341024D01*
X2348778Y342824D01*
X2350577Y348123D01*
X2354077Y351723D01*
X2359477Y353524D01*
X2361278Y353524D01*
X2366678Y351723D01*
X2370177Y348123D01*
X2371977Y342824D01*
X2371977Y341024D01*
X2370177Y335623D01*
X2366678Y332024D01*
X2359477Y330324D01*
X2350577Y330324D01*
X2341577Y332024D01*
X2336178Y335623D01*
X2334377Y341024D01*
X2334377Y344623D01*
X2336178Y349924D01*
X2339777Y351723D01*
X2471977Y448024D02*
G01*
X2434377Y448024D01*
X2471977Y448024D02*
G01*
X2471977Y431923D01*
X2470177Y426523D01*
X2468378Y424724D01*
X2464877Y423024D01*
X2461278Y423024D01*
X2457677Y424724D01*
X2455878Y426523D01*
X2454077Y431923D01*
X2454077Y448024D01*
X2454077Y435524D02*
G01*
X2434377Y423024D01*
X2464877Y411123D02*
G01*
X2466678Y407624D01*
X2471977Y402224D01*
X2434377Y402224D01*
X2464877Y390423D02*
G01*
X2466678Y386824D01*
X2471977Y381424D01*
X2434377Y381424D01*
X2471977Y358924D02*
G01*
X2470177Y364324D01*
X2464877Y367824D01*
X2455878Y369623D01*
X2450577Y369623D01*
X2441577Y367824D01*
X2436178Y364324D01*
X2434377Y358924D01*
X2434377Y355324D01*
X2436178Y349924D01*
X2441577Y346424D01*
X2450577Y344623D01*
X2455878Y344623D01*
X2464877Y346424D01*
X2470177Y349924D01*
X2471977Y355324D01*
X2471977Y358924D01*
X2571977Y448024D02*
G01*
X2534377Y448024D01*
X2571977Y448024D02*
G01*
X2571977Y431923D01*
X2570177Y426523D01*
X2568378Y424724D01*
X2564877Y423024D01*
X2561278Y423024D01*
X2557677Y424724D01*
X2555878Y426523D01*
X2554077Y431923D01*
X2554077Y448024D01*
X2554077Y435524D02*
G01*
X2534377Y423024D01*
X2564877Y411123D02*
G01*
X2566678Y407624D01*
X2571977Y402224D01*
X2534377Y402224D01*
X2564877Y390423D02*
G01*
X2566678Y386824D01*
X2571977Y381424D01*
X2534377Y381424D01*
X2564877Y369623D02*
G01*
X2566678Y366024D01*
X2571977Y360724D01*
X2534377Y360724D01*
X2671977Y448024D02*
G01*
X2634377Y448024D01*
X2671977Y448024D02*
G01*
X2671977Y431923D01*
X2670177Y426523D01*
X2668378Y424724D01*
X2664877Y423024D01*
X2661278Y423024D01*
X2657677Y424724D01*
X2655878Y426523D01*
X2654077Y431923D01*
X2654077Y448024D01*
X2654077Y435524D02*
G01*
X2634377Y423024D01*
X2664877Y411123D02*
G01*
X2666678Y407624D01*
X2671977Y402224D01*
X2634377Y402224D01*
X2664877Y390423D02*
G01*
X2666678Y386824D01*
X2671977Y381424D01*
X2634377Y381424D01*
X2663077Y367824D02*
G01*
X2664877Y367824D01*
X2668378Y366024D01*
X2670177Y364324D01*
X2671977Y360724D01*
X2671977Y353524D01*
X2670177Y349924D01*
X2668378Y348123D01*
X2664877Y346424D01*
X2661278Y346424D01*
X2657677Y348123D01*
X2652277Y351723D01*
X2634377Y369623D01*
X2634377Y344623D01*
X2771977Y448024D02*
G01*
X2734377Y448024D01*
X2771977Y448024D02*
G01*
X2771977Y431923D01*
X2770177Y426523D01*
X2768378Y424724D01*
X2764877Y423024D01*
X2761278Y423024D01*
X2757677Y424724D01*
X2755878Y426523D01*
X2754077Y431923D01*
X2754077Y448024D01*
X2754077Y435524D02*
G01*
X2734377Y423024D01*
X2764877Y411123D02*
G01*
X2766678Y407624D01*
X2771977Y402224D01*
X2734377Y402224D01*
X2764877Y390423D02*
G01*
X2766678Y386824D01*
X2771977Y381424D01*
X2734377Y381424D01*
X2771977Y366024D02*
G01*
X2771977Y346424D01*
X2757677Y357123D01*
X2757677Y351723D01*
X2755878Y348123D01*
X2754077Y346424D01*
X2748778Y344623D01*
X2745177Y344623D01*
X2739777Y346424D01*
X2736178Y349924D01*
X2734377Y355324D01*
X2734377Y360724D01*
X2736178Y366024D01*
X2737978Y367824D01*
X2741577Y369623D01*
X2871976Y448022D02*
G01*
X2834377Y448022D01*
X2871976Y448022D02*
G01*
X2871976Y431923D01*
X2870177Y426523D01*
X2868377Y424722D01*
X2864876Y423022D01*
X2861277Y423022D01*
X2857677Y424722D01*
X2855877Y426523D01*
X2854076Y431923D01*
X2854076Y448022D01*
X2854076Y435522D02*
G01*
X2834377Y423022D01*
X2864876Y411122D02*
G01*
X2866676Y407622D01*
X2871976Y402222D01*
X2834377Y402222D01*
X2864876Y390423D02*
G01*
X2866676Y386822D01*
X2871976Y381422D01*
X2834377Y381422D01*
X2871976Y351723D02*
G01*
X2846976Y369623D01*
X2846976Y342822D01*
X2871976Y351723D02*
G01*
X2834377Y351723D01*
X2971976Y448022D02*
G01*
X2934377Y448022D01*
X2971976Y448022D02*
G01*
X2971976Y431923D01*
X2970177Y426523D01*
X2968377Y424722D01*
X2964876Y423022D01*
X2961277Y423022D01*
X2957677Y424722D01*
X2955877Y426523D01*
X2954076Y431923D01*
X2954076Y448022D01*
X2954076Y435522D02*
G01*
X2934377Y423022D01*
X2964876Y411122D02*
G01*
X2966676Y407622D01*
X2971976Y402222D01*
X2934377Y402222D01*
X2964876Y390423D02*
G01*
X2966676Y386822D01*
X2971976Y381422D01*
X2934377Y381422D01*
X2971976Y348123D02*
G01*
X2971976Y366023D01*
X2955877Y367822D01*
X2957677Y366023D01*
X2959476Y360722D01*
X2959476Y355322D01*
X2957677Y349922D01*
X2954076Y346422D01*
X2948777Y344623D01*
X2945177Y344623D01*
X2939777Y346422D01*
X2936176Y349922D01*
X2934377Y355322D01*
X2934377Y360722D01*
X2936176Y366023D01*
X2937977Y367822D01*
X2941576Y369623D01*
X3071976Y448022D02*
G01*
X3034377Y448022D01*
X3071976Y448022D02*
G01*
X3071976Y431923D01*
X3070177Y426523D01*
X3068377Y424722D01*
X3064876Y423022D01*
X3061277Y423022D01*
X3057677Y424722D01*
X3055877Y426523D01*
X3054076Y431923D01*
X3054076Y448022D01*
X3054076Y435522D02*
G01*
X3034377Y423022D01*
X3064876Y411122D02*
G01*
X3066676Y407622D01*
X3071976Y402222D01*
X3034377Y402222D01*
X3064876Y390423D02*
G01*
X3066676Y386822D01*
X3071976Y381422D01*
X3034377Y381422D01*
X3066676Y348123D02*
G01*
X3070177Y349922D01*
X3071976Y355322D01*
X3071976Y358922D01*
X3070177Y364322D01*
X3064876Y367822D01*
X3055877Y369623D01*
X3046976Y369623D01*
X3039777Y367822D01*
X3036176Y364322D01*
X3034377Y358922D01*
X3034377Y357123D01*
X3036176Y351723D01*
X3039777Y348123D01*
X3045177Y346422D01*
X3046976Y346422D01*
X3052277Y348123D01*
X3055877Y351723D01*
X3057677Y357123D01*
X3057677Y358922D01*
X3055877Y364322D01*
X3052277Y367822D01*
X3046976Y369623D01*
X3171976Y448022D02*
G01*
X3134377Y448022D01*
X3171976Y448022D02*
G01*
X3171976Y431923D01*
X3170177Y426523D01*
X3168377Y424722D01*
X3164876Y423022D01*
X3161277Y423022D01*
X3157677Y424722D01*
X3155877Y426523D01*
X3154076Y431923D01*
X3154076Y448022D01*
X3154076Y435522D02*
G01*
X3134377Y423022D01*
X3164876Y411122D02*
G01*
X3166676Y407622D01*
X3171976Y402222D01*
X3134377Y402222D01*
X3164876Y390423D02*
G01*
X3166676Y386822D01*
X3171976Y381422D01*
X3134377Y381422D01*
X3171976Y344623D02*
G01*
X3134377Y362523D01*
X3171976Y369623D02*
G01*
X3171976Y344623D01*
X3271976Y448022D02*
G01*
X3234377Y448022D01*
X3271976Y448022D02*
G01*
X3271976Y431923D01*
X3270177Y426523D01*
X3268377Y424722D01*
X3264876Y423022D01*
X3261277Y423022D01*
X3257677Y424722D01*
X3255877Y426523D01*
X3254076Y431923D01*
X3254076Y448022D01*
X3254076Y435522D02*
G01*
X3234377Y423022D01*
X3264876Y411122D02*
G01*
X3266676Y407622D01*
X3271976Y402222D01*
X3234377Y402222D01*
X3264876Y390423D02*
G01*
X3266676Y386822D01*
X3271976Y381422D01*
X3234377Y381422D01*
X3271976Y360722D02*
G01*
X3270177Y366023D01*
X3266676Y367822D01*
X3263077Y367822D01*
X3259476Y366023D01*
X3257677Y362523D01*
X3255877Y355322D01*
X3254076Y349922D01*
X3250577Y346422D01*
X3246976Y344623D01*
X3241576Y344623D01*
X3237977Y346422D01*
X3236176Y348123D01*
X3234377Y353523D01*
X3234377Y360722D01*
X3236176Y366023D01*
X3237977Y367822D01*
X3241576Y369623D01*
X3246976Y369623D01*
X3250577Y367822D01*
X3254076Y364322D01*
X3255877Y358922D01*
X3257677Y351723D01*
X3259476Y348123D01*
X3263077Y346422D01*
X3266676Y346422D01*
X3270177Y348123D01*
X3271976Y353523D01*
X3271976Y360722D01*
X3371976Y448022D02*
G01*
X3334376Y448022D01*
X3371976Y448022D02*
G01*
X3371976Y431921D01*
X3370176Y426521D01*
X3368375Y424722D01*
X3364876Y423022D01*
X3361275Y423022D01*
X3357676Y424722D01*
X3355875Y426521D01*
X3354075Y431921D01*
X3354075Y448022D01*
X3354075Y435522D02*
G01*
X3334376Y423022D01*
X3364876Y411122D02*
G01*
X3366675Y407622D01*
X3371976Y402222D01*
X3334376Y402222D01*
X3364876Y390421D02*
G01*
X3366675Y386822D01*
X3371976Y381421D01*
X3334376Y381421D01*
X3359476Y346421D02*
G01*
X3354075Y348222D01*
X3350576Y351721D01*
X3348775Y357121D01*
X3348775Y358921D01*
X3350576Y364322D01*
X3354075Y367822D01*
X3359476Y369621D01*
X3361275Y369621D01*
X3366675Y367822D01*
X3370176Y364322D01*
X3371976Y358921D01*
X3371976Y357121D01*
X3370176Y351721D01*
X3366675Y348222D01*
X3359476Y346421D01*
X3350576Y346421D01*
X3341575Y348222D01*
X3336175Y351721D01*
X3334376Y357121D01*
X3334376Y360722D01*
X3336175Y366021D01*
X3339776Y367822D01*
X3471976Y448022D02*
G01*
X3434376Y448022D01*
X3471976Y448022D02*
G01*
X3471976Y431921D01*
X3470176Y426521D01*
X3468375Y424722D01*
X3464876Y423022D01*
X3461275Y423022D01*
X3457676Y424722D01*
X3455875Y426521D01*
X3454075Y431921D01*
X3454075Y448022D01*
X3454075Y435522D02*
G01*
X3434376Y423022D01*
X3464876Y411122D02*
G01*
X3466675Y407622D01*
X3471976Y402222D01*
X3434376Y402222D01*
X3463076Y388622D02*
G01*
X3464876Y388622D01*
X3468375Y386822D01*
X3470176Y385021D01*
X3471976Y381421D01*
X3471976Y374322D01*
X3470176Y370722D01*
X3468375Y368921D01*
X3464876Y367121D01*
X3461275Y367121D01*
X3457676Y368921D01*
X3452276Y372521D01*
X3434376Y390421D01*
X3434376Y365322D01*
X3471976Y342822D02*
G01*
X3470176Y348222D01*
X3464876Y351721D01*
X3455875Y353521D01*
X3450576Y353521D01*
X3441575Y351721D01*
X3436175Y348222D01*
X3434376Y342822D01*
X3434376Y339221D01*
X3436175Y333822D01*
X3441575Y330322D01*
X3450576Y328521D01*
X3455875Y328521D01*
X3464876Y330322D01*
X3470176Y333822D01*
X3471976Y339221D01*
X3471976Y342822D01*
X574533Y3243301D02*
G01*
X531633Y3243301D01*
X574533Y3243301D02*
G01*
X574533Y3224902D01*
X572534Y3218802D01*
X570434Y3216702D01*
X566334Y3214702D01*
X562233Y3214702D01*
X558134Y3216702D01*
X556134Y3218802D01*
X554133Y3224902D01*
X554133Y3243301D01*
X554133Y3229002D02*
G01*
X531633Y3214702D01*
X566334Y3201201D02*
G01*
X568434Y3197102D01*
X574533Y3190902D01*
X531633Y3190902D01*
X674533Y3243301D02*
G01*
X631633Y3243301D01*
X674533Y3243301D02*
G01*
X674533Y3224902D01*
X672534Y3218802D01*
X670434Y3216702D01*
X666334Y3214702D01*
X662233Y3214702D01*
X658134Y3216702D01*
X656134Y3218802D01*
X654133Y3224902D01*
X654133Y3243301D01*
X654133Y3229002D02*
G01*
X631633Y3214702D01*
X664333Y3199101D02*
G01*
X666334Y3199101D01*
X670434Y3197102D01*
X672534Y3195001D01*
X674533Y3190902D01*
X674533Y3182802D01*
X672534Y3178701D01*
X670434Y3176601D01*
X666334Y3174602D01*
X662233Y3174602D01*
X658134Y3176601D01*
X652033Y3180702D01*
X631633Y3201201D01*
X631633Y3172501D01*
X774533Y3243301D02*
G01*
X731633Y3243301D01*
X774533Y3243301D02*
G01*
X774533Y3224902D01*
X772533Y3218802D01*
X770433Y3216702D01*
X766333Y3214702D01*
X762232Y3214702D01*
X758132Y3216702D01*
X756132Y3218802D01*
X754133Y3224902D01*
X754133Y3243301D01*
X754133Y3229002D02*
G01*
X731633Y3214702D01*
X774533Y3197102D02*
G01*
X774533Y3174602D01*
X758132Y3186801D01*
X758132Y3180702D01*
X756132Y3176601D01*
X754133Y3174602D01*
X747932Y3172501D01*
X743832Y3172501D01*
X737732Y3174602D01*
X733632Y3178701D01*
X731633Y3184801D01*
X731633Y3190902D01*
X733632Y3197102D01*
X735632Y3199101D01*
X739733Y3201201D01*
X874533Y3243301D02*
G01*
X831633Y3243301D01*
X874533Y3243301D02*
G01*
X874533Y3224902D01*
X872533Y3218802D01*
X870433Y3216702D01*
X866333Y3214702D01*
X862232Y3214702D01*
X858132Y3216702D01*
X856132Y3218802D01*
X854133Y3224902D01*
X854133Y3243301D01*
X854133Y3229002D02*
G01*
X831633Y3214702D01*
X874533Y3180702D02*
G01*
X845933Y3201201D01*
X845933Y3170502D01*
X874533Y3180702D02*
G01*
X831633Y3180702D01*
X974533Y3243301D02*
G01*
X931633Y3243301D01*
X974533Y3243301D02*
G01*
X974533Y3224902D01*
X972533Y3218802D01*
X970433Y3216702D01*
X966333Y3214702D01*
X962232Y3214702D01*
X958132Y3216702D01*
X956132Y3218802D01*
X954133Y3224902D01*
X954133Y3243301D01*
X954133Y3229002D02*
G01*
X931633Y3214702D01*
X974533Y3176601D02*
G01*
X974533Y3197102D01*
X956132Y3199101D01*
X958132Y3197102D01*
X960232Y3190902D01*
X960232Y3184801D01*
X958132Y3178701D01*
X954133Y3174602D01*
X947933Y3172501D01*
X943833Y3172501D01*
X937732Y3174602D01*
X933632Y3178701D01*
X931633Y3184801D01*
X931633Y3190902D01*
X933632Y3197102D01*
X935632Y3199101D01*
X939732Y3201201D01*
X1074533Y3243301D02*
G01*
X1031633Y3243301D01*
X1074533Y3243301D02*
G01*
X1074533Y3224902D01*
X1072533Y3218802D01*
X1070433Y3216702D01*
X1066333Y3214702D01*
X1062232Y3214702D01*
X1058132Y3216702D01*
X1056132Y3218802D01*
X1054133Y3224902D01*
X1054133Y3243301D01*
X1054133Y3229002D02*
G01*
X1031633Y3214702D01*
X1068433Y3176601D02*
G01*
X1072533Y3178701D01*
X1074533Y3184801D01*
X1074533Y3188901D01*
X1072533Y3195001D01*
X1066333Y3199101D01*
X1056132Y3201201D01*
X1045933Y3201201D01*
X1037732Y3199101D01*
X1033632Y3195001D01*
X1031633Y3188901D01*
X1031633Y3186801D01*
X1033632Y3180702D01*
X1037732Y3176601D01*
X1043833Y3174602D01*
X1045933Y3174602D01*
X1052033Y3176601D01*
X1056132Y3180702D01*
X1058132Y3186801D01*
X1058132Y3188901D01*
X1056132Y3195001D01*
X1052033Y3199101D01*
X1045933Y3201201D01*
X1174533Y3243301D02*
G01*
X1131633Y3243301D01*
X1174533Y3243301D02*
G01*
X1174533Y3224902D01*
X1172533Y3218802D01*
X1170433Y3216702D01*
X1166333Y3214702D01*
X1162232Y3214702D01*
X1158132Y3216702D01*
X1156132Y3218802D01*
X1154133Y3224902D01*
X1154133Y3243301D01*
X1154133Y3229002D02*
G01*
X1131633Y3214702D01*
X1174533Y3172501D02*
G01*
X1131633Y3193002D01*
X1174533Y3201201D02*
G01*
X1174533Y3172501D01*
X1274531Y3243301D02*
G01*
X1231631Y3243301D01*
X1274531Y3243301D02*
G01*
X1274531Y3224902D01*
X1272532Y3218802D01*
X1270432Y3216702D01*
X1266332Y3214702D01*
X1262232Y3214702D01*
X1258131Y3216702D01*
X1256131Y3218802D01*
X1254131Y3224902D01*
X1254131Y3243301D01*
X1254131Y3229002D02*
G01*
X1231631Y3214702D01*
X1274531Y3190902D02*
G01*
X1272532Y3197102D01*
X1268432Y3199101D01*
X1264332Y3199101D01*
X1260231Y3197102D01*
X1258131Y3193002D01*
X1256131Y3184801D01*
X1254131Y3178701D01*
X1250032Y3174602D01*
X1245932Y3172501D01*
X1239732Y3172501D01*
X1235631Y3174602D01*
X1233631Y3176601D01*
X1231631Y3182802D01*
X1231631Y3190902D01*
X1233631Y3197102D01*
X1235631Y3199101D01*
X1239732Y3201201D01*
X1245932Y3201201D01*
X1250032Y3199101D01*
X1254131Y3195001D01*
X1256131Y3188901D01*
X1258131Y3180702D01*
X1260231Y3176601D01*
X1264332Y3174602D01*
X1268432Y3174602D01*
X1272532Y3176601D01*
X1274531Y3182802D01*
X1274531Y3190902D01*
X1374526Y3243294D02*
G01*
X1331626Y3243294D01*
X1374526Y3243294D02*
G01*
X1374526Y3224895D01*
X1372527Y3218795D01*
X1370426Y3216694D01*
X1366327Y3214695D01*
X1362227Y3214695D01*
X1358127Y3216694D01*
X1356126Y3218795D01*
X1354126Y3224895D01*
X1354126Y3243294D01*
X1354126Y3228995D02*
G01*
X1331626Y3214695D01*
X1360227Y3174594D02*
G01*
X1354126Y3176595D01*
X1350027Y3180695D01*
X1347926Y3186795D01*
X1347926Y3188895D01*
X1350027Y3194994D01*
X1354126Y3199095D01*
X1360227Y3201194D01*
X1362227Y3201194D01*
X1368427Y3199095D01*
X1372527Y3194994D01*
X1374526Y3188895D01*
X1374526Y3186795D01*
X1372527Y3180695D01*
X1368427Y3176595D01*
X1360227Y3174594D01*
X1350027Y3174594D01*
X1339727Y3176595D01*
X1333626Y3180695D01*
X1331626Y3186795D01*
X1331626Y3190895D01*
X1333626Y3197094D01*
X1337727Y3199095D01*
X1474526Y3243294D02*
G01*
X1431626Y3243294D01*
X1474526Y3243294D02*
G01*
X1474526Y3224895D01*
X1472527Y3218795D01*
X1470426Y3216694D01*
X1466327Y3214695D01*
X1462227Y3214695D01*
X1458127Y3216694D01*
X1456126Y3218795D01*
X1454126Y3224895D01*
X1454126Y3243294D01*
X1454126Y3228995D02*
G01*
X1431626Y3214695D01*
X1466327Y3201194D02*
G01*
X1468427Y3197094D01*
X1474526Y3190895D01*
X1431626Y3190895D01*
X1474526Y3165194D02*
G01*
X1472527Y3171295D01*
X1466327Y3175394D01*
X1456126Y3177395D01*
X1450027Y3177395D01*
X1439727Y3175394D01*
X1433626Y3171295D01*
X1431626Y3165194D01*
X1431626Y3161095D01*
X1433626Y3154895D01*
X1439727Y3150794D01*
X1450027Y3148795D01*
X1456126Y3148795D01*
X1466327Y3150794D01*
X1472527Y3154895D01*
X1474526Y3161095D01*
X1474526Y3165194D01*
X1574515Y3243276D02*
G01*
X1531615Y3243276D01*
X1574515Y3243276D02*
G01*
X1574515Y3224877D01*
X1572515Y3218777D01*
X1570415Y3216676D01*
X1566315Y3214677D01*
X1562214Y3214677D01*
X1558215Y3216676D01*
X1556114Y3218777D01*
X1554115Y3224877D01*
X1554115Y3243276D01*
X1554115Y3228977D02*
G01*
X1531615Y3214677D01*
X1566315Y3201176D02*
G01*
X1568415Y3197076D01*
X1574515Y3190976D01*
X1531615Y3190976D01*
X1566315Y3177476D02*
G01*
X1568415Y3173377D01*
X1574515Y3167177D01*
X1531615Y3167177D01*
X1664513Y3243276D02*
G01*
X1621613Y3243276D01*
X1664513Y3243276D02*
G01*
X1664513Y3224875D01*
X1662514Y3218775D01*
X1660414Y3216676D01*
X1656314Y3214675D01*
X1652214Y3214675D01*
X1648213Y3216676D01*
X1646113Y3218775D01*
X1644113Y3224875D01*
X1644113Y3243276D01*
X1644113Y3228975D02*
G01*
X1621613Y3214675D01*
X1656314Y3201176D02*
G01*
X1658414Y3197076D01*
X1664513Y3190976D01*
X1621613Y3190976D01*
X1654314Y3175376D02*
G01*
X1656314Y3175376D01*
X1660414Y3173375D01*
X1662514Y3171275D01*
X1664513Y3167175D01*
X1664513Y3158975D01*
X1662514Y3154976D01*
X1660414Y3152876D01*
X1656314Y3150875D01*
X1652214Y3150875D01*
X1648213Y3152876D01*
X1642013Y3156975D01*
X1621613Y3177476D01*
X1621613Y3148775D01*
X1774513Y3243276D02*
G01*
X1731613Y3243276D01*
X1774513Y3243276D02*
G01*
X1774513Y3224875D01*
X1772514Y3218775D01*
X1770414Y3216676D01*
X1766314Y3214675D01*
X1762214Y3214675D01*
X1758213Y3216676D01*
X1756113Y3218775D01*
X1754113Y3224875D01*
X1754113Y3243276D01*
X1754113Y3228975D02*
G01*
X1731613Y3214675D01*
X1766314Y3201176D02*
G01*
X1768414Y3197076D01*
X1774513Y3190976D01*
X1731613Y3190976D01*
X1774513Y3173375D02*
G01*
X1774513Y3150875D01*
X1758213Y3163076D01*
X1758213Y3156975D01*
X1756113Y3152876D01*
X1754113Y3150875D01*
X1747914Y3148775D01*
X1743814Y3148775D01*
X1737713Y3150875D01*
X1733613Y3154976D01*
X1731613Y3161075D01*
X1731613Y3167175D01*
X1733613Y3173375D01*
X1735713Y3175376D01*
X1739714Y3177476D01*
X1874513Y3243276D02*
G01*
X1831613Y3243276D01*
X1874513Y3243276D02*
G01*
X1874513Y3224875D01*
X1872514Y3218775D01*
X1870414Y3216676D01*
X1866314Y3214675D01*
X1862214Y3214675D01*
X1858213Y3216676D01*
X1856113Y3218775D01*
X1854113Y3224875D01*
X1854113Y3243276D01*
X1854113Y3228975D02*
G01*
X1831613Y3214675D01*
X1866314Y3201176D02*
G01*
X1868414Y3197076D01*
X1874513Y3190976D01*
X1831613Y3190976D01*
X1874513Y3156975D02*
G01*
X1845914Y3177476D01*
X1845914Y3146776D01*
X1874513Y3156975D02*
G01*
X1831613Y3156975D01*
X1974513Y3243276D02*
G01*
X1931613Y3243276D01*
X1974513Y3243276D02*
G01*
X1974513Y3224875D01*
X1972514Y3218775D01*
X1970414Y3216676D01*
X1966314Y3214675D01*
X1962214Y3214675D01*
X1958213Y3216676D01*
X1956113Y3218775D01*
X1954113Y3224875D01*
X1954113Y3243276D01*
X1954113Y3228975D02*
G01*
X1931613Y3214675D01*
X1966314Y3201176D02*
G01*
X1968414Y3197076D01*
X1974513Y3190976D01*
X1931613Y3190976D01*
X1974513Y3152876D02*
G01*
X1974513Y3173375D01*
X1956113Y3175376D01*
X1958213Y3173375D01*
X1960213Y3167175D01*
X1960213Y3161075D01*
X1958213Y3154976D01*
X1954113Y3150875D01*
X1947914Y3148775D01*
X1943814Y3148775D01*
X1937713Y3150875D01*
X1933613Y3154976D01*
X1931613Y3161075D01*
X1931613Y3167175D01*
X1933613Y3173375D01*
X1935713Y3175376D01*
X1939714Y3177476D01*
X2074513Y3243276D02*
G01*
X2031613Y3243276D01*
X2074513Y3243276D02*
G01*
X2074513Y3224875D01*
X2072514Y3218775D01*
X2070414Y3216676D01*
X2066314Y3214675D01*
X2062214Y3214675D01*
X2058213Y3216676D01*
X2056113Y3218775D01*
X2054113Y3224875D01*
X2054113Y3243276D01*
X2054113Y3228975D02*
G01*
X2031613Y3214675D01*
X2066314Y3201176D02*
G01*
X2068414Y3197076D01*
X2074513Y3190976D01*
X2031613Y3190976D01*
X2068414Y3152876D02*
G01*
X2072514Y3154976D01*
X2074513Y3161075D01*
X2074513Y3165176D01*
X2072514Y3171275D01*
X2066314Y3175376D01*
X2056113Y3177476D01*
X2045914Y3177476D01*
X2037713Y3175376D01*
X2033613Y3171275D01*
X2031613Y3165176D01*
X2031613Y3163076D01*
X2033613Y3156975D01*
X2037713Y3152876D01*
X2043814Y3150875D01*
X2045914Y3150875D01*
X2052013Y3152876D01*
X2056113Y3156975D01*
X2058213Y3163076D01*
X2058213Y3165176D01*
X2056113Y3171275D01*
X2052013Y3175376D01*
X2045914Y3177476D01*
X2174513Y3243276D02*
G01*
X2131613Y3243276D01*
X2174513Y3243276D02*
G01*
X2174513Y3224875D01*
X2172514Y3218775D01*
X2170414Y3216676D01*
X2166314Y3214675D01*
X2162214Y3214675D01*
X2158213Y3216676D01*
X2156113Y3218775D01*
X2154113Y3224875D01*
X2154113Y3243276D01*
X2154113Y3228975D02*
G01*
X2131613Y3214675D01*
X2166314Y3201176D02*
G01*
X2168414Y3197076D01*
X2174513Y3190976D01*
X2131613Y3190976D01*
X2174513Y3148775D02*
G01*
X2131613Y3169276D01*
X2174513Y3177476D02*
G01*
X2174513Y3148775D01*
X2274512Y3243274D02*
G01*
X2231612Y3243274D01*
X2274512Y3243274D02*
G01*
X2274512Y3224875D01*
X2272512Y3218775D01*
X2270412Y3216675D01*
X2266313Y3214675D01*
X2262213Y3214675D01*
X2258212Y3216675D01*
X2256112Y3218775D01*
X2254112Y3224875D01*
X2254112Y3243274D01*
X2254112Y3228975D02*
G01*
X2231612Y3214675D01*
X2266313Y3201174D02*
G01*
X2268413Y3197075D01*
X2274512Y3190974D01*
X2231612Y3190974D01*
X2274512Y3167175D02*
G01*
X2272512Y3173375D01*
X2268413Y3175374D01*
X2264313Y3175374D01*
X2260213Y3173375D01*
X2258212Y3169274D01*
X2256112Y3161075D01*
X2254112Y3154974D01*
X2250012Y3150875D01*
X2245913Y3148775D01*
X2239713Y3148775D01*
X2235712Y3150875D01*
X2233612Y3152874D01*
X2231612Y3158975D01*
X2231612Y3167175D01*
X2233612Y3173375D01*
X2235712Y3175374D01*
X2239713Y3177474D01*
X2245913Y3177474D01*
X2250012Y3175374D01*
X2254112Y3171275D01*
X2256112Y3165174D01*
X2258212Y3156975D01*
X2260213Y3152874D01*
X2264313Y3150875D01*
X2268413Y3150875D01*
X2272512Y3152874D01*
X2274512Y3158975D01*
X2274512Y3167175D01*
X2374512Y3243274D02*
G01*
X2331612Y3243274D01*
X2374512Y3243274D02*
G01*
X2374512Y3224875D01*
X2372512Y3218775D01*
X2370412Y3216675D01*
X2366313Y3214675D01*
X2362213Y3214675D01*
X2358212Y3216675D01*
X2356112Y3218775D01*
X2354112Y3224875D01*
X2354112Y3243274D01*
X2354112Y3228975D02*
G01*
X2331612Y3214675D01*
X2366313Y3201174D02*
G01*
X2368413Y3197075D01*
X2374512Y3190974D01*
X2331612Y3190974D01*
X2360213Y3150875D02*
G01*
X2354112Y3152874D01*
X2350012Y3156975D01*
X2347912Y3163074D01*
X2347912Y3165174D01*
X2350012Y3171275D01*
X2354112Y3175374D01*
X2360213Y3177474D01*
X2362213Y3177474D01*
X2368413Y3175374D01*
X2372512Y3171275D01*
X2374512Y3165174D01*
X2374512Y3163074D01*
X2372512Y3156975D01*
X2368413Y3152874D01*
X2360213Y3150875D01*
X2350012Y3150875D01*
X2339713Y3152874D01*
X2333612Y3156975D01*
X2331612Y3163074D01*
X2331612Y3167175D01*
X2333612Y3173375D01*
X2337713Y3175374D01*
X2474511Y3243274D02*
G01*
X2431611Y3243274D01*
X2474511Y3243274D02*
G01*
X2474511Y3224875D01*
X2472511Y3218775D01*
X2470411Y3216675D01*
X2466310Y3214675D01*
X2462210Y3214675D01*
X2458211Y3216675D01*
X2456111Y3218775D01*
X2454111Y3224875D01*
X2454111Y3243274D01*
X2454111Y3228975D02*
G01*
X2431611Y3214675D01*
X2464310Y3199074D02*
G01*
X2466310Y3199074D01*
X2470411Y3197075D01*
X2472511Y3194974D01*
X2474511Y3190974D01*
X2474511Y3182775D01*
X2472511Y3178674D01*
X2470411Y3176574D01*
X2466310Y3174575D01*
X2462210Y3174575D01*
X2458211Y3176574D01*
X2452011Y3180675D01*
X2431611Y3201174D01*
X2431611Y3172474D01*
X2474511Y3146774D02*
G01*
X2472511Y3152874D01*
X2466310Y3156975D01*
X2456111Y3158975D01*
X2450011Y3158975D01*
X2439710Y3156975D01*
X2433611Y3152874D01*
X2431611Y3146774D01*
X2431611Y3142674D01*
X2433611Y3136475D01*
X2439710Y3132474D01*
X2450011Y3130374D01*
X2456111Y3130374D01*
X2466310Y3132474D01*
X2472511Y3136475D01*
X2474511Y3142674D01*
X2474511Y3146774D01*
X2574511Y3243274D02*
G01*
X2531611Y3243274D01*
X2574511Y3243274D02*
G01*
X2574511Y3224875D01*
X2572511Y3218775D01*
X2570411Y3216675D01*
X2566310Y3214675D01*
X2562210Y3214675D01*
X2558211Y3216675D01*
X2556111Y3218775D01*
X2554111Y3224875D01*
X2554111Y3243274D01*
X2554111Y3228975D02*
G01*
X2531611Y3214675D01*
X2564310Y3199074D02*
G01*
X2566310Y3199074D01*
X2570411Y3197075D01*
X2572511Y3194974D01*
X2574511Y3190974D01*
X2574511Y3182775D01*
X2572511Y3178674D01*
X2570411Y3176574D01*
X2566310Y3174575D01*
X2562210Y3174575D01*
X2558211Y3176574D01*
X2552011Y3180675D01*
X2531611Y3201174D01*
X2531611Y3172474D01*
X2566310Y3158975D02*
G01*
X2568410Y3154974D01*
X2574511Y3148775D01*
X2531611Y3148775D01*
X2674511Y3243274D02*
G01*
X2631611Y3243274D01*
X2674511Y3243274D02*
G01*
X2674511Y3224875D01*
X2672511Y3218775D01*
X2670411Y3216675D01*
X2666310Y3214675D01*
X2662210Y3214675D01*
X2658211Y3216675D01*
X2656111Y3218775D01*
X2654111Y3224875D01*
X2654111Y3243274D01*
X2654111Y3228975D02*
G01*
X2631611Y3214675D01*
X2664310Y3199074D02*
G01*
X2666310Y3199074D01*
X2670411Y3197075D01*
X2672511Y3194974D01*
X2674511Y3190974D01*
X2674511Y3182775D01*
X2672511Y3178674D01*
X2670411Y3176574D01*
X2666310Y3174575D01*
X2662210Y3174575D01*
X2658211Y3176574D01*
X2652011Y3180675D01*
X2631611Y3201174D01*
X2631611Y3172474D01*
X2664310Y3156975D02*
G01*
X2666310Y3156975D01*
X2670411Y3154974D01*
X2672511Y3152874D01*
X2674511Y3148775D01*
X2674511Y3140574D01*
X2672511Y3136475D01*
X2670411Y3134475D01*
X2666310Y3132474D01*
X2662210Y3132474D01*
X2658211Y3134475D01*
X2652011Y3138575D01*
X2631611Y3158975D01*
X2631611Y3130374D01*
X2774510Y3243274D02*
G01*
X2731610Y3243274D01*
X2774510Y3243274D02*
G01*
X2774510Y3224874D01*
X2772510Y3218773D01*
X2770410Y3216673D01*
X2766310Y3214674D01*
X2762209Y3214674D01*
X2758209Y3216673D01*
X2756109Y3218773D01*
X2754110Y3224874D01*
X2754110Y3243274D01*
X2754110Y3228973D02*
G01*
X2731610Y3214674D01*
X2764309Y3199074D02*
G01*
X2766310Y3199074D01*
X2770410Y3197073D01*
X2772510Y3194974D01*
X2774510Y3190974D01*
X2774510Y3182773D01*
X2772510Y3178674D01*
X2770410Y3176574D01*
X2766310Y3174573D01*
X2762209Y3174573D01*
X2758209Y3176574D01*
X2752010Y3180673D01*
X2731610Y3201174D01*
X2731610Y3172474D01*
X2774510Y3154974D02*
G01*
X2774510Y3132474D01*
X2758209Y3144674D01*
X2758209Y3138573D01*
X2756109Y3134474D01*
X2754110Y3132474D01*
X2747910Y3130374D01*
X2743810Y3130374D01*
X2737709Y3132474D01*
X2733609Y3136473D01*
X2731610Y3142674D01*
X2731610Y3148773D01*
X2733609Y3154974D01*
X2735709Y3156974D01*
X2739709Y3158973D01*
X2864510Y3243274D02*
G01*
X2821610Y3243274D01*
X2864510Y3243274D02*
G01*
X2864510Y3224874D01*
X2862510Y3218773D01*
X2860410Y3216673D01*
X2856310Y3214674D01*
X2852209Y3214674D01*
X2848209Y3216673D01*
X2846109Y3218773D01*
X2844110Y3224874D01*
X2844110Y3243274D01*
X2844110Y3228973D02*
G01*
X2821610Y3214674D01*
X2854309Y3199074D02*
G01*
X2856310Y3199074D01*
X2860410Y3197073D01*
X2862510Y3194974D01*
X2864510Y3190974D01*
X2864510Y3182773D01*
X2862510Y3178674D01*
X2860410Y3176574D01*
X2856310Y3174573D01*
X2852209Y3174573D01*
X2848209Y3176574D01*
X2842010Y3180673D01*
X2821610Y3201174D01*
X2821610Y3172474D01*
X2864510Y3138573D02*
G01*
X2835910Y3158973D01*
X2835910Y3128373D01*
X2864510Y3138573D02*
G01*
X2821610Y3138573D01*
X2974510Y3243274D02*
G01*
X2931610Y3243274D01*
X2974510Y3243274D02*
G01*
X2974510Y3224874D01*
X2972510Y3218773D01*
X2970410Y3216673D01*
X2966310Y3214674D01*
X2962209Y3214674D01*
X2958209Y3216673D01*
X2956109Y3218773D01*
X2954110Y3224874D01*
X2954110Y3243274D01*
X2954110Y3228973D02*
G01*
X2931610Y3214674D01*
X2964309Y3199074D02*
G01*
X2966310Y3199074D01*
X2970410Y3197073D01*
X2972510Y3194974D01*
X2974510Y3190974D01*
X2974510Y3182773D01*
X2972510Y3178674D01*
X2970410Y3176574D01*
X2966310Y3174573D01*
X2962209Y3174573D01*
X2958209Y3176574D01*
X2952010Y3180673D01*
X2931610Y3201174D01*
X2931610Y3172474D01*
X2974510Y3134474D02*
G01*
X2974510Y3154974D01*
X2956109Y3156974D01*
X2958209Y3154974D01*
X2960209Y3148773D01*
X2960209Y3142674D01*
X2958209Y3136473D01*
X2954110Y3132474D01*
X2947910Y3130374D01*
X2943810Y3130374D01*
X2937709Y3132474D01*
X2933609Y3136473D01*
X2931610Y3142674D01*
X2931610Y3148773D01*
X2933609Y3154974D01*
X2935709Y3156974D01*
X2939709Y3158973D01*
X3074510Y3243274D02*
G01*
X3031610Y3243274D01*
X3074510Y3243274D02*
G01*
X3074510Y3224874D01*
X3072510Y3218773D01*
X3070410Y3216673D01*
X3066310Y3214674D01*
X3062209Y3214674D01*
X3058209Y3216673D01*
X3056109Y3218773D01*
X3054110Y3224874D01*
X3054110Y3243274D01*
X3054110Y3228973D02*
G01*
X3031610Y3214674D01*
X3064309Y3199074D02*
G01*
X3066310Y3199074D01*
X3070410Y3197073D01*
X3072510Y3194974D01*
X3074510Y3190974D01*
X3074510Y3182773D01*
X3072510Y3178674D01*
X3070410Y3176574D01*
X3066310Y3174573D01*
X3062209Y3174573D01*
X3058209Y3176574D01*
X3052010Y3180673D01*
X3031610Y3201174D01*
X3031610Y3172474D01*
X3068410Y3134474D02*
G01*
X3072510Y3136473D01*
X3074510Y3142674D01*
X3074510Y3146774D01*
X3072510Y3152874D01*
X3066310Y3156974D01*
X3056109Y3158973D01*
X3045910Y3158973D01*
X3037709Y3156974D01*
X3033609Y3152874D01*
X3031610Y3146774D01*
X3031610Y3144674D01*
X3033609Y3138573D01*
X3037709Y3134474D01*
X3043810Y3132474D01*
X3045910Y3132474D01*
X3052010Y3134474D01*
X3056109Y3138573D01*
X3058209Y3144674D01*
X3058209Y3146774D01*
X3056109Y3152874D01*
X3052010Y3156974D01*
X3045910Y3158973D01*
X3174510Y3243274D02*
G01*
X3131610Y3243274D01*
X3174510Y3243274D02*
G01*
X3174510Y3224874D01*
X3172510Y3218773D01*
X3170410Y3216673D01*
X3166310Y3214674D01*
X3162209Y3214674D01*
X3158209Y3216673D01*
X3156109Y3218773D01*
X3154110Y3224874D01*
X3154110Y3243274D01*
X3154110Y3228973D02*
G01*
X3131610Y3214674D01*
X3164309Y3199074D02*
G01*
X3166310Y3199074D01*
X3170410Y3197073D01*
X3172510Y3194974D01*
X3174510Y3190974D01*
X3174510Y3182773D01*
X3172510Y3178674D01*
X3170410Y3176574D01*
X3166310Y3174573D01*
X3162209Y3174573D01*
X3158209Y3176574D01*
X3152010Y3180673D01*
X3131610Y3201174D01*
X3131610Y3172474D01*
X3174510Y3130374D02*
G01*
X3131610Y3150873D01*
X3174510Y3158973D02*
G01*
X3174510Y3130374D01*
X3274508Y3243272D02*
G01*
X3231608Y3243272D01*
X3274508Y3243272D02*
G01*
X3274508Y3224872D01*
X3272509Y3218773D01*
X3270408Y3216673D01*
X3266309Y3214672D01*
X3262209Y3214672D01*
X3258208Y3216673D01*
X3256108Y3218773D01*
X3254108Y3224872D01*
X3254108Y3243272D01*
X3254108Y3228973D02*
G01*
X3231608Y3214672D01*
X3264309Y3199072D02*
G01*
X3266309Y3199072D01*
X3270408Y3197073D01*
X3272509Y3194973D01*
X3274508Y3190972D01*
X3274508Y3182773D01*
X3272509Y3178672D01*
X3270408Y3176572D01*
X3266309Y3174573D01*
X3262209Y3174573D01*
X3258208Y3176572D01*
X3252008Y3180673D01*
X3231608Y3201172D01*
X3231608Y3172473D01*
X3274508Y3148773D02*
G01*
X3272509Y3154973D01*
X3268409Y3156972D01*
X3264309Y3156972D01*
X3260209Y3154973D01*
X3258208Y3150873D01*
X3256108Y3142673D01*
X3254108Y3136473D01*
X3250009Y3132473D01*
X3245909Y3130372D01*
X3239709Y3130372D01*
X3235708Y3132473D01*
X3233608Y3134472D01*
X3231608Y3140572D01*
X3231608Y3148773D01*
X3233608Y3154973D01*
X3235708Y3156972D01*
X3239709Y3158973D01*
X3245909Y3158973D01*
X3250009Y3156972D01*
X3254108Y3152872D01*
X3256108Y3146772D01*
X3258208Y3138573D01*
X3260209Y3134472D01*
X3264309Y3132473D01*
X3268409Y3132473D01*
X3272509Y3134472D01*
X3274508Y3140572D01*
X3274508Y3148773D01*
X3374508Y3243272D02*
G01*
X3331608Y3243272D01*
X3374508Y3243272D02*
G01*
X3374508Y3224872D01*
X3372509Y3218773D01*
X3370408Y3216673D01*
X3366309Y3214672D01*
X3362209Y3214672D01*
X3358208Y3216673D01*
X3356108Y3218773D01*
X3354108Y3224872D01*
X3354108Y3243272D01*
X3354108Y3228973D02*
G01*
X3331608Y3214672D01*
X3364309Y3199072D02*
G01*
X3366309Y3199072D01*
X3370408Y3197073D01*
X3372509Y3194973D01*
X3374508Y3190972D01*
X3374508Y3182773D01*
X3372509Y3178672D01*
X3370408Y3176572D01*
X3366309Y3174573D01*
X3362209Y3174573D01*
X3358208Y3176572D01*
X3352008Y3180673D01*
X3331608Y3201172D01*
X3331608Y3172473D01*
X3360209Y3132473D02*
G01*
X3354108Y3134472D01*
X3350009Y3138573D01*
X3347908Y3144672D01*
X3347908Y3146772D01*
X3350009Y3152872D01*
X3354108Y3156972D01*
X3360209Y3158973D01*
X3362209Y3158973D01*
X3368409Y3156972D01*
X3372509Y3152872D01*
X3374508Y3146772D01*
X3374508Y3144672D01*
X3372509Y3138573D01*
X3368409Y3134472D01*
X3360209Y3132473D01*
X3350009Y3132473D01*
X3339709Y3134472D01*
X3333608Y3138573D01*
X3331608Y3144672D01*
X3331608Y3148773D01*
X3333608Y3154973D01*
X3337709Y3156972D01*
X3474508Y3243272D02*
G01*
X3431608Y3243272D01*
X3474508Y3243272D02*
G01*
X3474508Y3224872D01*
X3472509Y3218773D01*
X3470408Y3216673D01*
X3466309Y3214672D01*
X3462209Y3214672D01*
X3458208Y3216673D01*
X3456108Y3218773D01*
X3454108Y3224872D01*
X3454108Y3243272D01*
X3454108Y3228973D02*
G01*
X3431608Y3214672D01*
X3474508Y3197073D02*
G01*
X3474508Y3174573D01*
X3458208Y3186873D01*
X3458208Y3180673D01*
X3456108Y3176572D01*
X3454108Y3174573D01*
X3447908Y3172473D01*
X3443809Y3172473D01*
X3437709Y3174573D01*
X3433608Y3178672D01*
X3431608Y3184773D01*
X3431608Y3190972D01*
X3433608Y3197073D01*
X3435708Y3199072D01*
X3439709Y3201172D01*
X3474508Y3146772D02*
G01*
X3472509Y3152872D01*
X3466309Y3156972D01*
X3456108Y3158973D01*
X3450009Y3158973D01*
X3439709Y3156972D01*
X3433608Y3152872D01*
X3431608Y3146772D01*
X3431608Y3142673D01*
X3433608Y3136473D01*
X3439709Y3132473D01*
X3450009Y3130372D01*
X3456108Y3130372D01*
X3466309Y3132473D01*
X3472509Y3136473D01*
X3474508Y3142673D01*
X3474508Y3146772D01*
D12*
X1578144Y2653143D02*
G01*
X1503144Y2653143D01*
X1503144Y2553143D01*
X2503144Y2553143D01*
X2503144Y2653143D01*
D13*
X2503144Y2653143D02*
G01*
X1578144Y2653143D01*
D12*
X1578144Y2053144D02*
G01*
X1503144Y2053144D01*
X1503144Y1953144D01*
X2503144Y1953144D01*
X2503144Y2053144D01*
D13*
X2503144Y2053144D02*
G01*
X1578144Y2053144D01*
D12*
X578146Y1703144D02*
G01*
X503146Y1703144D01*
X503146Y1603144D01*
X1503145Y1603144D01*
X1503145Y1703144D01*
D13*
X1503145Y1703144D02*
G01*
X578146Y1703144D01*
D12*
X578146Y1103146D02*
G01*
X503146Y1103146D01*
X503146Y1003146D01*
X1503145Y1003146D01*
X1503145Y1103146D01*
D13*
X1503145Y1103146D02*
G01*
X578146Y1103146D01*
D12*
X1578144Y1703144D02*
G01*
X1503144Y1703144D01*
X1503144Y1603144D01*
X2503144Y1603144D01*
X2503144Y1703144D01*
D13*
X2503144Y1703144D02*
G01*
X1578144Y1703144D01*
D12*
X1578144Y1103146D02*
G01*
X1503144Y1103146D01*
X1503144Y1003146D01*
X2503144Y1003146D01*
X2503144Y1103146D01*
D13*
X2503144Y1103146D02*
G01*
X1578144Y1103146D01*
D12*
X2578141Y1703144D02*
G01*
X2503141Y1703144D01*
X2503141Y1603144D01*
X3503141Y1603144D01*
X3503141Y1703144D01*
D13*
X3503141Y1703144D02*
G01*
X2578141Y1703144D01*
D12*
X2578141Y1103146D02*
G01*
X2503141Y1103146D01*
X2503141Y1003146D01*
X3503141Y1003146D01*
X3503141Y1103146D01*
D13*
X3503141Y1103146D02*
G01*
X2578141Y1103146D01*
D11*
X517040Y2334394D02*
G01*
X517040Y2283807D01*
X589252Y2283807D01*
X589252Y2334394D01*
X517040Y2371891D02*
G01*
X517040Y2422478D01*
X589252Y2422478D01*
X589252Y2371891D01*
X617040Y2334394D02*
G01*
X617040Y2283807D01*
X689252Y2283807D01*
X689252Y2334394D01*
X617040Y2371891D02*
G01*
X617040Y2422478D01*
X689252Y2422478D01*
X689252Y2371891D01*
X717040Y2334394D02*
G01*
X717040Y2283807D01*
X789252Y2283807D01*
X789252Y2334394D01*
X717040Y2371891D02*
G01*
X717040Y2422478D01*
X789252Y2422478D01*
X789252Y2371891D01*
X817039Y2334394D02*
G01*
X817039Y2283807D01*
X889251Y2283807D01*
X889251Y2334394D01*
X817039Y2371891D02*
G01*
X817039Y2422478D01*
X889251Y2422478D01*
X889251Y2371891D01*
X917039Y2334394D02*
G01*
X917039Y2283807D01*
X989251Y2283807D01*
X989251Y2334394D01*
X917039Y2371891D02*
G01*
X917039Y2422478D01*
X989251Y2422478D01*
X989251Y2371891D01*
X1017039Y2334394D02*
G01*
X1017039Y2283807D01*
X1089251Y2283807D01*
X1089251Y2334394D01*
X1017039Y2371891D02*
G01*
X1017039Y2422478D01*
X1089251Y2422478D01*
X1089251Y2371891D01*
X1117039Y2334394D02*
G01*
X1117039Y2283807D01*
X1189251Y2283807D01*
X1189251Y2334394D01*
X1117039Y2371891D02*
G01*
X1117039Y2422478D01*
X1189251Y2422478D01*
X1189251Y2371891D01*
X1217039Y2334394D02*
G01*
X1217039Y2283807D01*
X1289251Y2283807D01*
X1289251Y2334394D01*
X1217039Y2371891D02*
G01*
X1217039Y2422478D01*
X1289251Y2422478D01*
X1289251Y2371891D01*
X1317039Y2334394D02*
G01*
X1317039Y2283807D01*
X1389251Y2283807D01*
X1389251Y2334394D01*
X1317039Y2371891D02*
G01*
X1317039Y2422478D01*
X1389251Y2422478D01*
X1389251Y2371891D01*
X1417039Y2334394D02*
G01*
X1417039Y2283807D01*
X1489251Y2283807D01*
X1489251Y2334394D01*
X1417039Y2371891D02*
G01*
X1417039Y2422478D01*
X1489251Y2422478D01*
X1489251Y2371891D01*
X1517039Y2334394D02*
G01*
X1517039Y2283807D01*
X1589251Y2283807D01*
X1589251Y2334394D01*
X1517039Y2371891D02*
G01*
X1517039Y2422478D01*
X1589251Y2422478D01*
X1589251Y2371891D01*
X1617039Y2334394D02*
G01*
X1617039Y2283807D01*
X1689251Y2283807D01*
X1689251Y2334394D01*
X1617039Y2371891D02*
G01*
X1617039Y2422478D01*
X1689251Y2422478D01*
X1689251Y2371891D01*
X1717039Y2334394D02*
G01*
X1717039Y2283807D01*
X1789251Y2283807D01*
X1789251Y2334394D01*
X1717039Y2371891D02*
G01*
X1717039Y2422478D01*
X1789251Y2422478D01*
X1789251Y2371891D01*
X1817038Y2334394D02*
G01*
X1817038Y2283807D01*
X1889250Y2283807D01*
X1889250Y2334394D01*
X1817038Y2371891D02*
G01*
X1817038Y2422478D01*
X1889250Y2422478D01*
X1889250Y2371891D01*
X1917038Y2334394D02*
G01*
X1917038Y2283807D01*
X1989250Y2283807D01*
X1989250Y2334394D01*
X1917038Y2371891D02*
G01*
X1917038Y2422478D01*
X1989250Y2422478D01*
X1989250Y2371891D01*
X2017038Y2334394D02*
G01*
X2017038Y2283807D01*
X2089250Y2283807D01*
X2089250Y2334394D01*
X2017038Y2371891D02*
G01*
X2017038Y2422478D01*
X2089250Y2422478D01*
X2089250Y2371891D01*
X2117038Y2334394D02*
G01*
X2117038Y2283807D01*
X2189250Y2283807D01*
X2189250Y2334394D01*
X2117038Y2371891D02*
G01*
X2117038Y2422478D01*
X2189250Y2422478D01*
X2189250Y2371891D01*
X2217038Y2334394D02*
G01*
X2217038Y2283807D01*
X2289250Y2283807D01*
X2289250Y2334394D01*
X2217038Y2371891D02*
G01*
X2217038Y2422478D01*
X2289250Y2422478D01*
X2289250Y2371891D01*
X2317037Y2334394D02*
G01*
X2317037Y2283807D01*
X2389249Y2283807D01*
X2389249Y2334394D01*
X2317037Y2371891D02*
G01*
X2317037Y2422478D01*
X2389249Y2422478D01*
X2389249Y2371891D01*
X2417037Y2334394D02*
G01*
X2417037Y2283807D01*
X2489249Y2283807D01*
X2489249Y2334394D01*
X2417037Y2371891D02*
G01*
X2417037Y2422478D01*
X2489249Y2422478D01*
X2489249Y2371891D01*
X2517037Y2334394D02*
G01*
X2517037Y2283807D01*
X2589249Y2283807D01*
X2589249Y2334394D01*
X2517037Y2371891D02*
G01*
X2517037Y2422478D01*
X2589249Y2422478D01*
X2589249Y2371891D01*
X2617037Y2334394D02*
G01*
X2617037Y2283807D01*
X2689249Y2283807D01*
X2689249Y2334394D01*
X2617037Y2371891D02*
G01*
X2617037Y2422478D01*
X2689249Y2422478D01*
X2689249Y2371891D01*
X2717037Y2334394D02*
G01*
X2717037Y2283807D01*
X2789249Y2283807D01*
X2789249Y2334394D01*
X2717037Y2371891D02*
G01*
X2717037Y2422478D01*
X2789249Y2422478D01*
X2789249Y2371891D01*
X2817035Y2334394D02*
G01*
X2817035Y2283807D01*
X2889247Y2283807D01*
X2889247Y2334394D01*
X2817035Y2371891D02*
G01*
X2817035Y2422478D01*
X2889247Y2422478D01*
X2889247Y2371891D01*
X2917035Y2334394D02*
G01*
X2917035Y2283807D01*
X2989247Y2283807D01*
X2989247Y2334394D01*
X2917035Y2371891D02*
G01*
X2917035Y2422478D01*
X2989247Y2422478D01*
X2989247Y2371891D01*
X3017035Y2334394D02*
G01*
X3017035Y2283807D01*
X3089247Y2283807D01*
X3089247Y2334394D01*
X3017035Y2371891D02*
G01*
X3017035Y2422478D01*
X3089247Y2422478D01*
X3089247Y2371891D01*
X3117035Y2334394D02*
G01*
X3117035Y2283807D01*
X3189247Y2283807D01*
X3189247Y2334394D01*
X3117035Y2371891D02*
G01*
X3117035Y2422478D01*
X3189247Y2422478D01*
X3189247Y2371891D01*
X3217035Y2334394D02*
G01*
X3217035Y2283807D01*
X3289247Y2283807D01*
X3289247Y2334394D01*
X3217035Y2371891D02*
G01*
X3217035Y2422478D01*
X3289247Y2422478D01*
X3289247Y2371891D01*
X3317034Y2334394D02*
G01*
X3317034Y2283807D01*
X3389246Y2283807D01*
X3389246Y2334394D01*
X3317034Y2371891D02*
G01*
X3317034Y2422478D01*
X3389246Y2422478D01*
X3389246Y2371891D01*
X3417034Y2334394D02*
G01*
X3417034Y2283807D01*
X3489246Y2283807D01*
X3489246Y2334394D01*
X3417034Y2371891D02*
G01*
X3417034Y2422478D01*
X3489246Y2422478D01*
X3489246Y2371891D01*
X527139Y1386365D02*
G01*
X527139Y1348613D01*
X579155Y1348613D01*
X579155Y1386365D01*
X527139Y1419924D02*
G01*
X527139Y1457676D01*
X579155Y1457676D01*
X579155Y1419924D01*
X627139Y1386365D02*
G01*
X627139Y1348613D01*
X679155Y1348613D01*
X679155Y1386365D01*
X627139Y1419924D02*
G01*
X627139Y1457676D01*
X679155Y1457676D01*
X679155Y1419924D01*
X727139Y1386365D02*
G01*
X727139Y1348613D01*
X779155Y1348613D01*
X779155Y1386365D01*
X727139Y1419924D02*
G01*
X727139Y1457676D01*
X779155Y1457676D01*
X779155Y1419924D01*
X827138Y1386365D02*
G01*
X827138Y1348613D01*
X879153Y1348613D01*
X879153Y1386365D01*
X827138Y1419924D02*
G01*
X827138Y1457676D01*
X879153Y1457676D01*
X879153Y1419924D01*
X927138Y1386365D02*
G01*
X927138Y1348613D01*
X979153Y1348613D01*
X979153Y1386365D01*
X927138Y1419924D02*
G01*
X927138Y1457676D01*
X979153Y1457676D01*
X979153Y1419924D01*
X1027138Y1386365D02*
G01*
X1027138Y1348613D01*
X1079153Y1348613D01*
X1079153Y1386365D01*
X1027138Y1419924D02*
G01*
X1027138Y1457676D01*
X1079153Y1457676D01*
X1079153Y1419924D01*
X1127138Y1386365D02*
G01*
X1127138Y1348613D01*
X1179153Y1348613D01*
X1179153Y1386365D01*
X1127138Y1419924D02*
G01*
X1127138Y1457676D01*
X1179153Y1457676D01*
X1179153Y1419924D01*
X1227138Y1386365D02*
G01*
X1227138Y1348613D01*
X1279153Y1348613D01*
X1279153Y1386365D01*
X1227138Y1419924D02*
G01*
X1227138Y1457676D01*
X1279153Y1457676D01*
X1279153Y1419924D01*
X1327137Y1386365D02*
G01*
X1327137Y1348613D01*
X1379152Y1348613D01*
X1379152Y1386365D01*
X1327137Y1419924D02*
G01*
X1327137Y1457676D01*
X1379152Y1457676D01*
X1379152Y1419924D01*
X1427137Y1386365D02*
G01*
X1427137Y1348613D01*
X1479152Y1348613D01*
X1479152Y1386365D01*
X1427137Y1419924D02*
G01*
X1427137Y1457676D01*
X1479152Y1457676D01*
X1479152Y1419924D01*
X1527137Y1386365D02*
G01*
X1527137Y1348613D01*
X1579152Y1348613D01*
X1579152Y1386365D01*
X1527137Y1419924D02*
G01*
X1527137Y1457676D01*
X1579152Y1457676D01*
X1579152Y1419924D01*
X1627137Y1386365D02*
G01*
X1627137Y1348613D01*
X1679152Y1348613D01*
X1679152Y1386365D01*
X1627137Y1419924D02*
G01*
X1627137Y1457676D01*
X1679152Y1457676D01*
X1679152Y1419924D01*
X1727137Y1386365D02*
G01*
X1727137Y1348613D01*
X1779152Y1348613D01*
X1779152Y1386365D01*
X1727137Y1419924D02*
G01*
X1727137Y1457676D01*
X1779152Y1457676D01*
X1779152Y1419924D01*
X1827136Y1386365D02*
G01*
X1827136Y1348613D01*
X1879152Y1348613D01*
X1879152Y1386365D01*
X1827136Y1419924D02*
G01*
X1827136Y1457676D01*
X1879152Y1457676D01*
X1879152Y1419924D01*
X1927136Y1386365D02*
G01*
X1927136Y1348613D01*
X1979152Y1348613D01*
X1979152Y1386365D01*
X1927136Y1419924D02*
G01*
X1927136Y1457676D01*
X1979152Y1457676D01*
X1979152Y1419924D01*
X2027136Y1386365D02*
G01*
X2027136Y1348613D01*
X2079152Y1348613D01*
X2079152Y1386365D01*
X2027136Y1419924D02*
G01*
X2027136Y1457676D01*
X2079152Y1457676D01*
X2079152Y1419924D01*
X2127136Y1386365D02*
G01*
X2127136Y1348613D01*
X2179152Y1348613D01*
X2179152Y1386365D01*
X2127136Y1419924D02*
G01*
X2127136Y1457676D01*
X2179152Y1457676D01*
X2179152Y1419924D01*
X2227136Y1386365D02*
G01*
X2227136Y1348613D01*
X2279152Y1348613D01*
X2279152Y1386365D01*
X2227136Y1419924D02*
G01*
X2227136Y1457676D01*
X2279152Y1457676D01*
X2279152Y1419924D01*
X2327134Y1386365D02*
G01*
X2327134Y1348613D01*
X2379151Y1348613D01*
X2379151Y1386365D01*
X2327134Y1419924D02*
G01*
X2327134Y1457676D01*
X2379151Y1457676D01*
X2379151Y1419924D01*
X2427134Y1386365D02*
G01*
X2427134Y1348613D01*
X2479151Y1348613D01*
X2479151Y1386365D01*
X2427134Y1419924D02*
G01*
X2427134Y1457676D01*
X2479151Y1457676D01*
X2479151Y1419924D01*
X2527134Y1386365D02*
G01*
X2527134Y1348613D01*
X2579151Y1348613D01*
X2579151Y1386365D01*
X2527134Y1419924D02*
G01*
X2527134Y1457676D01*
X2579151Y1457676D01*
X2579151Y1419924D01*
X2627134Y1386365D02*
G01*
X2627134Y1348613D01*
X2679151Y1348613D01*
X2679151Y1386365D01*
X2627134Y1419924D02*
G01*
X2627134Y1457676D01*
X2679151Y1457676D01*
X2679151Y1419924D01*
X2727134Y1386365D02*
G01*
X2727134Y1348613D01*
X2779151Y1348613D01*
X2779151Y1386365D01*
X2727134Y1419924D02*
G01*
X2727134Y1457676D01*
X2779151Y1457676D01*
X2779151Y1419924D01*
X2827133Y1386365D02*
G01*
X2827133Y1348613D01*
X2879149Y1348613D01*
X2879149Y1386365D01*
X2827133Y1419924D02*
G01*
X2827133Y1457676D01*
X2879149Y1457676D01*
X2879149Y1419924D01*
X2927133Y1386365D02*
G01*
X2927133Y1348613D01*
X2979149Y1348613D01*
X2979149Y1386365D01*
X2927133Y1419924D02*
G01*
X2927133Y1457676D01*
X2979149Y1457676D01*
X2979149Y1419924D01*
X3027133Y1386365D02*
G01*
X3027133Y1348613D01*
X3079149Y1348613D01*
X3079149Y1386365D01*
X3027133Y1419924D02*
G01*
X3027133Y1457676D01*
X3079149Y1457676D01*
X3079149Y1419924D01*
X3127133Y1386365D02*
G01*
X3127133Y1348613D01*
X3179149Y1348613D01*
X3179149Y1386365D01*
X3127133Y1419924D02*
G01*
X3127133Y1457676D01*
X3179149Y1457676D01*
X3179149Y1419924D01*
X3227133Y1386365D02*
G01*
X3227133Y1348613D01*
X3279149Y1348613D01*
X3279149Y1386365D01*
X3227133Y1419924D02*
G01*
X3227133Y1457676D01*
X3279149Y1457676D01*
X3279149Y1419924D01*
X3327133Y1386365D02*
G01*
X3327133Y1348613D01*
X3379148Y1348613D01*
X3379148Y1386365D01*
X3327133Y1419924D02*
G01*
X3327133Y1457676D01*
X3379148Y1457676D01*
X3379148Y1419924D01*
X3427133Y1386365D02*
G01*
X3427133Y1348613D01*
X3479148Y1348613D01*
X3479148Y1386365D01*
X3427133Y1419924D02*
G01*
X3427133Y1457676D01*
X3479148Y1457676D01*
X3479148Y1419924D01*
D12*
X578146Y2653143D02*
G01*
X503146Y2653143D01*
X503146Y2553143D01*
X1503145Y2553143D01*
X1503145Y2653143D01*
D13*
X1503145Y2653143D02*
G01*
X578146Y2653143D01*
D12*
X578146Y2053144D02*
G01*
X503146Y2053144D01*
X503146Y1953144D01*
X1503145Y1953144D01*
X1503145Y2053144D01*
D13*
X1503145Y2053144D02*
G01*
X578146Y2053144D01*
D12*
X2578141Y2653143D02*
G01*
X2503141Y2653143D01*
X2503141Y2553143D01*
X3503141Y2553143D01*
X3503141Y2653143D01*
D13*
X3503141Y2653143D02*
G01*
X2578141Y2653143D01*
D12*
X2578141Y2053144D02*
G01*
X2503141Y2053144D01*
X2503141Y1953144D01*
X3503141Y1953144D01*
X3503141Y2053144D01*
D13*
X3503141Y2053144D02*
G01*
X2578141Y2053144D01*
D12*
X578146Y753146D02*
G01*
X503146Y753146D01*
X503146Y653146D01*
X1503145Y653146D01*
X1503145Y753146D01*
D13*
X1503145Y753146D02*
G01*
X578146Y753146D01*
D12*
X578146Y253148D02*
G01*
X503146Y253148D01*
X503146Y153148D01*
X1503145Y153148D01*
X1503145Y253148D01*
D13*
X1503145Y253148D02*
G01*
X578146Y253148D01*
D12*
X1578144Y753146D02*
G01*
X1503144Y753146D01*
X1503144Y653146D01*
X2503144Y653146D01*
X2503144Y753146D01*
D13*
X2503144Y753146D02*
G01*
X1578144Y753146D01*
D12*
X1578144Y253148D02*
G01*
X1503144Y253148D01*
X1503144Y153148D01*
X2503144Y153148D01*
X2503144Y253148D01*
D13*
X2503144Y253148D02*
G01*
X1578144Y253148D01*
D12*
X2578141Y753146D02*
G01*
X2503141Y753146D01*
X2503141Y653146D01*
X3503141Y653146D01*
X3503141Y753146D01*
D13*
X3503141Y753146D02*
G01*
X2578141Y753146D01*
D12*
X2578141Y253148D02*
G01*
X2503141Y253148D01*
X2503141Y153148D01*
X3503141Y153148D01*
X3503141Y253148D01*
D13*
X3503141Y253148D02*
G01*
X2578141Y253148D01*
D11*
X533517Y512053D02*
G01*
X533517Y540322D01*
X572777Y540322D01*
X572777Y512053D01*
X533517Y494241D02*
G01*
X533517Y465972D01*
X572777Y465972D01*
X572777Y494241D01*
X633517Y512053D02*
G01*
X633517Y540322D01*
X672777Y540322D01*
X672777Y512053D01*
X633517Y494241D02*
G01*
X633517Y465972D01*
X672777Y465972D01*
X672777Y494241D01*
X733517Y512053D02*
G01*
X733517Y540322D01*
X772776Y540322D01*
X772776Y512053D01*
X733517Y494241D02*
G01*
X733517Y465972D01*
X772776Y465972D01*
X772776Y494241D01*
X833515Y512053D02*
G01*
X833515Y540322D01*
X872776Y540322D01*
X872776Y512053D01*
X833515Y494241D02*
G01*
X833515Y465972D01*
X872776Y465972D01*
X872776Y494241D01*
X933515Y512053D02*
G01*
X933515Y540322D01*
X972776Y540322D01*
X972776Y512053D01*
X933515Y494241D02*
G01*
X933515Y465972D01*
X972776Y465972D01*
X972776Y494241D01*
X1033515Y512053D02*
G01*
X1033515Y540322D01*
X1072776Y540322D01*
X1072776Y512053D01*
X1033515Y494241D02*
G01*
X1033515Y465972D01*
X1072776Y465972D01*
X1072776Y494241D01*
X1133515Y512053D02*
G01*
X1133515Y540322D01*
X1172776Y540322D01*
X1172776Y512053D01*
X1133515Y494241D02*
G01*
X1133515Y465972D01*
X1172776Y465972D01*
X1172776Y494241D01*
X1233515Y512053D02*
G01*
X1233515Y540322D01*
X1272776Y540322D01*
X1272776Y512053D01*
X1233515Y494241D02*
G01*
X1233515Y465972D01*
X1272776Y465972D01*
X1272776Y494241D01*
X1333514Y512053D02*
G01*
X1333514Y540322D01*
X1372775Y540322D01*
X1372775Y512053D01*
X1333514Y494241D02*
G01*
X1333514Y465972D01*
X1372775Y465972D01*
X1372775Y494241D01*
X1433514Y512053D02*
G01*
X1433514Y540322D01*
X1472775Y540322D01*
X1472775Y512053D01*
X1433514Y494241D02*
G01*
X1433514Y465972D01*
X1472775Y465972D01*
X1472775Y494241D01*
X1533514Y512053D02*
G01*
X1533514Y540322D01*
X1572775Y540322D01*
X1572775Y512053D01*
X1533514Y494241D02*
G01*
X1533514Y465972D01*
X1572775Y465972D01*
X1572775Y494241D01*
X1633514Y512053D02*
G01*
X1633514Y540322D01*
X1672775Y540322D01*
X1672775Y512053D01*
X1633514Y494241D02*
G01*
X1633514Y465972D01*
X1672775Y465972D01*
X1672775Y494241D01*
X1733514Y512053D02*
G01*
X1733514Y540322D01*
X1772775Y540322D01*
X1772775Y512053D01*
X1733514Y494241D02*
G01*
X1733514Y465972D01*
X1772775Y465972D01*
X1772775Y494241D01*
X1833513Y512053D02*
G01*
X1833513Y540322D01*
X1872773Y540322D01*
X1872773Y512053D01*
X1833513Y494241D02*
G01*
X1833513Y465972D01*
X1872773Y465972D01*
X1872773Y494241D01*
X1933513Y512053D02*
G01*
X1933513Y540322D01*
X1972773Y540322D01*
X1972773Y512053D01*
X1933513Y494241D02*
G01*
X1933513Y465972D01*
X1972773Y465972D01*
X1972773Y494241D01*
X2033513Y512053D02*
G01*
X2033513Y540322D01*
X2072773Y540322D01*
X2072773Y512053D01*
X2033513Y494241D02*
G01*
X2033513Y465972D01*
X2072773Y465972D01*
X2072773Y494241D01*
X2133513Y512053D02*
G01*
X2133513Y540322D01*
X2172773Y540322D01*
X2172773Y512053D01*
X2133513Y494241D02*
G01*
X2133513Y465972D01*
X2172773Y465972D01*
X2172773Y494241D01*
X2233513Y512053D02*
G01*
X2233513Y540322D01*
X2272773Y540322D01*
X2272773Y512053D01*
X2233513Y494241D02*
G01*
X2233513Y465972D01*
X2272773Y465972D01*
X2272773Y494241D01*
X2333513Y512053D02*
G01*
X2333513Y540322D01*
X2372772Y540322D01*
X2372772Y512053D01*
X2333513Y494241D02*
G01*
X2333513Y465972D01*
X2372772Y465972D01*
X2372772Y494241D01*
X2433513Y512053D02*
G01*
X2433513Y540322D01*
X2472772Y540322D01*
X2472772Y512053D01*
X2433513Y494241D02*
G01*
X2433513Y465972D01*
X2472772Y465972D01*
X2472772Y494241D01*
X2533513Y512053D02*
G01*
X2533513Y540322D01*
X2572772Y540322D01*
X2572772Y512053D01*
X2533513Y494241D02*
G01*
X2533513Y465972D01*
X2572772Y465972D01*
X2572772Y494241D01*
X2633513Y512053D02*
G01*
X2633513Y540322D01*
X2672772Y540322D01*
X2672772Y512053D01*
X2633513Y494241D02*
G01*
X2633513Y465972D01*
X2672772Y465972D01*
X2672772Y494241D01*
X2733513Y512053D02*
G01*
X2733513Y540322D01*
X2772772Y540322D01*
X2772772Y512053D01*
X2733513Y494241D02*
G01*
X2733513Y465972D01*
X2772772Y465972D01*
X2772772Y494241D01*
X2833512Y512053D02*
G01*
X2833512Y540322D01*
X2872772Y540322D01*
X2872772Y512053D01*
X2833512Y494241D02*
G01*
X2833512Y465972D01*
X2872772Y465972D01*
X2872772Y494241D01*
X2933512Y512053D02*
G01*
X2933512Y540322D01*
X2972772Y540322D01*
X2972772Y512053D01*
X2933512Y494241D02*
G01*
X2933512Y465972D01*
X2972772Y465972D01*
X2972772Y494241D01*
X3033512Y512053D02*
G01*
X3033512Y540322D01*
X3072772Y540322D01*
X3072772Y512053D01*
X3033512Y494241D02*
G01*
X3033512Y465972D01*
X3072772Y465972D01*
X3072772Y494241D01*
X3133512Y512053D02*
G01*
X3133512Y540322D01*
X3172772Y540322D01*
X3172772Y512053D01*
X3133512Y494241D02*
G01*
X3133512Y465972D01*
X3172772Y465972D01*
X3172772Y494241D01*
X3233512Y512053D02*
G01*
X3233512Y540322D01*
X3272772Y540322D01*
X3272772Y512053D01*
X3233512Y494241D02*
G01*
X3233512Y465972D01*
X3272772Y465972D01*
X3272772Y494241D01*
X3333510Y512053D02*
G01*
X3333510Y540322D01*
X3372771Y540322D01*
X3372771Y512053D01*
X3333510Y494241D02*
G01*
X3333510Y465972D01*
X3372771Y465972D01*
X3372771Y494241D01*
X3433510Y512053D02*
G01*
X3433510Y540322D01*
X3472771Y540322D01*
X3472771Y512053D01*
X3433510Y494241D02*
G01*
X3433510Y465972D01*
X3472771Y465972D01*
X3472771Y494241D01*
X507516Y3312545D02*
G01*
X507516Y3259005D01*
X592483Y3259005D01*
X592483Y3312545D01*
X507516Y3387442D02*
G01*
X507516Y3440983D01*
X592483Y3440983D01*
X592483Y3387442D01*
X607516Y3312545D02*
G01*
X607516Y3259005D01*
X692483Y3259005D01*
X692483Y3312545D01*
X607516Y3387442D02*
G01*
X607516Y3440983D01*
X692483Y3440983D01*
X692483Y3387442D01*
X707514Y3312545D02*
G01*
X707514Y3259005D01*
X792483Y3259005D01*
X792483Y3312545D01*
X707514Y3387442D02*
G01*
X707514Y3440983D01*
X792483Y3440983D01*
X792483Y3387442D01*
X807515Y3312545D02*
G01*
X807515Y3259005D01*
X892483Y3259005D01*
X892483Y3312545D01*
X807515Y3387442D02*
G01*
X807515Y3440983D01*
X892483Y3440983D01*
X892483Y3387442D01*
X907515Y3312545D02*
G01*
X907515Y3259005D01*
X992483Y3259005D01*
X992483Y3312545D01*
X907515Y3387442D02*
G01*
X907515Y3440983D01*
X992483Y3440983D01*
X992483Y3387442D01*
X1007515Y3312545D02*
G01*
X1007515Y3259005D01*
X1092483Y3259005D01*
X1092483Y3312545D01*
X1007515Y3387442D02*
G01*
X1007515Y3440983D01*
X1092483Y3440983D01*
X1092483Y3387442D01*
X1107515Y3312545D02*
G01*
X1107515Y3259005D01*
X1192483Y3259005D01*
X1192483Y3312545D01*
X1107515Y3387442D02*
G01*
X1107515Y3440983D01*
X1192483Y3440983D01*
X1192483Y3387442D01*
X1207514Y3312545D02*
G01*
X1207514Y3259005D01*
X1292482Y3259005D01*
X1292482Y3312545D01*
X1207514Y3387442D02*
G01*
X1207514Y3440983D01*
X1292482Y3440983D01*
X1292482Y3387442D01*
X1307509Y3312537D02*
G01*
X1307509Y3258998D01*
X1392476Y3258998D01*
X1392476Y3312537D01*
X1307509Y3387435D02*
G01*
X1307509Y3440976D01*
X1392476Y3440976D01*
X1392476Y3387435D01*
X1407509Y3312537D02*
G01*
X1407509Y3258998D01*
X1492476Y3258998D01*
X1492476Y3312537D01*
X1407509Y3387435D02*
G01*
X1407509Y3440976D01*
X1492476Y3440976D01*
X1492476Y3387435D01*
D12*
X574998Y3649992D02*
G01*
X499998Y3649992D01*
X499998Y3549992D01*
X1499997Y3549992D01*
X1499997Y3649992D01*
D13*
X1499997Y3649992D02*
G01*
X574998Y3649992D01*
D12*
X574998Y3049994D02*
G01*
X499998Y3049994D01*
X499998Y2949994D01*
X1499997Y2949994D01*
X1499997Y3049994D01*
D13*
X1499997Y3049994D02*
G01*
X574998Y3049994D01*
D12*
X1574996Y3649992D02*
G01*
X1499996Y3649992D01*
X1499996Y3549992D01*
X2499996Y3549992D01*
X2499996Y3649992D01*
D13*
X2499996Y3649992D02*
G01*
X1574996Y3649992D01*
D12*
X1574996Y3049994D02*
G01*
X1499996Y3049994D01*
X1499996Y2949994D01*
X2499996Y2949994D01*
X2499996Y3049994D01*
D13*
X2499996Y3049994D02*
G01*
X1574996Y3049994D01*
D12*
X2574993Y3649992D02*
G01*
X2499993Y3649992D01*
X2499993Y3549992D01*
X3499993Y3549992D01*
X3499993Y3649992D01*
D13*
X3499993Y3649992D02*
G01*
X2574993Y3649992D01*
D12*
X2574993Y3049994D02*
G01*
X2499993Y3049994D01*
X2499993Y2949994D01*
X3499993Y2949994D01*
X3499993Y3049994D01*
D13*
X3499993Y3049994D02*
G01*
X2574993Y3049994D01*
D11*
X1507511Y3312545D02*
G01*
X1507511Y3259005D01*
X1592479Y3259005D01*
X1592479Y3312545D01*
X1507511Y3387442D02*
G01*
X1507511Y3440983D01*
X1592479Y3440983D01*
X1592479Y3387442D01*
X1607511Y3312545D02*
G01*
X1607511Y3259005D01*
X1692479Y3259005D01*
X1692479Y3312545D01*
X1607511Y3387442D02*
G01*
X1607511Y3440983D01*
X1692479Y3440983D01*
X1692479Y3387442D01*
X1707511Y3312545D02*
G01*
X1707511Y3259005D01*
X1792479Y3259005D01*
X1792479Y3312545D01*
X1707511Y3387442D02*
G01*
X1707511Y3440983D01*
X1792479Y3440983D01*
X1792479Y3387442D01*
X1807511Y3312545D02*
G01*
X1807511Y3259005D01*
X1892479Y3259005D01*
X1892479Y3312545D01*
X1807511Y3387442D02*
G01*
X1807511Y3440983D01*
X1892479Y3440983D01*
X1892479Y3387442D01*
X1907511Y3312545D02*
G01*
X1907511Y3259005D01*
X1992479Y3259005D01*
X1992479Y3312545D01*
X1907511Y3387442D02*
G01*
X1907511Y3440983D01*
X1992479Y3440983D01*
X1992479Y3387442D01*
X2007511Y3312545D02*
G01*
X2007511Y3259005D01*
X2092479Y3259005D01*
X2092479Y3312545D01*
X2007511Y3387442D02*
G01*
X2007511Y3440983D01*
X2092479Y3440983D01*
X2092479Y3387442D01*
X2107511Y3312545D02*
G01*
X2107511Y3259005D01*
X2192479Y3259005D01*
X2192479Y3312545D01*
X2107511Y3387442D02*
G01*
X2107511Y3440983D01*
X2192479Y3440983D01*
X2192479Y3387442D01*
X2207511Y3312545D02*
G01*
X2207511Y3259005D01*
X2292479Y3259005D01*
X2292479Y3312545D01*
X2207511Y3387442D02*
G01*
X2207511Y3440983D01*
X2292479Y3440983D01*
X2292479Y3387442D01*
X2307511Y3312545D02*
G01*
X2307511Y3259005D01*
X2392479Y3259005D01*
X2392479Y3312545D01*
X2307511Y3387442D02*
G01*
X2307511Y3440983D01*
X2392479Y3440983D01*
X2392479Y3387442D01*
X2407509Y3312545D02*
G01*
X2407509Y3259005D01*
X2492476Y3259005D01*
X2492476Y3312545D01*
X2407509Y3387442D02*
G01*
X2407509Y3440983D01*
X2492476Y3440983D01*
X2492476Y3387442D01*
X2507509Y3312545D02*
G01*
X2507509Y3259005D01*
X2592476Y3259005D01*
X2592476Y3312545D01*
X2507509Y3387442D02*
G01*
X2507509Y3440983D01*
X2592476Y3440983D01*
X2592476Y3387442D01*
X2607509Y3312545D02*
G01*
X2607509Y3259005D01*
X2692476Y3259005D01*
X2692476Y3312545D01*
X2607509Y3387442D02*
G01*
X2607509Y3440983D01*
X2692476Y3440983D01*
X2692476Y3387442D01*
X2707509Y3312545D02*
G01*
X2707509Y3259005D01*
X2792476Y3259005D01*
X2792476Y3312545D01*
X2707509Y3387442D02*
G01*
X2707509Y3440983D01*
X2792476Y3440983D01*
X2792476Y3387442D01*
X2807509Y3312545D02*
G01*
X2807509Y3259005D01*
X2892476Y3259005D01*
X2892476Y3312545D01*
X2807509Y3387442D02*
G01*
X2807509Y3440983D01*
X2892476Y3440983D01*
X2892476Y3387442D01*
X2907509Y3312545D02*
G01*
X2907509Y3259005D01*
X2992476Y3259005D01*
X2992476Y3312545D01*
X2907509Y3387442D02*
G01*
X2907509Y3440983D01*
X2992476Y3440983D01*
X2992476Y3387442D01*
X3007509Y3312545D02*
G01*
X3007509Y3259005D01*
X3092476Y3259005D01*
X3092476Y3312545D01*
X3007509Y3387442D02*
G01*
X3007509Y3440983D01*
X3092476Y3440983D01*
X3092476Y3387442D01*
X3107509Y3312545D02*
G01*
X3107509Y3259005D01*
X3192476Y3259005D01*
X3192476Y3312545D01*
X3107509Y3387442D02*
G01*
X3107509Y3440983D01*
X3192476Y3440983D01*
X3192476Y3387442D01*
X3207509Y3312545D02*
G01*
X3207509Y3259005D01*
X3292476Y3259005D01*
X3292476Y3312545D01*
X3207509Y3387442D02*
G01*
X3207509Y3440983D01*
X3292476Y3440983D01*
X3292476Y3387442D01*
X3307509Y3312545D02*
G01*
X3307509Y3259005D01*
X3392476Y3259005D01*
X3392476Y3312545D01*
X3307509Y3387442D02*
G01*
X3307509Y3440983D01*
X3392476Y3440983D01*
X3392476Y3387442D01*
X3407509Y3312545D02*
G01*
X3407509Y3259005D01*
X3492476Y3259005D01*
X3492476Y3312545D01*
X3407509Y3387442D02*
G01*
X3407509Y3440983D01*
X3492476Y3440983D01*
X3492476Y3387442D01*
D14*
X100000Y3749989D02*
G01*
X3849989Y3749989D01*
X3849989Y2899989D01*
X100000Y2899989D01*
X100000Y3749989D01*
X103150Y2753139D02*
G01*
X3853140Y2753139D01*
X3853140Y1903139D01*
X103150Y1903139D01*
X103150Y2753139D01*
X103150Y1753139D02*
G01*
X3853140Y1753139D01*
X3853140Y953139D01*
X103150Y953139D01*
X103150Y1753139D01*
X103150Y803150D02*
G01*
X3853140Y803150D01*
X3853140Y103150D01*
X103150Y103150D01*
X103150Y803150D01*
M02*
