G04 Layer: BottomLayer*
G04 EasyEDA v6.5.22, 2023-04-04 18:07:08*
G04 a67cddfb3fce44daa9051d46cbbcc19f,10*
G04 Gerber Generator version 0.2*
G04 Scale: 100 percent, Rotated: No, Reflected: No *
G04 Dimensions in inches *
G04 leading zeros omitted , absolute positions ,3 integer and 6 decimal *
%FSLAX36Y36*%
%MOIN*%

%ADD10C,0.0620*%
%ADD11R,0.0620X0.0620*%

%LPD*%
D10*
G01*
X2453140Y2603139D03*
G01*
X2353140Y2603139D03*
G01*
X2253140Y2603139D03*
G01*
X2153140Y2603139D03*
G01*
X2053140Y2603139D03*
G01*
X1953140Y2603139D03*
G01*
X1853140Y2603139D03*
G01*
X1753140Y2603139D03*
G01*
X1653140Y2603139D03*
D11*
G01*
X1553140Y2603139D03*
D10*
G01*
X2453140Y2003139D03*
G01*
X2353140Y2003139D03*
G01*
X2253140Y2003139D03*
G01*
X2153140Y2003139D03*
G01*
X2053140Y2003139D03*
G01*
X1953140Y2003139D03*
G01*
X1853140Y2003139D03*
G01*
X1753140Y2003139D03*
G01*
X1653140Y2003139D03*
D11*
G01*
X1553140Y2003139D03*
D10*
G01*
X1453149Y1653139D03*
G01*
X1353149Y1653139D03*
G01*
X1253149Y1653139D03*
G01*
X1153149Y1653139D03*
G01*
X1053149Y1653139D03*
G01*
X953149Y1653139D03*
G01*
X853149Y1653139D03*
G01*
X753150Y1653139D03*
G01*
X653150Y1653139D03*
D11*
G01*
X553150Y1653139D03*
D10*
G01*
X1453149Y1053150D03*
G01*
X1353149Y1053150D03*
G01*
X1253149Y1053150D03*
G01*
X1153149Y1053150D03*
G01*
X1053149Y1053150D03*
G01*
X953149Y1053150D03*
G01*
X853149Y1053150D03*
G01*
X753150Y1053150D03*
G01*
X653150Y1053150D03*
D11*
G01*
X553150Y1053150D03*
D10*
G01*
X2453140Y1653139D03*
G01*
X2353140Y1653139D03*
G01*
X2253140Y1653139D03*
G01*
X2153140Y1653139D03*
G01*
X2053140Y1653139D03*
G01*
X1953140Y1653139D03*
G01*
X1853140Y1653139D03*
G01*
X1753140Y1653139D03*
G01*
X1653140Y1653139D03*
D11*
G01*
X1553140Y1653139D03*
D10*
G01*
X2453140Y1053150D03*
G01*
X2353140Y1053150D03*
G01*
X2253140Y1053150D03*
G01*
X2153140Y1053150D03*
G01*
X2053140Y1053150D03*
G01*
X1953140Y1053150D03*
G01*
X1853140Y1053150D03*
G01*
X1753140Y1053150D03*
G01*
X1653140Y1053150D03*
D11*
G01*
X1553140Y1053150D03*
D10*
G01*
X3453140Y1653139D03*
G01*
X3353140Y1653139D03*
G01*
X3253140Y1653139D03*
G01*
X3153140Y1653139D03*
G01*
X3053140Y1653139D03*
G01*
X2953140Y1653139D03*
G01*
X2853140Y1653139D03*
G01*
X2753140Y1653139D03*
G01*
X2653140Y1653139D03*
D11*
G01*
X2553140Y1653139D03*
D10*
G01*
X3453140Y1053150D03*
G01*
X3353140Y1053150D03*
G01*
X3253140Y1053150D03*
G01*
X3153140Y1053150D03*
G01*
X3053140Y1053150D03*
G01*
X2953140Y1053150D03*
G01*
X2853140Y1053150D03*
G01*
X2753140Y1053150D03*
G01*
X2653140Y1053150D03*
D11*
G01*
X2553140Y1053150D03*
D10*
G01*
X1453149Y2603139D03*
G01*
X1353149Y2603139D03*
G01*
X1253149Y2603139D03*
G01*
X1153149Y2603139D03*
G01*
X1053149Y2603139D03*
G01*
X953149Y2603139D03*
G01*
X853149Y2603139D03*
G01*
X753150Y2603139D03*
G01*
X653150Y2603139D03*
D11*
G01*
X553150Y2603139D03*
D10*
G01*
X1453149Y2003139D03*
G01*
X1353149Y2003139D03*
G01*
X1253149Y2003139D03*
G01*
X1153149Y2003139D03*
G01*
X1053149Y2003139D03*
G01*
X953149Y2003139D03*
G01*
X853149Y2003139D03*
G01*
X753150Y2003139D03*
G01*
X653150Y2003139D03*
D11*
G01*
X553150Y2003139D03*
D10*
G01*
X3453140Y2603139D03*
G01*
X3353140Y2603139D03*
G01*
X3253140Y2603139D03*
G01*
X3153140Y2603139D03*
G01*
X3053140Y2603139D03*
G01*
X2953140Y2603139D03*
G01*
X2853140Y2603139D03*
G01*
X2753140Y2603139D03*
G01*
X2653140Y2603139D03*
D11*
G01*
X2553140Y2603139D03*
D10*
G01*
X3453140Y2003139D03*
G01*
X3353140Y2003139D03*
G01*
X3253140Y2003139D03*
G01*
X3153140Y2003139D03*
G01*
X3053140Y2003139D03*
G01*
X2953140Y2003139D03*
G01*
X2853140Y2003139D03*
G01*
X2753140Y2003139D03*
G01*
X2653140Y2003139D03*
D11*
G01*
X2553140Y2003139D03*
D10*
G01*
X1453149Y703150D03*
G01*
X1353149Y703150D03*
G01*
X1253149Y703150D03*
G01*
X1153149Y703150D03*
G01*
X1053149Y703150D03*
G01*
X953149Y703150D03*
G01*
X853149Y703150D03*
G01*
X753150Y703150D03*
G01*
X653150Y703150D03*
D11*
G01*
X553150Y703150D03*
D10*
G01*
X1453149Y203150D03*
G01*
X1353149Y203150D03*
G01*
X1253149Y203150D03*
G01*
X1153149Y203150D03*
G01*
X1053149Y203150D03*
G01*
X953149Y203150D03*
G01*
X853149Y203150D03*
G01*
X753150Y203150D03*
G01*
X653150Y203150D03*
D11*
G01*
X553150Y203150D03*
D10*
G01*
X2453140Y703150D03*
G01*
X2353140Y703150D03*
G01*
X2253140Y703150D03*
G01*
X2153140Y703150D03*
G01*
X2053140Y703150D03*
G01*
X1953140Y703150D03*
G01*
X1853140Y703150D03*
G01*
X1753140Y703150D03*
G01*
X1653140Y703150D03*
D11*
G01*
X1553140Y703150D03*
D10*
G01*
X2453140Y203150D03*
G01*
X2353140Y203150D03*
G01*
X2253140Y203150D03*
G01*
X2153140Y203150D03*
G01*
X2053140Y203150D03*
G01*
X1953140Y203150D03*
G01*
X1853140Y203150D03*
G01*
X1753140Y203150D03*
G01*
X1653140Y203150D03*
D11*
G01*
X1553140Y203150D03*
D10*
G01*
X3453140Y703150D03*
G01*
X3353140Y703150D03*
G01*
X3253140Y703150D03*
G01*
X3153140Y703150D03*
G01*
X3053140Y703150D03*
G01*
X2953140Y703150D03*
G01*
X2853140Y703150D03*
G01*
X2753140Y703150D03*
G01*
X2653140Y703150D03*
D11*
G01*
X2553140Y703150D03*
D10*
G01*
X3453140Y203150D03*
G01*
X3353140Y203150D03*
G01*
X3253140Y203150D03*
G01*
X3153140Y203150D03*
G01*
X3053140Y203150D03*
G01*
X2953140Y203150D03*
G01*
X2853140Y203150D03*
G01*
X2753140Y203150D03*
G01*
X2653140Y203150D03*
D11*
G01*
X2553140Y203150D03*
D10*
G01*
X1450000Y3599989D03*
G01*
X1350000Y3599989D03*
G01*
X1250000Y3599989D03*
G01*
X1150000Y3599989D03*
G01*
X1050000Y3599989D03*
G01*
X950000Y3599989D03*
G01*
X850000Y3599989D03*
G01*
X750000Y3599989D03*
G01*
X650000Y3599989D03*
D11*
G01*
X550000Y3599989D03*
D10*
G01*
X1450000Y2999989D03*
G01*
X1350000Y2999989D03*
G01*
X1250000Y2999989D03*
G01*
X1150000Y2999989D03*
G01*
X1050000Y2999989D03*
G01*
X950000Y2999989D03*
G01*
X850000Y2999989D03*
G01*
X750000Y2999989D03*
G01*
X650000Y2999989D03*
D11*
G01*
X550000Y2999989D03*
D10*
G01*
X2450000Y3599989D03*
G01*
X2350000Y3599989D03*
G01*
X2250000Y3599989D03*
G01*
X2150000Y3599989D03*
G01*
X2050000Y3599989D03*
G01*
X1950000Y3599989D03*
G01*
X1850000Y3599989D03*
G01*
X1750000Y3599989D03*
G01*
X1650000Y3599989D03*
D11*
G01*
X1550000Y3599989D03*
D10*
G01*
X2450000Y2999989D03*
G01*
X2350000Y2999989D03*
G01*
X2250000Y2999989D03*
G01*
X2150000Y2999989D03*
G01*
X2050000Y2999989D03*
G01*
X1950000Y2999989D03*
G01*
X1850000Y2999989D03*
G01*
X1750000Y2999989D03*
G01*
X1650000Y2999989D03*
D11*
G01*
X1550000Y2999989D03*
D10*
G01*
X3449989Y3599989D03*
G01*
X3349989Y3599989D03*
G01*
X3249989Y3599989D03*
G01*
X3149989Y3599989D03*
G01*
X3049989Y3599989D03*
G01*
X2949989Y3599989D03*
G01*
X2849989Y3599989D03*
G01*
X2749989Y3599989D03*
G01*
X2649989Y3599989D03*
D11*
G01*
X2549989Y3599989D03*
D10*
G01*
X3449989Y2999989D03*
G01*
X3349989Y2999989D03*
G01*
X3249989Y2999989D03*
G01*
X3149989Y2999989D03*
G01*
X3049989Y2999989D03*
G01*
X2949989Y2999989D03*
G01*
X2849989Y2999989D03*
G01*
X2749989Y2999989D03*
G01*
X2649989Y2999989D03*
D11*
G01*
X2549989Y2999989D03*
M02*
